<svg width="62" height="62" viewBox="0 0 62 62" fill="none" xmlns="http://www.w3.org/2000/svg">
<path d="M16.028 5.25512C21.3705 3.01621 28.6195 2 34.3008 2C40.9626 2 50.6318 7.58724 54.7234 10.7261C56.8042 13.1745 57.7653 14.547 58.3714 16.9177C59.4452 21.1177 60 24.661 60 29.039C60 36.3531 56.4367 46.0771 53.8114 49.6778C51.7195 52.5469 49.1418 55.2157 46.5153 57.6058C43.3597 60.4773 38.1485 59.9645 34.3008 59.9645C26.1976 59.9645 17.1058 58.2706 11.012 52.2986C1.61207 43.0868 -0.268157 28.9585 4.5953 16.9177C6.83097 11.3827 10.3243 7.64543 16.028 5.25512Z" fill="#C767FC" stroke="#C767FC" stroke-width="4" stroke-linecap="round"/>
<path d="M18.9688 10.1217C23.2966 8.31846 29.1687 7.5 33.7709 7.5C39.1673 7.5 47 12 50.3144 14.528C52 16.5 52.7786 17.6055 53.2696 19.5148C54.1394 22.8975 54.5888 25.7513 54.5888 29.2774C54.5888 35.1682 51.7023 43 49.5756 45.9C47.8811 48.2108 45.793 50.3603 43.6653 52.2853C41.1092 54.598 36.8877 54.185 33.7709 54.185C27.2067 54.185 19.8419 52.8207 14.9055 48.0108C7.29098 40.5916 5.76788 29.2126 9.70758 19.5148C11.5186 15.0569 14.3484 12.0469 18.9688 10.1217Z" fill="#C767FC" stroke="white" stroke-width="4" stroke-linecap="round"/>
<path d="M30 21C30 24.1213 30.7773 27.2244 30.9143 30.3459C30.9301 30.7061 31.1279 32.9213 31.2825 32.7987C31.688 32.4774 32.9958 33.4148 33.3651 33.5912C35.2048 34.4698 37.0803 35.2655 38.8127 36.3459C40.0355 37.1086 40.9842 37.9938 42 39" stroke="white" stroke-width="4" stroke-linecap="round"/>
</svg>
