<svg width="17" height="29" viewBox="0 0 17 29" fill="none" xmlns="http://www.w3.org/2000/svg">
<mask id="path-1-outside-1_3481_2677" maskUnits="userSpaceOnUse" x="-1.6751" y="-0.00341859" width="19.1364" height="28.2913" fill="black">
<rect fill="white" x="-1.6751" y="-0.00341859" width="19.1364" height="28.2913"/>
<path d="M5.07426 18.1706L4.96591 5.90534L5.06336 4.7093L12.2157 5.29203L12.1182 6.48807L10.0019 18.5721L5.07426 18.1706ZM4.40823 23.3898L4.72786 19.4668L10.1339 19.9073L9.81432 23.8303L4.40823 23.3898Z"/>
</mask>
<path d="M5.07426 18.1706L4.96591 5.90534L5.06336 4.7093L12.2157 5.29203L12.1182 6.48807L10.0019 18.5721L5.07426 18.1706ZM4.40823 23.3898L4.72786 19.4668L10.1339 19.9073L9.81432 23.8303L4.40823 23.3898Z" fill="white"/>
<path d="M5.07426 18.1706L1.07442 18.206L1.1067 21.8606L4.74944 22.1574L5.07426 18.1706ZM4.96591 5.90534L0.979125 5.58051L0.964477 5.7603L0.966071 5.94067L4.96591 5.90534ZM5.06336 4.7093L5.38818 0.722509L1.4014 0.397686L1.07657 4.38448L5.06336 4.7093ZM12.2157 5.29203L16.2025 5.61685L16.5273 1.63006L12.5405 1.30524L12.2157 5.29203ZM12.1182 6.48807L16.0583 7.17809L16.09 6.99657L16.105 6.81289L12.1182 6.48807ZM10.0019 18.5721L9.67711 22.5589L13.3127 22.8551L13.942 19.2621L10.0019 18.5721ZM4.40823 23.3898L0.421445 23.065L0.0966219 27.0518L4.08341 27.3766L4.40823 23.3898ZM4.72786 19.4668L5.05268 15.48L1.06589 15.1552L0.741071 19.142L4.72786 19.4668ZM10.1339 19.9073L14.1207 20.2321L14.4456 16.2453L10.4588 15.9205L10.1339 19.9073ZM9.81432 23.8303L9.4895 27.817L13.4763 28.1419L13.8011 24.1551L9.81432 23.8303ZM9.0741 18.1353L8.96576 5.87L0.966071 5.94067L1.07442 18.206L9.0741 18.1353ZM8.9527 6.23016L9.05015 5.03412L1.07657 4.38448L0.979125 5.58051L8.9527 6.23016ZM4.73854 8.69609L11.8908 9.27882L12.5405 1.30524L5.38818 0.722509L4.73854 8.69609ZM8.22887 4.96721L8.13143 6.16324L16.105 6.81289L16.2025 5.61685L8.22887 4.96721ZM8.17818 5.79805L6.0619 17.8821L13.942 19.2621L16.0583 7.17809L8.17818 5.79805ZM10.3268 14.5853L5.39908 14.1839L4.74944 22.1574L9.67711 22.5589L10.3268 14.5853ZM8.39502 23.7146L8.71465 19.7916L0.741071 19.142L0.421445 23.065L8.39502 23.7146ZM4.40304 23.4536L9.80912 23.894L10.4588 15.9205L5.05268 15.48L4.40304 23.4536ZM6.14716 19.5824L5.82753 23.5054L13.8011 24.1551L14.1207 20.2321L6.14716 19.5824ZM10.1391 19.8435L4.73306 19.403L4.08341 27.3766L9.4895 27.817L10.1391 19.8435Z" fill="#FFB151" mask="url(#path-1-outside-1_3481_2677)"/>
</svg>
