<svg width="15" height="31" viewBox="0 0 15 31" fill="none" xmlns="http://www.w3.org/2000/svg">
<mask id="path-1-outside-1_3481_2582" maskUnits="userSpaceOnUse" x="-0.228735" y="0.101394" width="15.9314" height="30.4547" fill="black">
<rect fill="white" x="-0.228735" y="0.101394" width="15.9314" height="30.4547"/>
<path d="M8.08294 4.63833C8.85106 4.64637 9.43576 4.88879 9.83704 5.36558C10.2388 5.82638 10.5004 6.41886 10.6218 7.14301C10.7592 7.86766 10.7821 8.66877 10.6906 9.54634C10.6156 10.4084 10.4774 11.2445 10.2759 12.0546L8.08651 20.6303L6.59924 20.5837L5.31037 11.8991C5.16149 11.03 5.06859 10.1627 5.03166 9.29713C4.99523 8.41556 5.05974 7.6332 5.2252 6.95004C5.40715 6.25139 5.72078 5.69293 6.16609 5.27466C6.62789 4.8409 7.26684 4.62879 8.08294 4.63833ZM7.36456 21.4481C7.7004 21.4586 8.01024 21.5323 8.2941 21.6693C8.59394 21.8067 8.84431 21.9907 9.0452 22.2211C9.26208 22.452 9.42973 22.7213 9.54815 23.0292C9.66708 23.3211 9.72153 23.6269 9.71152 23.9468C9.70101 24.2826 9.62702 24.6004 9.48957 24.9003C9.35212 25.2001 9.16795 25.4585 8.93705 25.6754C8.72264 25.8768 8.46151 26.0367 8.15365 26.1551C7.86179 26.274 7.54794 26.3282 7.2121 26.3177C6.87627 26.3072 6.56642 26.2335 6.28257 26.0965C5.99872 25.9596 5.7481 25.7836 5.53072 25.5687C5.32983 25.3383 5.17017 25.0692 5.05175 24.7613C4.93332 24.4535 4.87937 24.1316 4.88988 23.7958C4.8999 23.476 4.97338 23.1741 5.11033 22.8903C5.24778 22.5904 5.42396 22.3318 5.63886 22.1144C5.86976 21.8975 6.13115 21.7296 6.42301 21.6107C6.71488 21.4918 7.02873 21.4376 7.36456 21.4481Z"/>
</mask>
<path d="M8.08294 4.63833C8.85106 4.64637 9.43576 4.88879 9.83704 5.36558C10.2388 5.82638 10.5004 6.41886 10.6218 7.14301C10.7592 7.86766 10.7821 8.66877 10.6906 9.54634C10.6156 10.4084 10.4774 11.2445 10.2759 12.0546L8.08651 20.6303L6.59924 20.5837L5.31037 11.8991C5.16149 11.03 5.06859 10.1627 5.03166 9.29713C4.99523 8.41556 5.05974 7.6332 5.2252 6.95004C5.40715 6.25139 5.72078 5.69293 6.16609 5.27466C6.62789 4.8409 7.26684 4.62879 8.08294 4.63833ZM7.36456 21.4481C7.7004 21.4586 8.01024 21.5323 8.2941 21.6693C8.59394 21.8067 8.84431 21.9907 9.0452 22.2211C9.26208 22.452 9.42973 22.7213 9.54815 23.0292C9.66708 23.3211 9.72153 23.6269 9.71152 23.9468C9.70101 24.2826 9.62702 24.6004 9.48957 24.9003C9.35212 25.2001 9.16795 25.4585 8.93705 25.6754C8.72264 25.8768 8.46151 26.0367 8.15365 26.1551C7.86179 26.274 7.54794 26.3282 7.2121 26.3177C6.87627 26.3072 6.56642 26.2335 6.28257 26.0965C5.99872 25.9596 5.7481 25.7836 5.53072 25.5687C5.32983 25.3383 5.17017 25.0692 5.05175 24.7613C4.93332 24.4535 4.87937 24.1316 4.88988 23.7958C4.8999 23.476 4.97338 23.1741 5.11033 22.8903C5.24778 22.5904 5.42396 22.3318 5.63886 22.1144C5.86976 21.8975 6.13115 21.7296 6.42301 21.6107C6.71488 21.4918 7.02873 21.4376 7.36456 21.4481Z" fill="white"/>
<path d="M8.08294 4.63833L8.03617 8.63806L8.04107 8.63811L8.08294 4.63833ZM9.83704 5.36558L6.77667 7.94126L6.79917 7.96799L6.82213 7.99433L9.83704 5.36558ZM10.6218 7.14301L6.67685 7.80435L6.68389 7.84631L6.69181 7.88811L10.6218 7.14301ZM10.6906 9.54634L6.7122 9.1315L6.70865 9.16552L6.70569 9.19959L10.6906 9.54634ZM10.2759 12.0546L14.1516 13.0441L14.1547 13.032L14.1577 13.0199L10.2759 12.0546ZM8.08651 20.6303L7.96134 24.6283L11.1684 24.7287L11.9622 21.6198L8.08651 20.6303ZM6.59924 20.5837L2.64257 21.1709L3.13325 24.4772L6.47406 24.5818L6.59924 20.5837ZM5.31037 11.8991L9.26703 11.3119L9.26048 11.2678L9.25294 11.2238L5.31037 11.8991ZM5.03166 9.29713L1.03507 9.46229L1.03529 9.46764L5.03166 9.29713ZM5.2252 6.95004L1.35432 5.94193L1.34567 5.97513L1.3376 6.00847L5.2252 6.95004ZM6.16609 5.27466L3.42756 2.35911L3.42756 2.35911L6.16609 5.27466ZM8.2941 21.6693L6.55595 25.2719L6.59144 25.289L6.62726 25.3054L8.2941 21.6693ZM9.0452 22.2211L6.03028 24.8498L6.07895 24.9056L6.12965 24.9596L9.0452 22.2211ZM9.54815 23.0292L5.81484 24.4653L5.82899 24.5021L5.84386 24.5386L9.54815 23.0292ZM9.48957 24.9003L5.85341 23.2334L5.85341 23.2334L9.48957 24.9003ZM8.93705 25.6754L6.19852 22.7598L6.19852 22.7598L8.93705 25.6754ZM8.15365 26.1551L6.71755 22.4218L6.68077 22.4359L6.64428 22.4508L8.15365 26.1551ZM5.53072 25.5687L2.5158 28.1975L2.61317 28.3091L2.71852 28.4133L5.53072 25.5687ZM5.05175 24.7613L8.78506 23.3252L5.05175 24.7613ZM5.11033 22.8903L8.71295 24.6284L8.73007 24.5929L8.74649 24.5571L5.11033 22.8903ZM5.63887 22.1144L2.90033 19.1989L2.84636 19.2496L2.7943 19.3022L5.63887 22.1144ZM8.04107 8.63811C8.0199 8.63789 7.83512 8.63293 7.56561 8.52119C7.27587 8.40106 6.99521 8.20092 6.77667 7.94126L12.8974 2.78991C11.5744 1.2179 9.76355 0.655708 8.12481 0.638553L8.04107 8.63811ZM6.82213 7.99433C6.74321 7.90381 6.69746 7.8212 6.67535 7.77114C6.65497 7.72498 6.66406 7.72803 6.67685 7.80435L14.5668 6.48167C14.3478 5.17588 13.8293 3.85778 12.852 2.73683L6.82213 7.99433ZM6.69181 7.88811C6.74416 8.16422 6.77101 8.56747 6.7122 9.1315L14.6691 9.96118C14.7933 8.77007 14.7742 7.5711 14.5518 6.3979L6.69181 7.88811ZM6.70569 9.19959C6.64816 9.8607 6.54328 10.4896 6.39416 11.0893L14.1577 13.0199C14.4115 11.9994 14.5831 10.9561 14.6756 9.89309L6.70569 9.19959ZM6.40025 11.0651L4.21082 19.6408L11.9622 21.6198L14.1516 13.0441L6.40025 11.0651ZM8.21168 16.6322L6.72441 16.5857L6.47406 24.5818L7.96134 24.6283L8.21168 16.6322ZM10.5559 19.9965L9.26703 11.3119L1.35371 12.4863L2.64257 21.1709L10.5559 19.9965ZM9.25294 11.2238C9.13216 10.5187 9.0576 9.81997 9.02802 9.12662L1.03529 9.46764C1.07957 10.5055 1.19083 11.5414 1.3678 12.5745L9.25294 11.2238ZM9.02825 9.13197C9.00346 8.53227 9.05403 8.13429 9.1128 7.89161L1.3376 6.00847C1.06546 7.13211 0.98699 8.29885 1.03507 9.46229L9.02825 9.13197ZM9.09608 7.95815C9.11138 7.8994 9.11542 7.91086 9.08453 7.96586C9.05154 8.02461 8.99306 8.10714 8.90462 8.19021L3.42756 2.35911C2.33935 3.38125 1.69133 4.64789 1.35432 5.94193L9.09608 7.95815ZM8.90462 8.19021C8.68628 8.3953 8.44806 8.52142 8.25189 8.58655C8.07141 8.64646 7.9809 8.63741 8.03617 8.63806L8.12971 0.638607C6.58957 0.620598 4.84178 1.03075 3.42756 2.35911L8.90462 8.19021ZM7.23939 25.4461C7.05342 25.4403 6.80898 25.394 6.55595 25.2719L10.0322 18.0667C9.2115 17.6707 8.34737 17.4769 7.48973 17.45L7.23939 25.4461ZM6.62726 25.3054C6.45275 25.2254 6.23101 25.08 6.03028 24.8498L12.0601 19.5923C11.4576 18.9013 10.7351 18.388 9.96093 18.0331L6.62726 25.3054ZM6.12965 24.9596C5.97769 24.7978 5.8744 24.6201 5.81484 24.4653L13.2815 21.5931C12.9851 20.8226 12.5465 20.1061 11.9607 19.4825L6.12965 24.9596ZM5.84386 24.5386C5.74828 24.304 5.70626 24.0523 5.71348 23.8216L13.7096 24.0719C13.7368 23.2015 13.5859 22.3381 13.2524 21.5198L5.84386 24.5386ZM5.71348 23.8216C5.71933 23.6347 5.76449 23.4274 5.85341 23.2334L13.1257 26.5671C13.4896 25.7734 13.6827 24.9304 13.7096 24.0719L5.71348 23.8216ZM5.85341 23.2334C5.92253 23.0827 6.03673 22.9118 6.19852 22.7598L11.6756 28.5909C12.2992 28.0052 12.7817 27.3176 13.1257 26.5671L5.85341 23.2334ZM6.19852 22.7598C6.40438 22.5664 6.60091 22.4666 6.71755 22.4218L9.58976 29.8884C10.3221 29.6067 11.0409 29.1871 11.6756 28.5909L6.19852 22.7598ZM6.64428 22.4508C6.90445 22.3448 7.15131 22.3138 7.33727 22.3197L7.08693 30.3157C7.94457 30.3426 8.81913 30.2032 9.66303 29.8594L6.64428 22.4508ZM7.33727 22.3197C7.52324 22.3255 7.76768 22.3718 8.02071 22.4939L4.54443 29.6991C5.36516 30.0951 6.22929 30.2889 7.08693 30.3157L7.33727 22.3197ZM8.02071 22.4939C8.12175 22.5426 8.23682 22.6193 8.34291 22.7242L2.71852 28.4133C3.25937 28.948 3.87569 29.3765 4.54443 29.6991L8.02071 22.4939ZM8.54563 22.94C8.67555 23.089 8.74889 23.2312 8.78506 23.3252L1.31844 26.1974C1.59145 26.9072 1.9841 27.5877 2.5158 28.1975L8.54563 22.94ZM8.78506 23.3252C8.86167 23.5244 8.89377 23.7341 8.88792 23.921L0.891842 23.6706C0.864963 24.5291 1.00498 25.3826 1.31844 26.1974L8.78506 23.3252ZM8.88792 23.921C8.8807 24.1517 8.82301 24.4003 8.71295 24.6284L1.50771 21.1521C1.12375 21.9479 0.919093 22.8002 0.891842 23.6706L8.88792 23.921ZM8.74649 24.5571C8.70452 24.6486 8.62242 24.786 8.48343 24.9266L2.7943 19.3022C2.22549 19.8776 1.79104 20.5322 1.47417 21.2234L8.74649 24.5571ZM8.3774 25.03C8.25234 25.1474 8.09756 25.2477 7.93239 25.315L4.91364 17.9064C4.16473 18.2116 3.48719 18.6476 2.90033 19.1989L8.3774 25.03ZM7.93239 25.315C7.67222 25.421 7.42536 25.452 7.23939 25.4461L7.48973 17.45C6.63209 17.4232 5.75754 17.5625 4.91364 17.9064L7.93239 25.315Z" fill="#5BCF50" mask="url(#path-1-outside-1_3481_2582)"/>
</svg>
