<svg width="72" height="30" viewBox="0 0 72 30" fill="none" xmlns="http://www.w3.org/2000/svg">
<mask id="path-1-outside-1_3481_2320" maskUnits="userSpaceOnUse" x="0" y="0" width="72" height="30" fill="black">
<rect fill="white" width="72" height="30"/>
<path d="M14.928 4.576C14.928 4.256 15.088 4.096 15.408 4.096H17.232C17.552 4.096 17.712 4.256 17.712 4.576V12.424H19.848V4.48C19.848 4.16 20.008 4 20.328 4H22.2C22.52 4 22.68 4.16 22.68 4.48V24.4C22.68 24.72 22.52 24.88 22.2 24.88H20.328C20.008 24.88 19.848 24.72 19.848 24.4V14.872H17.712V24.16C17.712 24.48 17.552 24.64 17.232 24.64H15.408C15.088 24.64 14.928 24.48 14.928 24.16V4.576ZM4.8 6.88C4.8 6.16 5.016 5.584 5.448 5.152C5.896 4.704 6.48 4.48 7.2 4.48H12.792C13.112 4.48 13.272 4.64 13.272 4.96V6.448C13.272 6.768 13.112 6.928 12.792 6.928H8.112C7.792 6.928 7.632 7.088 7.632 7.408V20.968C7.632 21.288 7.792 21.448 8.112 21.448H8.472C8.744 21.448 9.064 21.424 9.432 21.376C9.816 21.312 10.216 21.232 10.632 21.136C11.064 21.024 11.496 20.888 11.928 20.728C12.376 20.568 12.8 20.392 13.2 20.2C13.328 20.136 13.448 20.128 13.56 20.176C13.688 20.224 13.768 20.312 13.8 20.44L14.184 21.904C14.248 22.16 14.144 22.36 13.872 22.504C13.024 22.952 12.04 23.296 10.92 23.536C9.8 23.792 8.68 23.92 7.56 23.92H7.2C6.48 23.92 5.896 23.696 5.448 23.248C5.016 22.816 4.8 22.24 4.8 21.52V6.88ZM40.8814 4.48C40.8814 4.16 41.0414 4 41.3614 4H43.3294C43.6494 4 43.8094 4.16 43.8094 4.48V13.696C43.8094 14.016 43.6494 14.176 43.3294 14.176H41.3614C41.0414 14.176 40.8814 14.016 40.8814 13.696V12.52H37.0414C36.7214 12.52 36.5614 12.36 36.5614 12.04V10.696C36.5614 10.376 36.7214 10.216 37.0414 10.216H40.8814V8.824H37.6174C37.2974 8.824 37.1374 8.664 37.1374 8.344V6.976C37.1374 6.656 37.2974 6.496 37.6174 6.496H40.8814V4.48ZM31.1134 21.088C30.7934 21.088 30.6334 21.248 30.6334 21.568V22.192C30.6334 22.512 30.7934 22.672 31.1134 22.672H43.5934C43.9134 22.672 44.0734 22.832 44.0734 23.152V24.496C44.0734 24.816 43.9134 24.976 43.5934 24.976H30.1054C29.3854 24.976 28.8014 24.752 28.3534 24.304C27.9214 23.872 27.7054 23.296 27.7054 22.576V21.28C27.7054 20.56 27.9214 19.984 28.3534 19.552C28.8014 19.104 29.3854 18.88 30.1054 18.88H40.4014C40.7214 18.88 40.8814 18.72 40.8814 18.4V17.8C40.8814 17.48 40.7214 17.32 40.4014 17.32H28.1854C27.8654 17.32 27.7054 17.16 27.7054 16.84V15.568C27.7054 15.248 27.8654 15.088 28.1854 15.088H41.4094C42.1294 15.088 42.7054 15.312 43.1374 15.76C43.5854 16.192 43.8094 16.768 43.8094 17.488V18.688C43.8094 19.408 43.5854 19.992 43.1374 20.44C42.7054 20.872 42.1294 21.088 41.4094 21.088H31.1134ZM34.1614 4.48C34.8814 4.48 35.4574 4.704 35.8894 5.152C36.3374 5.584 36.5614 6.16 36.5614 6.88C36.5614 7.52 36.4254 8.128 36.1534 8.704C35.8814 9.28 35.5054 9.824 35.0254 10.336C34.5614 10.848 34.0094 11.32 33.3694 11.752C32.7454 12.184 32.0734 12.576 31.3534 12.928C30.6494 13.28 29.9214 13.584 29.1694 13.84C28.4174 14.08 27.6814 14.272 26.9614 14.416C26.8334 14.448 26.7134 14.448 26.6014 14.416C26.4894 14.384 26.4174 14.304 26.3854 14.176L25.9534 12.664C25.9214 12.52 25.9214 12.392 25.9534 12.28C26.0014 12.168 26.1054 12.096 26.2654 12.064C27.3214 11.824 28.2974 11.512 29.1934 11.128C30.1054 10.744 30.8894 10.328 31.5454 9.88C32.2174 9.432 32.7454 8.992 33.1294 8.56C33.5134 8.112 33.7054 7.704 33.7054 7.336C33.7054 7.016 33.5454 6.856 33.2254 6.856H26.8414C26.5214 6.856 26.3614 6.696 26.3614 6.376V4.96C26.3614 4.64 26.5214 4.48 26.8414 4.48H34.1614ZM61.9628 4.48C61.9628 4.16 62.1228 4 62.4428 4H64.4108C64.7308 4 64.8908 4.16 64.8908 4.48V8.368H66.9788C67.2988 8.368 67.4588 8.528 67.4588 8.848V10.48C67.4588 10.8 67.2988 10.96 66.9788 10.96H64.8908V15.064C64.8908 15.384 64.7308 15.544 64.4108 15.544H62.4428C62.1228 15.544 61.9628 15.384 61.9628 15.064V4.48ZM57.1148 25.096C54.3468 25.096 52.2588 24.688 50.8508 23.872C49.4588 23.056 48.7628 21.912 48.7628 20.44C48.7628 18.952 49.4588 17.8 50.8508 16.984C52.2588 16.168 54.3468 15.76 57.1148 15.76C59.8828 15.76 61.9628 16.168 63.3548 16.984C64.7628 17.8 65.4668 18.952 65.4668 20.44C65.4668 21.912 64.7628 23.056 63.3548 23.872C61.9628 24.688 59.8828 25.096 57.1148 25.096ZM57.1148 22.744C58.9868 22.744 60.3628 22.536 61.2428 22.12C62.1388 21.72 62.5868 21.16 62.5868 20.44C62.5868 19.704 62.1388 19.136 61.2428 18.736C60.3628 18.32 58.9868 18.112 57.1148 18.112C55.2428 18.112 53.8588 18.32 52.9628 18.736C52.0828 19.136 51.6428 19.704 51.6428 20.44C51.6428 21.16 52.0828 21.72 52.9628 22.12C53.8588 22.536 55.2428 22.744 57.1148 22.744ZM47.9948 13.888C47.8668 13.808 47.7868 13.704 47.7548 13.576C47.7228 13.432 47.7708 13.296 47.8988 13.168C48.2188 12.8 48.5388 12.376 48.8588 11.896C49.1948 11.4 49.5148 10.872 49.8188 10.312C50.1228 9.752 50.4028 9.184 50.6588 8.608C50.9308 8.016 51.1628 7.44 51.3548 6.88H48.3788C48.0588 6.88 47.8988 6.72 47.8988 6.4V4.984C47.8988 4.664 48.0588 4.504 48.3788 4.504H59.3228C59.6428 4.504 59.8028 4.664 59.8028 4.984V6.4C59.8028 6.72 59.6428 6.88 59.3228 6.88H54.2828C54.1868 7.216 54.0748 7.568 53.9468 7.936C53.8188 8.288 53.6748 8.648 53.5148 9.016C53.7548 8.904 54.0028 8.816 54.2588 8.752C54.5308 8.688 54.8108 8.656 55.0988 8.656C55.6108 8.656 56.0988 8.744 56.5628 8.92C57.0428 9.096 57.4908 9.384 57.9068 9.784C58.3388 10.184 58.7228 10.712 59.0588 11.368C59.4108 12.024 59.7068 12.832 59.9468 13.792C59.9788 13.904 59.9628 14.008 59.8988 14.104C59.8508 14.2 59.7548 14.264 59.6108 14.296L57.9068 14.8C57.6348 14.88 57.4588 14.768 57.3788 14.464C57.1868 13.728 56.9708 13.128 56.7308 12.664C56.5068 12.184 56.2668 11.808 56.0108 11.536C55.7548 11.264 55.4828 11.08 55.1948 10.984C54.9228 10.872 54.6428 10.816 54.3548 10.816C53.9228 10.816 53.5068 10.928 53.1068 11.152C52.7228 11.376 52.3228 11.704 51.9068 12.136C51.6028 12.648 51.2988 13.128 50.9948 13.576C50.6908 14.024 50.3948 14.432 50.1068 14.8C49.8988 15.056 49.6428 15.072 49.3388 14.848L47.9948 13.888Z"/>
</mask>
<path d="M14.928 4.576C14.928 4.256 15.088 4.096 15.408 4.096H17.232C17.552 4.096 17.712 4.256 17.712 4.576V12.424H19.848V4.48C19.848 4.16 20.008 4 20.328 4H22.2C22.52 4 22.68 4.16 22.68 4.48V24.4C22.68 24.72 22.52 24.88 22.2 24.88H20.328C20.008 24.88 19.848 24.72 19.848 24.4V14.872H17.712V24.16C17.712 24.48 17.552 24.64 17.232 24.64H15.408C15.088 24.64 14.928 24.48 14.928 24.16V4.576ZM4.8 6.88C4.8 6.16 5.016 5.584 5.448 5.152C5.896 4.704 6.48 4.48 7.2 4.48H12.792C13.112 4.48 13.272 4.64 13.272 4.96V6.448C13.272 6.768 13.112 6.928 12.792 6.928H8.112C7.792 6.928 7.632 7.088 7.632 7.408V20.968C7.632 21.288 7.792 21.448 8.112 21.448H8.472C8.744 21.448 9.064 21.424 9.432 21.376C9.816 21.312 10.216 21.232 10.632 21.136C11.064 21.024 11.496 20.888 11.928 20.728C12.376 20.568 12.8 20.392 13.2 20.2C13.328 20.136 13.448 20.128 13.56 20.176C13.688 20.224 13.768 20.312 13.8 20.44L14.184 21.904C14.248 22.16 14.144 22.36 13.872 22.504C13.024 22.952 12.04 23.296 10.92 23.536C9.8 23.792 8.68 23.92 7.56 23.92H7.2C6.48 23.92 5.896 23.696 5.448 23.248C5.016 22.816 4.8 22.24 4.8 21.52V6.88ZM40.8814 4.48C40.8814 4.16 41.0414 4 41.3614 4H43.3294C43.6494 4 43.8094 4.16 43.8094 4.48V13.696C43.8094 14.016 43.6494 14.176 43.3294 14.176H41.3614C41.0414 14.176 40.8814 14.016 40.8814 13.696V12.52H37.0414C36.7214 12.52 36.5614 12.36 36.5614 12.04V10.696C36.5614 10.376 36.7214 10.216 37.0414 10.216H40.8814V8.824H37.6174C37.2974 8.824 37.1374 8.664 37.1374 8.344V6.976C37.1374 6.656 37.2974 6.496 37.6174 6.496H40.8814V4.48ZM31.1134 21.088C30.7934 21.088 30.6334 21.248 30.6334 21.568V22.192C30.6334 22.512 30.7934 22.672 31.1134 22.672H43.5934C43.9134 22.672 44.0734 22.832 44.0734 23.152V24.496C44.0734 24.816 43.9134 24.976 43.5934 24.976H30.1054C29.3854 24.976 28.8014 24.752 28.3534 24.304C27.9214 23.872 27.7054 23.296 27.7054 22.576V21.28C27.7054 20.56 27.9214 19.984 28.3534 19.552C28.8014 19.104 29.3854 18.88 30.1054 18.88H40.4014C40.7214 18.88 40.8814 18.72 40.8814 18.4V17.8C40.8814 17.48 40.7214 17.32 40.4014 17.32H28.1854C27.8654 17.32 27.7054 17.16 27.7054 16.84V15.568C27.7054 15.248 27.8654 15.088 28.1854 15.088H41.4094C42.1294 15.088 42.7054 15.312 43.1374 15.76C43.5854 16.192 43.8094 16.768 43.8094 17.488V18.688C43.8094 19.408 43.5854 19.992 43.1374 20.44C42.7054 20.872 42.1294 21.088 41.4094 21.088H31.1134ZM34.1614 4.48C34.8814 4.48 35.4574 4.704 35.8894 5.152C36.3374 5.584 36.5614 6.16 36.5614 6.88C36.5614 7.52 36.4254 8.128 36.1534 8.704C35.8814 9.28 35.5054 9.824 35.0254 10.336C34.5614 10.848 34.0094 11.32 33.3694 11.752C32.7454 12.184 32.0734 12.576 31.3534 12.928C30.6494 13.28 29.9214 13.584 29.1694 13.84C28.4174 14.08 27.6814 14.272 26.9614 14.416C26.8334 14.448 26.7134 14.448 26.6014 14.416C26.4894 14.384 26.4174 14.304 26.3854 14.176L25.9534 12.664C25.9214 12.52 25.9214 12.392 25.9534 12.28C26.0014 12.168 26.1054 12.096 26.2654 12.064C27.3214 11.824 28.2974 11.512 29.1934 11.128C30.1054 10.744 30.8894 10.328 31.5454 9.88C32.2174 9.432 32.7454 8.992 33.1294 8.56C33.5134 8.112 33.7054 7.704 33.7054 7.336C33.7054 7.016 33.5454 6.856 33.2254 6.856H26.8414C26.5214 6.856 26.3614 6.696 26.3614 6.376V4.96C26.3614 4.64 26.5214 4.48 26.8414 4.48H34.1614ZM61.9628 4.48C61.9628 4.16 62.1228 4 62.4428 4H64.4108C64.7308 4 64.8908 4.16 64.8908 4.48V8.368H66.9788C67.2988 8.368 67.4588 8.528 67.4588 8.848V10.48C67.4588 10.8 67.2988 10.96 66.9788 10.96H64.8908V15.064C64.8908 15.384 64.7308 15.544 64.4108 15.544H62.4428C62.1228 15.544 61.9628 15.384 61.9628 15.064V4.48ZM57.1148 25.096C54.3468 25.096 52.2588 24.688 50.8508 23.872C49.4588 23.056 48.7628 21.912 48.7628 20.44C48.7628 18.952 49.4588 17.8 50.8508 16.984C52.2588 16.168 54.3468 15.76 57.1148 15.76C59.8828 15.76 61.9628 16.168 63.3548 16.984C64.7628 17.8 65.4668 18.952 65.4668 20.44C65.4668 21.912 64.7628 23.056 63.3548 23.872C61.9628 24.688 59.8828 25.096 57.1148 25.096ZM57.1148 22.744C58.9868 22.744 60.3628 22.536 61.2428 22.12C62.1388 21.72 62.5868 21.16 62.5868 20.44C62.5868 19.704 62.1388 19.136 61.2428 18.736C60.3628 18.32 58.9868 18.112 57.1148 18.112C55.2428 18.112 53.8588 18.32 52.9628 18.736C52.0828 19.136 51.6428 19.704 51.6428 20.44C51.6428 21.16 52.0828 21.72 52.9628 22.12C53.8588 22.536 55.2428 22.744 57.1148 22.744ZM47.9948 13.888C47.8668 13.808 47.7868 13.704 47.7548 13.576C47.7228 13.432 47.7708 13.296 47.8988 13.168C48.2188 12.8 48.5388 12.376 48.8588 11.896C49.1948 11.4 49.5148 10.872 49.8188 10.312C50.1228 9.752 50.4028 9.184 50.6588 8.608C50.9308 8.016 51.1628 7.44 51.3548 6.88H48.3788C48.0588 6.88 47.8988 6.72 47.8988 6.4V4.984C47.8988 4.664 48.0588 4.504 48.3788 4.504H59.3228C59.6428 4.504 59.8028 4.664 59.8028 4.984V6.4C59.8028 6.72 59.6428 6.88 59.3228 6.88H54.2828C54.1868 7.216 54.0748 7.568 53.9468 7.936C53.8188 8.288 53.6748 8.648 53.5148 9.016C53.7548 8.904 54.0028 8.816 54.2588 8.752C54.5308 8.688 54.8108 8.656 55.0988 8.656C55.6108 8.656 56.0988 8.744 56.5628 8.92C57.0428 9.096 57.4908 9.384 57.9068 9.784C58.3388 10.184 58.7228 10.712 59.0588 11.368C59.4108 12.024 59.7068 12.832 59.9468 13.792C59.9788 13.904 59.9628 14.008 59.8988 14.104C59.8508 14.2 59.7548 14.264 59.6108 14.296L57.9068 14.8C57.6348 14.88 57.4588 14.768 57.3788 14.464C57.1868 13.728 56.9708 13.128 56.7308 12.664C56.5068 12.184 56.2668 11.808 56.0108 11.536C55.7548 11.264 55.4828 11.08 55.1948 10.984C54.9228 10.872 54.6428 10.816 54.3548 10.816C53.9228 10.816 53.5068 10.928 53.1068 11.152C52.7228 11.376 52.3228 11.704 51.9068 12.136C51.6028 12.648 51.2988 13.128 50.9948 13.576C50.6908 14.024 50.3948 14.432 50.1068 14.8C49.8988 15.056 49.6428 15.072 49.3388 14.848L47.9948 13.888Z" fill="#F5F5F5"/>
<path d="M17.712 12.424H13.712V16.424H17.712V12.424ZM19.848 12.424V16.424H23.848V12.424H19.848ZM19.848 14.872H23.848V10.872H19.848V14.872ZM17.712 14.872V10.872H13.712V14.872H17.712ZM5.448 5.152L2.61957 2.32357L2.61957 2.32357L5.448 5.152ZM9.432 21.376L9.94936 25.3424L10.0197 25.3332L10.0896 25.3216L9.432 21.376ZM10.632 21.136L11.5314 25.0336L11.5838 25.0215L11.6358 25.008L10.632 21.136ZM11.928 20.728L10.5827 16.961L10.5607 16.9689L10.5387 16.977L11.928 20.728ZM13.2 20.2L14.9309 23.8061L14.96 23.7921L14.9889 23.7777L13.2 20.2ZM13.56 20.176L11.9843 23.8526L12.0691 23.8889L12.1555 23.9213L13.56 20.176ZM13.8 20.44L9.91943 21.4101L9.92503 21.4325L9.93088 21.4549L13.8 20.44ZM14.184 21.904L18.0646 20.9339L18.059 20.9115L18.0531 20.8891L14.184 21.904ZM13.872 22.504L15.7405 26.0408L15.7435 26.0392L13.872 22.504ZM10.92 23.536L10.0819 19.6248L10.0553 19.6305L10.0287 19.6366L10.92 23.536ZM5.448 23.248L8.27643 20.4196L5.448 23.248ZM18.928 4.576C18.928 5.03258 18.8111 6.1097 17.8764 7.04442C16.9417 7.97914 15.8646 8.096 15.408 8.096V0.0959988C14.6314 0.0959988 13.3143 0.292854 12.2196 1.38757C11.1249 2.48229 10.928 3.79942 10.928 4.576H18.928ZM15.408 8.096H17.232V0.0959988H15.408V8.096ZM17.232 8.096C16.7754 8.096 15.6983 7.97914 14.7636 7.04442C13.8289 6.1097 13.712 5.03258 13.712 4.576H21.712C21.712 3.79942 21.5151 2.4823 20.4204 1.38758C19.3257 0.292854 18.0086 0.0959988 17.232 0.0959988V8.096ZM13.712 4.576V12.424H21.712V4.576H13.712ZM17.712 16.424H19.848V8.424H17.712V16.424ZM23.848 12.424V4.48H15.848V12.424H23.848ZM23.848 4.48C23.848 4.93658 23.7311 6.01371 22.7964 6.94843C21.8617 7.88314 20.7846 8 20.328 8V-1.43051e-06C19.5514 -1.43051e-06 18.2343 0.196853 17.1396 1.29157C16.0449 2.38629 15.848 3.70342 15.848 4.48H23.848ZM20.328 8H22.2V-1.43051e-06H20.328V8ZM22.2 8C21.7434 8 20.6663 7.88314 19.7316 6.94843C18.7969 6.01371 18.68 4.93658 18.68 4.48H26.68C26.68 3.70342 26.4831 2.38629 25.3884 1.29157C24.2937 0.196853 22.9766 -1.43051e-06 22.2 -1.43051e-06V8ZM18.68 4.48V24.4H26.68V4.48H18.68ZM18.68 24.4C18.68 23.9434 18.7969 22.8663 19.7316 21.9316C20.6663 20.9969 21.7434 20.88 22.2 20.88V28.88C22.9766 28.88 24.2937 28.6831 25.3884 27.5884C26.4831 26.4937 26.68 25.1766 26.68 24.4H18.68ZM22.2 20.88H20.328V28.88H22.2V20.88ZM20.328 20.88C20.7846 20.88 21.8617 20.9969 22.7964 21.9316C23.7311 22.8663 23.848 23.9434 23.848 24.4H15.848C15.848 25.1766 16.0449 26.4937 17.1396 27.5884C18.2343 28.6831 19.5514 28.88 20.328 28.88V20.88ZM23.848 24.4V14.872H15.848V24.4H23.848ZM19.848 10.872H17.712V18.872H19.848V10.872ZM13.712 14.872V24.16H21.712V14.872H13.712ZM13.712 24.16C13.712 23.7034 13.8289 22.6263 14.7636 21.6916C15.6983 20.7569 16.7754 20.64 17.232 20.64V28.64C18.0086 28.64 19.3257 28.4431 20.4204 27.3484C21.5151 26.2537 21.712 24.9366 21.712 24.16H13.712ZM17.232 20.64H15.408V28.64H17.232V20.64ZM15.408 20.64C15.8646 20.64 16.9417 20.7569 17.8764 21.6916C18.8111 22.6263 18.928 23.7034 18.928 24.16H10.928C10.928 24.9366 11.1249 26.2537 12.2196 27.3484C13.3143 28.4431 14.6314 28.64 15.408 28.64V20.64ZM18.928 24.16V4.576H10.928V24.16H18.928ZM8.8 6.88C8.8 6.91945 8.79376 7.08197 8.70732 7.31249C8.61626 7.55532 8.46706 7.78979 8.27643 7.98043L2.61957 2.32357C1.30463 3.63851 0.8 5.30298 0.8 6.88H8.8ZM8.27643 7.98043C8.10908 8.14777 7.89312 8.29117 7.65449 8.3827C7.42569 8.47046 7.25667 8.48 7.2 8.48V0.48C5.57664 0.48 3.9222 1.02094 2.61957 2.32357L8.27643 7.98043ZM7.2 8.48H12.792V0.48H7.2V8.48ZM12.792 8.48C12.3354 8.48 11.2583 8.36315 10.3236 7.42843C9.38886 6.49371 9.272 5.41658 9.272 4.96H17.272C17.272 4.18342 17.0751 2.86629 15.9804 1.77157C14.8857 0.676853 13.5686 0.48 12.792 0.48V8.48ZM9.272 4.96V6.448H17.272V4.96H9.272ZM9.272 6.448C9.272 5.99142 9.38886 4.91429 10.3236 3.97957C11.2583 3.04485 12.3354 2.928 12.792 2.928V10.928C13.5686 10.928 14.8857 10.7311 15.9804 9.63643C17.0751 8.54171 17.272 7.22458 17.272 6.448H9.272ZM12.792 2.928H8.112V10.928H12.792V2.928ZM8.112 2.928C7.33542 2.928 6.01829 3.12485 4.92358 4.21957C3.82885 5.31429 3.632 6.63142 3.632 7.408H11.632C11.632 7.86458 11.5151 8.94171 10.5804 9.87643C9.64571 10.8111 8.56858 10.928 8.112 10.928V2.928ZM3.632 7.408V20.968H11.632V7.408H3.632ZM3.632 20.968C3.632 21.7446 3.82885 23.0617 4.92357 24.1564C6.01829 25.2511 7.33542 25.448 8.112 25.448V17.448C8.56858 17.448 9.64571 17.5649 10.5804 18.4996C11.5151 19.4343 11.632 20.5114 11.632 20.968H3.632ZM8.112 25.448H8.472V17.448H8.112V25.448ZM8.472 25.448C8.96637 25.448 9.46694 25.4053 9.94936 25.3424L8.91464 17.4096C8.66106 17.4427 8.52163 17.448 8.472 17.448V25.448ZM10.0896 25.3216C10.562 25.2428 11.0429 25.1463 11.5314 25.0336L9.73256 17.2384C9.3891 17.3177 9.07001 17.3812 8.7744 17.4304L10.0896 25.3216ZM11.6358 25.008C12.2024 24.8611 12.763 24.6843 13.3173 24.479L10.5387 16.977C10.229 17.0917 9.92561 17.1869 9.62815 17.264L11.6358 25.008ZM13.2733 24.495C13.8433 24.2914 14.3967 24.0625 14.9309 23.8061L11.4691 16.5939C11.2033 16.7215 10.9087 16.8446 10.5827 16.961L13.2733 24.495ZM14.9889 23.7777C14.6663 23.939 14.2127 24.0998 13.6521 24.1371C13.0734 24.1757 12.5008 24.0739 11.9843 23.8526L15.1357 16.4994C13.7493 15.9053 12.3882 16.1338 11.4111 16.6223L14.9889 23.7777ZM12.1555 23.9213C11.714 23.7558 11.2034 23.4606 10.7562 22.9687C10.305 22.4723 10.0458 21.9155 9.91943 21.4101L17.6806 19.4699C17.3161 18.0121 16.2709 16.9206 14.9645 16.4307L12.1555 23.9213ZM9.93088 21.4549L10.3149 22.9188L18.0531 20.8891L17.6691 19.4251L9.93088 21.4549ZM10.3034 22.8741C10.1413 22.2258 10.1313 21.3119 10.6051 20.4006C11.0421 19.5602 11.6745 19.1414 12.0005 18.9688L15.7435 26.0392C16.3415 25.7226 17.1619 25.1318 17.7029 24.0914C18.2807 22.9801 18.2907 21.8382 18.0646 20.9339L10.3034 22.8741ZM12.0035 18.9672C11.5359 19.2143 10.9102 19.4473 10.0819 19.6248L11.7581 27.4472C13.1698 27.1447 14.5121 26.6897 15.7405 26.0408L12.0035 18.9672ZM10.0287 19.6366C9.19353 19.8275 8.37241 19.92 7.56 19.92V27.92C8.98759 27.92 10.4065 27.7565 11.8113 27.4354L10.0287 19.6366ZM7.56 19.92H7.2V27.92H7.56V19.92ZM7.2 19.92C7.25667 19.92 7.42569 19.9295 7.65449 20.0173C7.89313 20.1088 8.10908 20.2522 8.27643 20.4196L2.61957 26.0764C3.9222 27.3791 5.57664 27.92 7.2 27.92V19.92ZM8.27643 20.4196C8.46706 20.6102 8.61626 20.8447 8.70732 21.0875C8.79376 21.318 8.8 21.4805 8.8 21.52H0.8C0.8 23.097 1.30463 24.7615 2.61957 26.0764L8.27643 20.4196ZM8.8 21.52V6.88H0.8V21.52H8.8ZM40.8814 12.52H44.8814V8.52H40.8814V12.52ZM40.8814 10.216V14.216H44.8814V10.216H40.8814ZM40.8814 8.824H44.8814V4.824H40.8814V8.824ZM40.8814 6.496V10.496H44.8814V6.496H40.8814ZM28.3534 24.304L25.5249 27.1324L28.3534 24.304ZM28.3534 19.552L25.5249 16.7236V16.7236L28.3534 19.552ZM43.1374 15.76L40.258 18.5365L40.3085 18.5889L40.3608 18.6394L43.1374 15.76ZM43.1374 20.44L40.3089 17.6116L40.3089 17.6116L43.1374 20.44ZM35.8894 5.152L33.01 7.92854L33.0605 7.98089L33.1128 8.03138L35.8894 5.152ZM36.1534 8.704L39.7704 10.412V10.412L36.1534 8.704ZM35.0254 10.336L32.1072 7.60023L32.0841 7.62488L32.0614 7.64992L35.0254 10.336ZM33.3694 11.752L31.1315 8.4366L31.1119 8.4498L31.0925 8.46323L33.3694 11.752ZM31.3534 12.928L29.5965 9.33446L29.5805 9.34231L29.5645 9.35029L31.3534 12.928ZM29.1694 13.84L30.3855 17.6506L30.4221 17.639L30.4584 17.6266L29.1694 13.84ZM26.9614 14.416L26.1769 10.4937L26.0836 10.5123L25.9912 10.5354L26.9614 14.416ZM26.3854 14.176L30.2659 13.2059L30.2498 13.1412L30.2315 13.0771L26.3854 14.176ZM25.9534 12.664L22.0486 13.5317L22.0745 13.6482L22.1073 13.7629L25.9534 12.664ZM25.9534 12.28L22.2768 10.7043L22.1769 10.9373L22.1073 11.1811L25.9534 12.28ZM26.2654 12.064L27.0498 15.9863L27.101 15.9761L27.1519 15.9645L26.2654 12.064ZM29.1934 11.128L27.6411 7.44146L27.6294 7.4464L27.6177 7.45142L29.1934 11.128ZM31.5454 9.88L29.3266 6.5518L29.308 6.56419L29.2895 6.5768L31.5454 9.88ZM33.1294 8.56L36.119 11.2175L36.143 11.1905L36.1664 11.1632L33.1294 8.56ZM44.8814 4.48C44.8814 4.93658 44.7645 6.0137 43.8298 6.94842C42.8951 7.88314 41.818 8 41.3614 8V-1.43051e-06C40.5848 -1.43051e-06 39.2677 0.196854 38.1729 1.29158C37.0782 2.3863 36.8814 3.70342 36.8814 4.48H44.8814ZM41.3614 8H43.3294V-1.43051e-06H41.3614V8ZM43.3294 8C42.8728 8 41.7957 7.88314 40.8609 6.94842C39.9262 6.0137 39.8094 4.93658 39.8094 4.48H47.8094C47.8094 3.70342 47.6125 2.3863 46.5178 1.29158C45.4231 0.196854 44.106 -1.43051e-06 43.3294 -1.43051e-06V8ZM39.8094 4.48V13.696H47.8094V4.48H39.8094ZM39.8094 13.696C39.8094 13.2394 39.9262 12.1623 40.8609 11.2276C41.7957 10.2929 42.8728 10.176 43.3294 10.176V18.176C44.106 18.176 45.4231 17.9791 46.5178 16.8844C47.6125 15.7897 47.8094 14.4726 47.8094 13.696H39.8094ZM43.3294 10.176H41.3614V18.176H43.3294V10.176ZM41.3614 10.176C41.818 10.176 42.8951 10.2929 43.8298 11.2276C44.7645 12.1623 44.8814 13.2394 44.8814 13.696H36.8814C36.8814 14.4726 37.0782 15.7897 38.1729 16.8844C39.2677 17.9791 40.5848 18.176 41.3614 18.176V10.176ZM44.8814 13.696V12.52H36.8814V13.696H44.8814ZM40.8814 8.52H37.0414V16.52H40.8814V8.52ZM37.0414 8.52C37.498 8.52 38.5751 8.63685 39.5098 9.57157C40.4445 10.5063 40.5614 11.5834 40.5614 12.04H32.5614C32.5614 12.8166 32.7582 14.1337 33.8529 15.2284C34.9477 16.3231 36.2648 16.52 37.0414 16.52V8.52ZM40.5614 12.04V10.696H32.5614V12.04H40.5614ZM40.5614 10.696C40.5614 11.1526 40.4445 12.2297 39.5098 13.1644C38.5751 14.0991 37.498 14.216 37.0414 14.216V6.216C36.2648 6.216 34.9477 6.41285 33.8529 7.50757C32.7582 8.60229 32.5614 9.91942 32.5614 10.696H40.5614ZM37.0414 14.216H40.8814V6.216H37.0414V14.216ZM44.8814 10.216V8.824H36.8814V10.216H44.8814ZM40.8814 4.824H37.6174V12.824H40.8814V4.824ZM37.6174 4.824C38.074 4.824 39.1511 4.94085 40.0858 5.87557C41.0205 6.81029 41.1374 7.88742 41.1374 8.344H33.1374C33.1374 9.12058 33.3342 10.4377 34.429 11.5324C35.5237 12.6271 36.8408 12.824 37.6174 12.824V4.824ZM41.1374 8.344V6.976H33.1374V8.344H41.1374ZM41.1374 6.976C41.1374 7.43258 41.0205 8.50971 40.0858 9.44443C39.1511 10.3791 38.074 10.496 37.6174 10.496V2.496C36.8408 2.496 35.5237 2.69285 34.429 3.78757C33.3342 4.88229 33.1374 6.19942 33.1374 6.976H41.1374ZM37.6174 10.496H40.8814V2.496H37.6174V10.496ZM44.8814 6.496V4.48H36.8814V6.496H44.8814ZM31.1134 17.088C30.3368 17.088 29.0197 17.2849 27.9249 18.3796C26.8302 19.4743 26.6334 20.7914 26.6334 21.568H34.6334C34.6334 22.0246 34.5165 23.1017 33.5818 24.0364C32.6471 24.9711 31.57 25.088 31.1134 25.088V17.088ZM26.6334 21.568V22.192H34.6334V21.568H26.6334ZM26.6334 22.192C26.6334 22.9686 26.8302 24.2857 27.9249 25.3804C29.0197 26.4751 30.3368 26.672 31.1134 26.672V18.672C31.57 18.672 32.6471 18.7889 33.5818 19.7236C34.5165 20.6583 34.6334 21.7354 34.6334 22.192H26.6334ZM31.1134 26.672H43.5934V18.672H31.1134V26.672ZM43.5934 26.672C43.1368 26.672 42.0597 26.5551 41.125 25.6204C40.1902 24.6857 40.0734 23.6086 40.0734 23.152H48.0734C48.0734 22.3754 47.8765 21.0583 46.7818 19.9636C45.6871 18.8689 44.37 18.672 43.5934 18.672V26.672ZM40.0734 23.152V24.496H48.0734V23.152H40.0734ZM40.0734 24.496C40.0734 24.0394 40.1902 22.9623 41.125 22.0276C42.0597 21.0929 43.1368 20.976 43.5934 20.976V28.976C44.37 28.976 45.6871 28.7791 46.7818 27.6844C47.8765 26.5897 48.0734 25.2726 48.0734 24.496H40.0734ZM43.5934 20.976H30.1054V28.976H43.5934V20.976ZM30.1054 20.976C30.162 20.976 30.3311 20.9855 30.5599 21.0733C30.7985 21.1648 31.0145 21.3082 31.1818 21.4756L25.5249 27.1324C26.8276 28.4351 28.482 28.976 30.1054 28.976V20.976ZM31.1818 21.4756C31.3724 21.6662 31.5216 21.9007 31.6127 22.1435C31.6991 22.374 31.7054 22.5365 31.7054 22.576H23.7054C23.7054 24.153 24.21 25.8175 25.5249 27.1324L31.1818 21.4756ZM31.7054 22.576V21.28H23.7054V22.576H31.7054ZM31.7054 21.28C31.7054 21.3195 31.6991 21.482 31.6127 21.7125C31.5216 21.9553 31.3724 22.1898 31.1818 22.3804L25.5249 16.7236C24.21 18.0385 23.7054 19.703 23.7054 21.28H31.7054ZM31.1818 22.3804C31.0145 22.5478 30.7985 22.6912 30.5599 22.7827C30.3311 22.8705 30.162 22.88 30.1054 22.88V14.88C28.482 14.88 26.8276 15.4209 25.5249 16.7236L31.1818 22.3804ZM30.1054 22.88H40.4014V14.88H30.1054V22.88ZM40.4014 22.88C41.178 22.88 42.4951 22.6831 43.5898 21.5884C44.6845 20.4937 44.8814 19.1766 44.8814 18.4H36.8814C36.8814 17.9434 36.9982 16.8663 37.9329 15.9316C38.8677 14.9969 39.9448 14.88 40.4014 14.88V22.88ZM44.8814 18.4V17.8H36.8814V18.4H44.8814ZM44.8814 17.8C44.8814 17.0234 44.6845 15.7063 43.5898 14.6116C42.4951 13.5169 41.178 13.32 40.4014 13.32V21.32C39.9448 21.32 38.8677 21.2031 37.9329 20.2684C36.9982 19.3337 36.8814 18.2566 36.8814 17.8H44.8814ZM40.4014 13.32H28.1854V21.32H40.4014V13.32ZM28.1854 13.32C28.642 13.32 29.7191 13.4369 30.6538 14.3716C31.5885 15.3063 31.7054 16.3834 31.7054 16.84H23.7054C23.7054 17.6166 23.9022 18.9337 24.9969 20.0284C26.0917 21.1231 27.4088 21.32 28.1854 21.32V13.32ZM31.7054 16.84V15.568H23.7054V16.84H31.7054ZM31.7054 15.568C31.7054 16.0246 31.5885 17.1017 30.6538 18.0364C29.7191 18.9711 28.642 19.088 28.1854 19.088V11.088C27.4088 11.088 26.0917 11.2849 24.9969 12.3796C23.9022 13.4743 23.7054 14.7914 23.7054 15.568H31.7054ZM28.1854 19.088H41.4094V11.088H28.1854V19.088ZM41.4094 19.088C41.354 19.088 41.1754 19.0788 40.9316 18.984C40.6759 18.8846 40.4411 18.7264 40.258 18.5365L46.0168 12.9835C44.7111 11.6295 43.0299 11.088 41.4094 11.088V19.088ZM40.3608 18.6394C40.1709 18.4563 40.0128 18.2215 39.9134 17.9658C39.8186 17.722 39.8094 17.5434 39.8094 17.488H47.8094C47.8094 15.8674 47.2679 14.1863 45.9139 12.8806L40.3608 18.6394ZM39.8094 17.488V18.688H47.8094V17.488H39.8094ZM39.8094 18.688C39.8094 18.6313 39.8189 18.4623 39.9067 18.2335C39.9982 17.9949 40.1416 17.7789 40.3089 17.6116L45.9658 23.2684C47.2684 21.9658 47.8094 20.3114 47.8094 18.688H39.8094ZM40.3089 17.6116C40.4996 17.4209 40.7341 17.2717 40.9769 17.1807C41.2074 17.0942 41.3699 17.088 41.4094 17.088V25.088C42.9864 25.088 44.6509 24.5834 45.9658 23.2684L40.3089 17.6116ZM41.4094 17.088H31.1134V25.088H41.4094V17.088ZM34.1614 8.48C34.106 8.48 33.9274 8.47082 33.6836 8.37602C33.4279 8.27658 33.1931 8.11843 33.01 7.92854L38.7688 2.37546C37.4631 1.02146 35.7819 0.48 34.1614 0.48V8.48ZM33.1128 8.03138C32.9229 7.84827 32.7648 7.61348 32.6654 7.35778C32.5706 7.11401 32.5614 6.93541 32.5614 6.88H40.5614C40.5614 5.25944 40.0199 3.57826 38.6659 2.27262L33.1128 8.03138ZM32.5614 6.88C32.5614 6.93225 32.5549 6.95666 32.5364 6.99598L39.7704 10.412C40.2958 9.29933 40.5614 8.10775 40.5614 6.88H32.5614ZM32.5364 6.99597C32.4595 7.1588 32.331 7.3616 32.1072 7.60023L37.9435 13.0718C38.6798 12.2864 39.3033 11.4012 39.7704 10.412L32.5364 6.99597ZM32.0614 7.64992C31.8368 7.89776 31.5358 8.16371 31.1315 8.4366L35.6073 15.0674C36.483 14.4763 37.2859 13.7982 37.9893 13.0221L32.0614 7.64992ZM31.0925 8.46323C30.6429 8.77453 30.1458 9.06593 29.5965 9.33446L33.1102 16.5215C34.0009 16.0861 34.8479 15.5935 35.6462 15.0408L31.0925 8.46323ZM29.5645 9.35029C29.0237 9.6207 28.4628 9.85512 27.8803 10.0534L30.4584 17.6266C31.38 17.3129 32.2751 16.9393 33.1422 16.5057L29.5645 9.35029ZM27.9532 10.0294C27.3325 10.2275 26.7407 10.3809 26.1769 10.4937L27.7458 18.3383C28.6221 18.1631 29.5023 17.9325 30.3855 17.6506L27.9532 10.0294ZM25.9912 10.5354C26.452 10.4202 27.0519 10.3846 27.7003 10.5699L25.5025 18.2621C26.3749 18.5114 27.2148 18.4758 27.9315 18.2966L25.9912 10.5354ZM27.7003 10.5699C28.3047 10.7426 28.9288 11.0919 29.4366 11.6561C29.926 12.1999 30.1588 12.7771 30.2659 13.2059L22.5048 15.1461C22.8282 16.4397 23.8099 17.7785 25.5025 18.2621L27.7003 10.5699ZM30.2315 13.0771L29.7995 11.5651L22.1073 13.7629L22.5393 15.2749L30.2315 13.0771ZM29.8581 11.7963C29.9329 12.1329 29.9929 12.702 29.7995 13.3789L22.1073 11.1811C21.8499 12.082 21.9098 12.9071 22.0486 13.5317L29.8581 11.7963ZM29.63 13.8557C29.3461 14.5181 28.8858 15.0558 28.3442 15.4308C27.8373 15.7817 27.3566 15.925 27.0498 15.9863L25.4809 8.14168C24.5111 8.33564 23.0111 8.99098 22.2768 10.7043L29.63 13.8557ZM27.1519 15.9645C28.4183 15.6767 29.6277 15.2937 30.7691 14.8046L27.6177 7.45142C26.9671 7.73025 26.2245 7.97129 25.3789 8.16347L27.1519 15.9645ZM30.7456 14.8145C31.847 14.3508 32.878 13.8137 33.8012 13.1832L29.2895 6.5768C28.9007 6.84232 28.3637 7.13721 27.6411 7.44146L30.7456 14.8145ZM33.7642 13.2082C34.6174 12.6394 35.4379 11.9837 36.119 11.2175L30.1397 5.90254C30.0529 6.00027 29.8174 6.22459 29.3266 6.5518L33.7642 13.2082ZM36.1664 11.1632C36.8191 10.4017 37.7054 9.08843 37.7054 7.336H29.7054C29.7054 6.81377 29.8427 6.42604 29.9421 6.21481C30.0376 6.01195 30.1183 5.92658 30.0923 5.95683L36.1664 11.1632ZM37.7054 7.336C37.7054 6.55942 37.5085 5.2423 36.4138 4.14758C35.3191 3.05285 34.002 2.856 33.2254 2.856V10.856C32.7688 10.856 31.6917 10.7391 30.7569 9.80442C29.8222 8.8697 29.7054 7.79258 29.7054 7.336H37.7054ZM33.2254 2.856H26.8414V10.856H33.2254V2.856ZM26.8414 2.856C27.298 2.856 28.3751 2.97285 29.3098 3.90757C30.2445 4.84229 30.3614 5.91942 30.3614 6.376H22.3614C22.3614 7.15258 22.5582 8.46971 23.6529 9.56443C24.7477 10.6591 26.0648 10.856 26.8414 10.856V2.856ZM30.3614 6.376V4.96H22.3614V6.376H30.3614ZM30.3614 4.96C30.3614 5.41658 30.2445 6.49371 29.3098 7.42843C28.3751 8.36315 27.298 8.48 26.8414 8.48V0.48C26.0648 0.48 24.7477 0.676853 23.6529 1.77157C22.5582 2.86629 22.3614 4.18342 22.3614 4.96H30.3614ZM26.8414 8.48H34.1614V0.48H26.8414V8.48ZM64.8908 8.368H60.8908V12.368H64.8908V8.368ZM64.8908 10.96V6.96H60.8908V10.96H64.8908ZM50.8507 23.872L48.8279 27.3228L48.8365 27.3278L48.8451 27.3328L50.8507 23.872ZM50.8507 16.984L48.8451 13.5232L48.8365 13.5282L48.8279 13.5332L50.8507 16.984ZM63.3548 16.984L61.3319 20.4348L61.3405 20.4398L61.3491 20.4448L63.3548 16.984ZM63.3548 23.872L61.3491 20.4112L61.3405 20.4162L61.3319 20.4212L63.3548 23.872ZM61.2428 22.12L59.6121 18.4674L59.5725 18.4852L59.5332 18.5037L61.2428 22.12ZM61.2428 18.736L59.5332 22.3523L59.5725 22.3708L59.6121 22.3886L61.2428 18.736ZM52.9627 18.736L54.618 22.3775L54.6326 22.3708L54.6472 22.364L52.9627 18.736ZM52.9627 22.12L54.6472 18.492L54.6326 18.4852L54.618 18.4785L52.9627 22.12ZM47.9948 13.888L50.3197 10.6331L50.2193 10.5614L50.1147 10.496L47.9948 13.888ZM47.7547 13.576L43.85 14.4437L43.8614 14.4951L43.8742 14.5461L47.7547 13.576ZM47.8988 13.168L50.7272 15.9964L50.8257 15.8979L50.9172 15.7927L47.8988 13.168ZM48.8587 11.896L45.5471 9.65261L45.5388 9.66487L45.5305 9.6772L48.8587 11.896ZM49.8187 10.312L46.3033 8.40363V8.40363L49.8187 10.312ZM50.6587 8.608L47.024 6.938L47.0136 6.96066L47.0035 6.98345L50.6587 8.608ZM51.3548 6.88L55.1385 8.1773L56.9548 2.88H51.3548V6.88ZM54.2827 6.88V2.88H51.2655L50.4367 5.78111L54.2827 6.88ZM53.9468 7.936L57.7059 9.30297L57.7155 9.27659L57.7247 9.25008L53.9468 7.936ZM53.5148 9.016L49.8465 7.4211L45.6351 17.1073L55.2063 12.6407L53.5148 9.016ZM54.2588 8.752L53.3426 4.85833L53.3156 4.86469L53.2886 4.87143L54.2588 8.752ZM56.5628 8.92L55.1441 12.66L55.1649 12.6679L55.1857 12.6755L56.5628 8.92ZM57.9067 9.784L55.1343 12.6673L55.1615 12.6934L55.1891 12.719L57.9067 9.784ZM59.0588 11.368L55.4986 13.1915L55.516 13.2256L55.5341 13.2593L59.0588 11.368ZM59.9468 13.792L56.0662 14.7621L56.0823 14.8268L56.1007 14.8909L59.9468 13.792ZM59.8988 14.104L56.5705 11.8852L56.4324 12.0924L56.321 12.3151L59.8988 14.104ZM59.6108 14.296L58.743 10.3913L58.6084 10.4212L58.4762 10.4603L59.6108 14.296ZM57.9067 14.8L59.0354 18.6375L59.0413 18.6357L57.9067 14.8ZM57.3787 14.464L53.5083 15.4737L53.5105 15.482L57.3787 14.464ZM56.7308 12.664L53.106 14.3555L53.1405 14.4293L53.1779 14.5017L56.7308 12.664ZM55.1948 10.984L53.6717 14.6827L53.7991 14.7352L53.9298 14.7787L55.1948 10.984ZM53.1068 11.152L51.1523 7.66197L51.1216 7.67916L51.0913 7.69688L53.1068 11.152ZM51.9067 12.136L49.0255 9.36143L48.704 9.6953L48.4673 10.0938L51.9067 12.136ZM50.9948 13.576L54.3047 15.822V15.822L50.9948 13.576ZM50.1068 14.8L53.2112 17.3224L53.2342 17.294L53.2568 17.2652L50.1068 14.8ZM49.3387 14.848L51.7115 11.6278L51.6878 11.6102L51.6637 11.5931L49.3387 14.848ZM65.9627 4.48C65.9627 4.93658 65.8459 6.01371 64.9112 6.94843C63.9765 7.88314 62.8993 8 62.4428 8V-1.43051e-06C61.6662 -1.43051e-06 60.349 0.196853 59.2543 1.29157C58.1596 2.38629 57.9627 3.70342 57.9627 4.48H65.9627ZM62.4428 8H64.4108V-1.43051e-06H62.4428V8ZM64.4108 8C63.9542 8 62.877 7.88314 61.9423 6.94843C61.0076 6.01371 60.8908 4.93658 60.8908 4.48H68.8908C68.8908 3.70342 68.6939 2.38629 67.5992 1.29157C66.5045 0.196853 65.1873 -1.43051e-06 64.4108 -1.43051e-06V8ZM60.8908 4.48V8.368H68.8908V4.48H60.8908ZM64.8908 12.368H66.9788V4.368H64.8908V12.368ZM66.9788 12.368C66.5222 12.368 65.445 12.2511 64.5103 11.3164C63.5756 10.3817 63.4588 9.30458 63.4588 8.848H71.4587C71.4587 8.07142 71.2619 6.75429 70.1672 5.65957C69.0725 4.56485 67.7553 4.368 66.9788 4.368V12.368ZM63.4588 8.848V10.48H71.4587V8.848H63.4588ZM63.4588 10.48C63.4588 10.0234 63.5756 8.94629 64.5103 8.01157C65.445 7.07685 66.5222 6.96 66.9788 6.96V14.96C67.7553 14.96 69.0725 14.7631 70.1672 13.6684C71.2619 12.5737 71.4587 11.2566 71.4587 10.48H63.4588ZM66.9788 6.96H64.8908V14.96H66.9788V6.96ZM60.8908 10.96V15.064H68.8908V10.96H60.8908ZM60.8908 15.064C60.8908 14.6074 61.0076 13.5303 61.9423 12.5956C62.877 11.6609 63.9542 11.544 64.4108 11.544V19.544C65.1873 19.544 66.5045 19.3471 67.5992 18.2524C68.6939 17.1577 68.8908 15.8406 68.8908 15.064H60.8908ZM64.4108 11.544H62.4428V19.544H64.4108V11.544ZM62.4428 11.544C62.8993 11.544 63.9765 11.6609 64.9112 12.5956C65.8459 13.5303 65.9627 14.6074 65.9627 15.064H57.9627C57.9627 15.8406 58.1596 17.1577 59.2543 18.2524C60.349 19.3471 61.6662 19.544 62.4428 19.544V11.544ZM65.9627 15.064V4.48H57.9627V15.064H65.9627ZM57.1147 21.096C54.617 21.096 53.3656 20.7063 52.8564 20.4112L48.8451 27.3328C51.1519 28.6697 54.0765 29.096 57.1147 29.096V21.096ZM52.8736 20.4212C52.7511 20.3494 52.6929 20.299 52.6749 20.2821C52.659 20.2672 52.6758 20.2798 52.702 20.323C52.7144 20.3433 52.7263 20.3662 52.7367 20.3906C52.747 20.415 52.7542 20.4368 52.7588 20.4541C52.7685 20.4905 52.7627 20.4909 52.7627 20.44H44.7627C44.7627 23.4894 46.3537 25.8724 48.8279 27.3228L52.8736 20.4212ZM52.7627 20.44C52.7627 20.3815 52.7693 20.3755 52.7611 20.4067C52.7572 20.4215 52.7509 20.4412 52.7412 20.464C52.7316 20.4868 52.7203 20.5087 52.7084 20.5285C52.683 20.5705 52.6663 20.5835 52.6808 20.5698C52.6975 20.5541 52.7537 20.5051 52.8736 20.4348L48.8279 13.5332C46.3366 14.9936 44.7627 17.3928 44.7627 20.44H52.7627ZM52.8564 20.4448C53.3656 20.1497 54.617 19.76 57.1147 19.76V11.76C54.0765 11.76 51.1519 12.1863 48.8451 13.5232L52.8564 20.4448ZM57.1147 19.76C59.6178 19.76 60.8488 20.1516 61.3319 20.4348L65.3776 13.5332C63.0767 12.1844 60.1477 11.76 57.1147 11.76V19.76ZM61.3491 20.4448C61.4737 20.5171 61.5332 20.5681 61.5518 20.5854C61.5683 20.6008 61.5517 20.5885 61.5256 20.5458C61.5133 20.5257 61.5016 20.5031 61.4913 20.4791C61.4811 20.4552 61.4742 20.4341 61.4698 20.4177C61.4606 20.383 61.4668 20.3852 61.4668 20.44H69.4668C69.4668 17.3702 67.8625 14.9733 65.3604 13.5232L61.3491 20.4448ZM61.4668 20.44C61.4668 20.4872 61.4614 20.4829 61.4722 20.443C61.4773 20.4241 61.485 20.4009 61.496 20.3754C61.507 20.3499 61.5194 20.3263 61.5321 20.3056C61.559 20.2619 61.5756 20.25 61.5578 20.2665C61.5378 20.2851 61.4763 20.3375 61.3491 20.4112L65.3604 27.3328C67.8452 25.8928 69.4668 23.512 69.4668 20.44H61.4668ZM61.3319 20.4212C60.8488 20.7044 59.6178 21.096 57.1147 21.096V29.096C60.1477 29.096 63.0767 28.6716 65.3776 27.3228L61.3319 20.4212ZM57.1147 26.744C59.1305 26.744 61.2435 26.5441 62.9523 25.7363L59.5332 18.5037C59.5606 18.4908 59.4064 18.5644 58.9529 18.6329C58.517 18.6988 57.9141 18.744 57.1147 18.744V26.744ZM62.8734 25.7726C64.5912 25.0057 66.5868 23.3202 66.5868 20.44H58.5868C58.5868 19.8956 58.7814 19.3335 59.1273 18.9012C59.421 18.534 59.6813 18.4366 59.6121 18.4674L62.8734 25.7726ZM66.5868 20.44C66.5868 17.581 64.637 15.8708 62.8734 15.0834L59.6121 22.3886C59.67 22.4144 59.404 22.3118 59.1101 21.9391C58.7671 21.5042 58.5868 20.9538 58.5868 20.44H66.5868ZM62.9523 15.1197C61.2435 14.3119 59.1305 14.112 57.1147 14.112V22.112C57.9141 22.112 58.517 22.1572 58.9529 22.2231C59.4064 22.2916 59.5606 22.3652 59.5332 22.3523L62.9523 15.1197ZM57.1147 14.112C55.0903 14.112 52.9874 14.3145 51.2783 15.108L54.6472 22.364C54.6387 22.368 54.8089 22.2925 55.2672 22.2236C55.7095 22.1571 56.3159 22.112 57.1147 22.112V14.112ZM51.3075 15.0945C49.5353 15.9001 47.6427 17.6215 47.6427 20.44H55.6427C55.6427 20.9355 55.4722 21.4763 55.1349 21.9116C54.8434 22.2879 54.5742 22.3974 54.618 22.3775L51.3075 15.0945ZM47.6427 20.44C47.6427 23.2799 49.5804 24.9764 51.3075 25.7615L54.618 18.4785C54.5627 18.4534 54.8265 18.5577 55.118 18.9287C55.4583 19.3618 55.6427 19.9144 55.6427 20.44H47.6427ZM51.2783 25.748C52.9874 26.5415 55.0903 26.744 57.1147 26.744V18.744C56.3159 18.744 55.7095 18.6989 55.2672 18.6324C54.8089 18.5635 54.6387 18.488 54.6472 18.492L51.2783 25.748ZM50.1147 10.496C50.7284 10.8795 51.3796 11.5829 51.6353 12.6059L43.8742 14.5461C44.1939 15.8251 45.0051 16.7365 45.8748 17.28L50.1147 10.496ZM51.6595 12.7083C51.802 13.3497 51.7699 14.0423 51.5387 14.6973C51.3199 15.3173 50.9807 15.7429 50.7272 15.9964L45.0703 10.3396C44.228 11.1819 43.4513 12.6496 43.85 14.4437L51.6595 12.7083ZM50.9172 15.7927C51.367 15.2754 51.789 14.7117 52.187 14.1148L45.5305 9.6772C45.2885 10.0403 45.0705 10.3246 44.8803 10.5433L50.9172 15.7927ZM52.1704 14.1394C52.5842 13.5285 52.9717 12.8881 53.3342 12.2204L46.3033 8.40363C46.0578 8.8559 45.8053 9.27147 45.5471 9.65261L52.1704 14.1394ZM53.3342 12.2204C53.688 11.5687 54.0147 10.906 54.314 10.2326L47.0035 6.98345C46.7908 7.46199 46.5575 7.93535 46.3033 8.40363L53.3342 12.2204ZM54.2935 10.278C54.6159 9.57628 54.899 8.8758 55.1385 8.1773L47.571 5.5827C47.4265 6.0042 47.2456 6.45572 47.024 6.938L54.2935 10.278ZM51.3548 2.88H48.3787V10.88H51.3548V2.88ZM48.3787 2.88C48.8353 2.88 49.9125 2.99685 50.8472 3.93157C51.7819 4.86629 51.8988 5.94342 51.8988 6.4H43.8988C43.8988 7.17658 44.0956 8.49371 45.1903 9.58843C46.285 10.6831 47.6022 10.88 48.3787 10.88V2.88ZM51.8988 6.4V4.984H43.8988V6.4H51.8988ZM51.8988 4.984C51.8988 5.44058 51.7819 6.51771 50.8472 7.45243C49.9125 8.38715 48.8353 8.504 48.3787 8.504V0.503999C47.6022 0.503999 46.285 0.700852 45.1903 1.79557C44.0956 2.89029 43.8988 4.20742 43.8988 4.984H51.8988ZM48.3787 8.504H59.3228V0.503999H48.3787V8.504ZM59.3228 8.504C58.8662 8.504 57.789 8.38715 56.8543 7.45243C55.9196 6.51771 55.8027 5.44058 55.8027 4.984H63.8027C63.8027 4.20742 63.6059 2.89029 62.5112 1.79557C61.4165 0.700851 60.0993 0.503999 59.3228 0.503999V8.504ZM55.8027 4.984V6.4H63.8027V4.984H55.8027ZM55.8027 6.4C55.8027 5.94342 55.9196 4.86629 56.8543 3.93157C57.789 2.99685 58.8662 2.88 59.3228 2.88V10.88C60.0993 10.88 61.4165 10.6831 62.5112 9.58843C63.6059 8.49371 63.8027 7.17658 63.8027 6.4H55.8027ZM59.3228 2.88H54.2827V10.88H59.3228V2.88ZM50.4367 5.78111C50.3635 6.0371 50.2748 6.31705 50.1688 6.62192L57.7247 9.25008C57.8747 8.81895 58.01 8.3949 58.1288 7.97888L50.4367 5.78111ZM50.1876 6.56903C50.0894 6.83893 49.9761 7.12286 49.8465 7.4211L57.183 10.6109C57.3734 10.1731 57.5481 9.73707 57.7059 9.30297L50.1876 6.56903ZM55.2063 12.6407C55.2154 12.6365 55.2219 12.6343 55.2289 12.6326L53.2886 4.87143C52.7836 4.99768 52.2941 5.17152 51.8232 5.39127L55.2063 12.6407ZM55.1749 12.6457C55.1376 12.6545 55.1097 12.656 55.0988 12.656V4.656C54.5118 4.656 53.924 4.72154 53.3426 4.85833L55.1749 12.6457ZM55.0988 12.656C55.1244 12.656 55.1366 12.6581 55.1389 12.6585C55.1409 12.6589 55.1417 12.6591 55.1441 12.66L57.9814 5.18001C57.0498 4.82664 56.0798 4.656 55.0988 4.656V12.656ZM55.1857 12.6755C55.1632 12.6672 55.1438 12.6586 55.1279 12.6507C55.1121 12.6428 55.1013 12.6363 55.0957 12.6327C55.0842 12.6253 55.0979 12.6324 55.1343 12.6673L60.6792 6.90067C59.915 6.16587 59.0034 5.5545 57.9398 5.16449L55.1857 12.6755ZM55.1891 12.719C55.203 12.7319 55.3245 12.8517 55.4986 13.1915L62.6189 9.54449C62.121 8.57229 61.4744 7.63606 60.6244 6.84896L55.1891 12.719ZM55.5341 13.2593C55.6884 13.5467 55.8818 14.0246 56.0662 14.7621L63.8273 12.8219C63.5317 11.6394 63.1331 10.5013 62.5834 9.47673L55.5341 13.2593ZM56.1007 14.8909C55.9753 14.4521 55.9166 13.9223 56.0053 13.3458C56.0941 12.7681 56.3108 12.2748 56.5705 11.8852L63.227 16.3228C63.949 15.2397 64.1437 13.921 63.7929 12.6931L56.1007 14.8909ZM56.321 12.3151C56.9938 10.9696 58.1767 10.5171 58.743 10.3913L60.4785 18.2007C61.3328 18.0109 62.7077 17.4304 63.4765 15.8929L56.321 12.3151ZM58.4762 10.4603L56.7722 10.9643L59.0413 18.6357L60.7453 18.1317L58.4762 10.4603ZM56.7781 10.9625C57.3327 10.7994 58.5172 10.637 59.7183 11.4014C60.8232 12.1045 61.1574 13.1053 61.247 13.446L53.5105 15.482C53.6801 16.1267 54.1423 17.3355 55.4232 18.1506C56.8003 19.027 58.2088 18.8806 59.0354 18.6375L56.7781 10.9625ZM61.2492 13.4543C61.013 12.5489 60.7062 11.6432 60.2836 10.8263L53.1779 14.5017C53.2353 14.6128 53.3605 14.9071 53.5083 15.4737L61.2492 13.4543ZM60.3555 10.9725C60.0204 10.2545 59.5651 9.47616 58.9235 8.79454L53.0979 14.2775C53.0609 14.238 53.0365 14.2078 53.0234 14.1908C53.0103 14.1737 53.0066 14.1672 53.0111 14.1741C53.0155 14.181 53.0265 14.1989 53.0432 14.2297C53.0598 14.2604 53.081 14.3019 53.106 14.3555L60.3555 10.9725ZM58.9235 8.79454C58.3171 8.15017 57.5045 7.53754 56.4597 7.18927L53.9298 14.7787C53.461 14.6225 53.1924 14.3778 53.0979 14.2775L58.9235 8.79454ZM56.7178 7.28529C55.9732 6.97871 55.1765 6.816 54.3548 6.816V14.816C54.109 14.816 53.8723 14.7653 53.6717 14.6827L56.7178 7.28529ZM54.3548 6.816C53.1963 6.816 52.1116 7.12477 51.1523 7.66197L55.0612 14.642C54.9913 14.6812 54.8894 14.7272 54.7586 14.7625C54.6266 14.798 54.4889 14.816 54.3548 14.816V6.816ZM51.0913 7.69688C50.2998 8.15859 49.6145 8.74978 49.0255 9.36143L54.788 14.9106C54.9041 14.7901 54.9935 14.7096 55.0551 14.6591C55.1171 14.6082 55.1399 14.5968 55.1222 14.6071L51.0913 7.69688ZM48.4673 10.0938C48.2004 10.5434 47.9394 10.9548 47.6848 11.33L54.3047 15.822C54.6581 15.3012 55.0051 14.7526 55.3462 14.1782L48.4673 10.0938ZM47.6848 11.33C47.4239 11.7145 47.1811 12.0481 46.9567 12.3348L53.2568 17.2652C53.6084 16.8159 53.9576 16.3335 54.3047 15.822L47.6848 11.33ZM47.0023 12.2776C47.3893 11.8013 48.2238 11.0921 49.5092 11.0118C50.6738 10.939 51.4539 11.4379 51.7115 11.6278L46.966 18.0682C47.5276 18.4821 48.5877 19.085 50.0083 18.9962C51.5497 18.8999 52.6162 18.0547 53.2112 17.3224L47.0023 12.2776ZM51.6637 11.5931L50.3197 10.6331L45.6698 17.1429L47.0138 18.1029L51.6637 11.5931Z" fill="#404040" mask="url(#path-1-outside-1_3481_2320)"/>
</svg>
