<svg width="23" height="28" viewBox="0 0 23 28" fill="none" xmlns="http://www.w3.org/2000/svg">
<mask id="path-1-outside-1_3478_1023" maskUnits="userSpaceOnUse" x="-1.93487" y="-1.9215" width="26.1945" height="29.8565" fill="black">
<rect fill="white" x="-1.93487" y="-1.9215" width="26.1945" height="29.8565"/>
<path d="M6.99304 16.3191C7.0515 15.6015 7.22975 14.9899 7.52778 14.4845C7.84306 13.9643 8.19774 13.5518 8.59181 13.2468C8.98588 12.9418 9.4862 12.6133 10.0928 12.2614C10.6994 11.9095 11.1499 11.6011 11.4444 11.3361C11.7389 11.0712 11.9024 10.7393 11.9348 10.3407C11.9868 9.70277 11.5344 9.34484 10.5776 9.26689C9.82804 9.20582 8.97912 9.28113 8.0308 9.49282C7.08247 9.70451 6.21064 9.96256 5.41529 10.267L4.54508 5.28386C5.63787 4.87525 6.8929 4.54407 8.31019 4.29033C9.72748 4.03658 11.1218 3.96558 12.4933 4.07732C13.8488 4.18776 15.012 4.49122 15.9829 4.9877C16.971 5.46953 17.7057 6.10729 18.1868 6.90099C18.6679 7.69468 18.8682 8.58589 18.7877 9.57461C18.7175 10.4358 18.5149 11.1497 18.1798 11.7163C17.8606 12.2843 17.4861 12.7434 17.0562 13.0936C16.6276 13.4279 16.0682 13.7917 15.378 14.185C14.8046 14.5235 14.3388 14.8227 13.9805 15.0824C13.6382 15.3435 13.3385 15.6722 13.0815 16.0687C12.8404 16.4664 12.6964 16.9523 12.6497 17.5264L12.6204 17.8852L6.90338 17.4194L6.99304 16.3191ZM6.47657 22.6581L6.79619 18.7351L12.4893 19.1989L12.1697 23.1219L6.47657 22.6581Z"/>
</mask>
<path d="M6.99304 16.3191C7.0515 15.6015 7.22975 14.9899 7.52778 14.4845C7.84306 13.9643 8.19774 13.5518 8.59181 13.2468C8.98588 12.9418 9.4862 12.6133 10.0928 12.2614C10.6994 11.9095 11.1499 11.6011 11.4444 11.3361C11.7389 11.0712 11.9024 10.7393 11.9348 10.3407C11.9868 9.70277 11.5344 9.34484 10.5776 9.26689C9.82804 9.20582 8.97912 9.28113 8.0308 9.49282C7.08247 9.70451 6.21064 9.96256 5.41529 10.267L4.54508 5.28386C5.63787 4.87525 6.8929 4.54407 8.31019 4.29033C9.72748 4.03658 11.1218 3.96558 12.4933 4.07732C13.8488 4.18776 15.012 4.49122 15.9829 4.9877C16.971 5.46953 17.7057 6.10729 18.1868 6.90099C18.6679 7.69468 18.8682 8.58589 18.7877 9.57461C18.7175 10.4358 18.5149 11.1497 18.1798 11.7163C17.8606 12.2843 17.4861 12.7434 17.0562 13.0936C16.6276 13.4279 16.0682 13.7917 15.378 14.185C14.8046 14.5235 14.3388 14.8227 13.9805 15.0824C13.6382 15.3435 13.3385 15.6722 13.0815 16.0687C12.8404 16.4664 12.6964 16.9523 12.6497 17.5264L12.6204 17.8852L6.90338 17.4194L6.99304 16.3191ZM6.47657 22.6581L6.79619 18.7351L12.4893 19.1989L12.1697 23.1219L6.47657 22.6581Z" fill="white"/>
<path d="M7.52778 14.4845L4.10716 12.411L4.09451 12.4318L4.08213 12.4528L7.52778 14.4845ZM8.59181 13.2468L6.14351 10.0836L6.14351 10.0836L8.59181 13.2468ZM10.0928 12.2614L8.08553 8.8015L8.08553 8.8015L10.0928 12.2614ZM11.4444 11.3361L8.76897 8.36253L8.76896 8.36254L11.4444 11.3361ZM8.0308 9.49282L8.90225 13.3967L8.0308 9.49282ZM5.41529 10.267L1.47492 10.9551L2.31025 15.7384L6.84513 14.0027L5.41529 10.267ZM4.54508 5.28386L3.14415 1.53721L0.0333779 2.70037L0.604708 5.97198L4.54508 5.28386ZM8.31019 4.29033L9.01513 8.22772L9.01513 8.22772L8.31019 4.29033ZM15.9829 4.9877L14.1617 8.54907L14.1956 8.56637L14.2297 8.58304L15.9829 4.9877ZM18.1868 6.90099L14.7662 8.97454L14.7662 8.97454L18.1868 6.90099ZM18.1798 11.7163L14.7368 9.68015L14.7143 9.71817L14.6927 9.75667L18.1798 11.7163ZM17.0562 13.0936L19.5164 16.2476L19.5499 16.2214L19.5828 16.1946L17.0562 13.0936ZM15.378 14.185L13.3979 10.7095L13.371 10.7248L13.3443 10.7406L15.378 14.185ZM13.9805 15.0824L11.6326 11.844L11.5934 11.8724L11.555 11.9018L13.9805 15.0824ZM13.0815 16.0687L9.72522 13.8926L9.69226 13.9434L9.66085 13.9952L13.0815 16.0687ZM12.6204 17.8852L12.2956 21.872L16.2824 22.1969L16.6072 18.2101L12.6204 17.8852ZM6.90338 17.4194L2.9166 17.0946L2.59177 21.0814L6.57856 21.4062L6.90338 17.4194ZM6.47657 22.6581L2.48978 22.3333L2.16495 26.3201L6.15174 26.6449L6.47657 22.6581ZM6.79619 18.7351L7.12102 14.7483L3.13423 14.4235L2.8094 18.4103L6.79619 18.7351ZM12.4893 19.1989L16.4761 19.5238L16.8009 15.537L12.8142 15.2121L12.4893 19.1989ZM12.1697 23.1219L11.8449 27.1087L15.8317 27.4335L16.1565 23.4468L12.1697 23.1219ZM10.9798 16.6439C10.9899 16.52 11.0062 16.4571 11.0108 16.4415C11.0147 16.428 11.0071 16.459 10.9734 16.5161L4.08213 12.4528C3.41534 13.5837 3.10287 14.8083 3.00625 15.9943L10.9798 16.6439ZM10.9484 16.5579C11.0636 16.3679 11.1094 16.3563 11.0401 16.41L6.14351 10.0836C5.28604 10.7472 4.62251 11.5608 4.10716 12.411L10.9484 16.5579ZM11.0401 16.41C11.2503 16.2473 11.5904 16.017 12.1 15.7213L8.08553 8.8015C7.38201 9.20965 6.72145 9.63626 6.14351 10.0836L11.0401 16.41ZM12.1 15.7213C12.793 15.3193 13.5209 14.8485 14.1198 14.3097L8.76896 8.36254C8.79151 8.34225 8.7558 8.37667 8.62602 8.46552C8.50205 8.55038 8.32554 8.66226 8.08553 8.8015L12.1 15.7213ZM14.1198 14.3097C15.1817 13.3542 15.8071 12.0711 15.9216 10.6655L7.94805 10.0158C7.96935 9.75443 8.04144 9.44195 8.19973 9.12067C8.35835 8.79873 8.56515 8.54592 8.76897 8.36253L14.1198 14.3097ZM15.9216 10.6655C16.0422 9.18516 15.5195 7.56694 14.1162 6.45677C12.9827 5.56003 11.6979 5.34491 10.9024 5.2801L10.2527 13.2537C10.4141 13.2668 9.83384 13.2696 9.15276 12.7308C8.76221 12.4219 8.39715 11.9767 8.16809 11.4071C7.94593 10.8547 7.92025 10.3571 7.94805 10.0158L15.9216 10.6655ZM10.9024 5.2801C9.65496 5.17846 8.39182 5.31378 7.15934 5.5889L8.90225 13.3967C9.56642 13.2485 10.0011 13.2332 10.2527 13.2537L10.9024 5.2801ZM7.15934 5.5889C6.04699 5.83721 4.98583 6.14838 3.98545 6.53127L6.84513 14.0027C7.43545 13.7768 8.11796 13.5718 8.90225 13.3967L7.15934 5.5889ZM9.35566 9.57887L8.48544 4.59574L0.604708 5.97198L1.47492 10.9551L9.35566 9.57887ZM5.946 9.03051C6.7679 8.72319 7.78246 8.44841 9.01513 8.22772L7.60525 0.352934C6.00335 0.639733 4.50783 1.02731 3.14415 1.53721L5.946 9.03051ZM9.01513 8.22772C10.1085 8.03197 11.1566 7.98166 12.1685 8.06411L12.8181 0.0905264C11.0871 -0.0505075 9.34646 0.0411946 7.60525 0.352934L9.01513 8.22772ZM12.1685 8.06411C13.1268 8.14218 13.7567 8.34195 14.1617 8.54907L17.8041 1.42633C16.2673 0.640485 14.5708 0.233327 12.8181 0.0905264L12.1685 8.06411ZM14.2297 8.58304C14.6568 8.79128 14.7518 8.95075 14.7662 8.97454L21.6074 4.82743C20.6595 3.26385 19.2853 2.14778 17.7361 1.39236L14.2297 8.58304ZM14.7662 8.97454C14.7802 8.99752 14.8181 9.03902 14.8009 9.24979L22.7745 9.89943C22.9184 8.13275 22.5557 6.39184 21.6074 4.82743L14.7662 8.97454ZM14.8009 9.24979C14.7652 9.68776 14.6825 9.77198 14.7368 9.68015L21.6227 13.7525C22.3473 12.5273 22.6698 11.1838 22.7745 9.89943L14.8009 9.24979ZM14.6927 9.75667C14.577 9.96248 14.5089 10.0095 14.5295 9.99266L19.5828 16.1946C20.4632 15.4773 21.1441 14.6061 21.6668 13.676L14.6927 9.75667ZM14.596 9.9397C14.3713 10.1149 13.9895 10.3724 13.3979 10.7095L17.3582 17.6604C18.147 17.211 18.8839 16.7409 19.5164 16.2476L14.596 9.9397ZM13.3443 10.7406C12.7109 11.1145 12.1291 11.484 11.6326 11.844L16.3285 18.3208C16.5485 18.1613 16.8984 17.9325 17.4118 17.6294L13.3443 10.7406ZM11.555 11.9018C10.813 12.4676 10.2081 13.1478 9.72522 13.8926L16.4377 18.2448C16.4546 18.2188 16.4614 18.2126 16.4551 18.2195C16.4484 18.2268 16.4323 18.2431 16.4061 18.2631L11.555 11.9018ZM9.66085 13.9952C9.03025 15.0355 8.7483 16.1532 8.66289 17.2016L16.6365 17.8513C16.6446 17.7515 16.6505 17.8973 16.5021 18.1422L9.66085 13.9952ZM8.66289 17.2016L8.63365 17.5604L16.6072 18.2101L16.6365 17.8513L8.66289 17.2016ZM12.9453 13.8985L7.22821 13.4327L6.57856 21.4062L12.2956 21.872L12.9453 13.8985ZM10.8902 17.7443L10.9798 16.6439L3.00625 15.9943L2.9166 17.0946L10.8902 17.7443ZM10.4634 22.9829L10.783 19.0599L2.8094 18.4103L2.48978 22.3333L10.4634 22.9829ZM6.47137 22.7219L12.1645 23.1857L12.8142 15.2121L7.12102 14.7483L6.47137 22.7219ZM8.50254 18.8741L8.18291 22.7971L16.1565 23.4468L16.4761 19.5238L8.50254 18.8741ZM12.4945 19.1351L6.80139 18.6713L6.15174 26.6449L11.8449 27.1087L12.4945 19.1351Z" fill="#FFB151" mask="url(#path-1-outside-1_3478_1023)"/>
</svg>
