<svg width="21" height="29" viewBox="0 0 21 29" fill="none" xmlns="http://www.w3.org/2000/svg">
<mask id="path-1-outside-1_3475_692" maskUnits="userSpaceOnUse" x="-0.422865" y="-0.107099" width="21.2026" height="29.1464" fill="black">
<rect fill="white" x="-0.422865" y="-0.107099" width="21.2026" height="29.1464"/>
<path d="M12.7076 17.1239C12.7054 17.4359 12.6917 17.6838 12.6664 17.8676C12.6491 18.0515 12.6081 18.1912 12.5434 18.2868C12.4868 18.3744 12.3984 18.4298 12.2783 18.4529C12.1661 18.4761 12.014 18.4871 11.822 18.4857L9.0141 18.466C8.8381 18.4648 8.70252 18.4039 8.60737 18.2832C8.51221 18.1625 8.46516 18.0262 8.46623 17.8742C8.4692 17.4502 8.47564 17.1022 8.48554 16.8303C8.50345 16.5584 8.52502 16.3346 8.55025 16.1587C8.57548 15.9829 8.60849 15.8391 8.64927 15.7274C8.69006 15.6157 8.74281 15.5081 8.80754 15.4045C9.03405 15.0461 9.28823 14.7359 9.57008 14.4738C9.85192 14.2118 10.1376 13.9738 10.4271 13.7598C10.7166 13.5459 10.998 13.3438 11.2714 13.1537C11.5447 12.9636 11.7901 12.7614 12.0076 12.5469C12.2252 12.3244 12.3989 12.0776 12.5288 11.8065C12.6588 11.5274 12.7251 11.1999 12.7277 10.8239C12.7295 10.5679 12.6753 10.3195 12.5649 10.0787C12.4546 9.83793 12.3041 9.62488 12.1134 9.43953C11.9307 9.25425 11.7117 9.10871 11.4565 9.00292C11.2092 8.88919 10.9496 8.83137 10.6776 8.82946C10.4057 8.82756 10.1453 8.88173 9.89649 8.99199C9.64771 9.10225 9.42665 9.25271 9.23331 9.44336C9.03997 9.63401 8.88643 9.85294 8.7727 10.1001C8.65896 10.3474 8.60117 10.603 8.59932 10.867L8.59739 11.1429C8.59643 11.2789 8.54774 11.3786 8.45129 11.4419C8.3549 11.4973 8.23465 11.5324 8.09054 11.5474C7.94643 11.5624 7.79041 11.5653 7.62247 11.5561C7.46253 11.547 7.31856 11.542 7.19056 11.5411L5.11461 11.5266C4.91462 11.5252 4.77499 11.4722 4.69572 11.3676C4.6245 11.2551 4.58929 11.1429 4.59007 11.0309L4.59285 10.6349C4.59873 9.7949 4.76811 9.02807 5.10098 8.33438C5.4419 7.63275 5.89012 7.03188 6.44564 6.53176C7.00916 6.03169 7.65589 5.64421 8.38583 5.36932C9.12377 5.09448 9.89274 4.95987 10.6927 4.96547C11.5167 4.97124 12.2916 5.12468 13.0175 5.42577C13.7435 5.72686 14.3766 6.14331 14.9168 6.67511C15.4652 7.19896 15.8928 7.82197 16.1998 8.54414C16.5148 9.25836 16.6693 10.0355 16.6635 10.8754C16.6581 11.6354 16.5577 12.2707 16.3621 12.7814C16.1666 13.284 15.9196 13.7063 15.6212 14.0482C15.3308 14.3902 15.0168 14.676 14.6792 14.9056C14.3416 15.1273 14.0241 15.3451 13.7266 15.559C13.4371 15.765 13.1956 15.9873 13.0019 16.2259C12.8082 16.4646 12.7101 16.7639 12.7076 17.1239ZM8.46484 21.4983C8.46596 21.3383 8.51086 21.2106 8.59953 21.1152C8.6882 21.0198 8.82053 20.9727 8.99653 20.974L12.1644 20.9962C12.3004 20.9971 12.4241 21.046 12.5354 21.1428C12.6548 21.2396 12.7139 21.368 12.7127 21.528L12.6924 24.432C12.6914 24.576 12.6425 24.7036 12.5457 24.8149C12.4569 24.9263 12.3205 24.9814 12.1365 24.9801L8.96862 24.9579C8.61662 24.9554 8.44192 24.7702 8.4445 24.4022L8.46484 21.4983Z"/>
</mask>
<path d="M12.7076 17.1239C12.7054 17.4359 12.6917 17.6838 12.6664 17.8676C12.6491 18.0515 12.6081 18.1912 12.5434 18.2868C12.4868 18.3744 12.3984 18.4298 12.2783 18.4529C12.1661 18.4761 12.014 18.4871 11.822 18.4857L9.0141 18.466C8.8381 18.4648 8.70252 18.4039 8.60737 18.2832C8.51221 18.1625 8.46516 18.0262 8.46623 17.8742C8.4692 17.4502 8.47564 17.1022 8.48554 16.8303C8.50345 16.5584 8.52502 16.3346 8.55025 16.1587C8.57548 15.9829 8.60849 15.8391 8.64927 15.7274C8.69006 15.6157 8.74281 15.5081 8.80754 15.4045C9.03405 15.0461 9.28823 14.7359 9.57008 14.4738C9.85192 14.2118 10.1376 13.9738 10.4271 13.7598C10.7166 13.5459 10.998 13.3438 11.2714 13.1537C11.5447 12.9636 11.7901 12.7614 12.0076 12.5469C12.2252 12.3244 12.3989 12.0776 12.5288 11.8065C12.6588 11.5274 12.7251 11.1999 12.7277 10.8239C12.7295 10.5679 12.6753 10.3195 12.5649 10.0787C12.4546 9.83793 12.3041 9.62488 12.1134 9.43953C11.9307 9.25425 11.7117 9.10871 11.4565 9.00292C11.2092 8.88919 10.9496 8.83137 10.6776 8.82946C10.4057 8.82756 10.1453 8.88173 9.89649 8.99199C9.64771 9.10225 9.42665 9.25271 9.23331 9.44336C9.03997 9.63401 8.88643 9.85294 8.7727 10.1001C8.65896 10.3474 8.60117 10.603 8.59932 10.867L8.59739 11.1429C8.59643 11.2789 8.54774 11.3786 8.45129 11.4419C8.3549 11.4973 8.23465 11.5324 8.09054 11.5474C7.94643 11.5624 7.79041 11.5653 7.62247 11.5561C7.46253 11.547 7.31856 11.542 7.19056 11.5411L5.11461 11.5266C4.91462 11.5252 4.77499 11.4722 4.69572 11.3676C4.6245 11.2551 4.58929 11.1429 4.59007 11.0309L4.59285 10.6349C4.59873 9.7949 4.76811 9.02807 5.10098 8.33438C5.4419 7.63275 5.89012 7.03188 6.44564 6.53176C7.00916 6.03169 7.65589 5.64421 8.38583 5.36932C9.12377 5.09448 9.89274 4.95987 10.6927 4.96547C11.5167 4.97124 12.2916 5.12468 13.0175 5.42577C13.7435 5.72686 14.3766 6.14331 14.9168 6.67511C15.4652 7.19896 15.8928 7.82197 16.1998 8.54414C16.5148 9.25836 16.6693 10.0355 16.6635 10.8754C16.6581 11.6354 16.5577 12.2707 16.3621 12.7814C16.1666 13.284 15.9196 13.7063 15.6212 14.0482C15.3308 14.3902 15.0168 14.676 14.6792 14.9056C14.3416 15.1273 14.0241 15.3451 13.7266 15.559C13.4371 15.765 13.1956 15.9873 13.0019 16.2259C12.8082 16.4646 12.7101 16.7639 12.7076 17.1239ZM8.46484 21.4983C8.46596 21.3383 8.51086 21.2106 8.59953 21.1152C8.6882 21.0198 8.82053 20.9727 8.99653 20.974L12.1644 20.9962C12.3004 20.9971 12.4241 21.046 12.5354 21.1428C12.6548 21.2396 12.7139 21.368 12.7127 21.528L12.6924 24.432C12.6914 24.576 12.6425 24.7036 12.5457 24.8149C12.4569 24.9263 12.3205 24.9814 12.1365 24.9801L8.96862 24.9579C8.61662 24.9554 8.44192 24.7702 8.4445 24.4022L8.46484 21.4983Z" fill="white"/>
<path d="M12.6664 17.8676L8.7037 17.3225L8.69199 17.4076L8.68394 17.4932L12.6664 17.8676ZM12.5434 18.2868L9.23086 16.0447L9.20701 16.0799L9.18392 16.1157L12.5434 18.2868ZM12.2783 18.4529L11.5213 14.5252L11.4944 14.5304L11.4676 14.5359L12.2783 18.4529ZM8.60737 18.2832L11.7483 15.8064L11.7483 15.8063L8.60737 18.2832ZM8.48554 16.8303L4.49419 16.5674L4.49033 16.626L4.48819 16.6847L8.48554 16.8303ZM8.64927 15.7274L4.89182 14.3557L4.89182 14.3557L8.64927 15.7274ZM8.80754 15.4045L5.4262 13.2676L5.42092 13.2759L5.41567 13.2843L8.80754 15.4045ZM9.57008 14.4738L12.2937 17.4034L12.2937 17.4033L9.57008 14.4738ZM10.4271 13.7598L12.8046 16.9766L12.8046 16.9766L10.4271 13.7598ZM11.2714 13.1537L8.98758 9.86978L8.98758 9.86978L11.2714 13.1537ZM12.0076 12.5469L14.8162 15.395L14.8421 15.3695L14.8675 15.3435L12.0076 12.5469ZM12.5288 11.8065L16.1361 13.535L16.1457 13.515L16.155 13.495L12.5288 11.8065ZM12.5649 10.0787L16.2014 8.41261L16.2014 8.41261L12.5649 10.0787ZM12.1134 9.43953L9.26524 12.2481L9.29511 12.2784L9.32562 12.308L12.1134 9.43953ZM11.4565 9.00292L9.78461 12.6368L9.85423 12.6688L9.92502 12.6981L11.4565 9.00292ZM9.89649 8.99199L8.27573 5.33506L8.27571 5.33507L9.89649 8.99199ZM9.23331 9.44336L6.42477 6.59518L6.42476 6.59519L9.23331 9.44336ZM8.7727 10.1001L5.13884 8.4283L5.13884 8.4283L8.7727 10.1001ZM8.45129 11.4419L10.4425 14.9111L10.5465 14.8514L10.6467 14.7856L8.45129 11.4419ZM8.09054 11.5474L7.67668 7.56887L7.67666 7.56887L8.09054 11.5474ZM7.62247 11.5561L7.39473 15.5496L7.40421 15.5502L7.62247 11.5561ZM4.69572 11.3676L1.31593 13.507L1.40623 13.6497L1.50822 13.7842L4.69572 11.3676ZM5.10098 8.33438L1.50321 6.58622L1.49892 6.59504L1.49468 6.60388L5.10098 8.33438ZM6.44564 6.53176L3.79067 3.53991L3.77996 3.54941L3.76932 3.55899L6.44564 6.53176ZM8.38583 5.36932L6.98977 1.62085L6.98293 1.6234L6.9761 1.62597L8.38583 5.36932ZM13.0175 5.42577L14.5501 1.73099L14.5501 1.73099L13.0175 5.42577ZM14.9168 6.67511L12.1109 9.52584L12.1322 9.54677L12.1537 9.56738L14.9168 6.67511ZM16.1998 8.54414L12.5185 10.1088L12.5291 10.1336L12.5399 10.1583L16.1998 8.54414ZM16.3621 12.7814L20.09 14.2315L20.0938 14.2218L20.0975 14.2121L16.3621 12.7814ZM15.6212 14.0482L12.6075 11.4181L12.5897 11.4384L12.5722 11.4591L15.6212 14.0482ZM14.6792 14.9056L16.8746 18.2493L16.9019 18.2314L16.9288 18.2131L14.6792 14.9056ZM13.7266 15.559L16.0458 18.818L16.0538 18.8123L16.0618 18.8066L13.7266 15.559ZM13.0019 16.2259L9.89599 13.7053L9.89599 13.7053L13.0019 16.2259ZM12.5354 21.1428L9.91105 24.1615L9.9622 24.206L10.0148 24.2487L12.5354 21.1428ZM12.5457 24.8149L9.52699 22.1906L9.47101 22.255L9.41782 22.3217L12.5457 24.8149ZM8.70769 17.0959C8.70694 17.2029 8.70431 17.2767 8.70177 17.3225C8.69904 17.3718 8.69759 17.3669 8.7037 17.3225L16.6291 18.4127C16.6884 17.9813 16.7048 17.5375 16.7075 17.1519L8.70769 17.0959ZM8.68394 17.4932C8.69318 17.3949 8.71679 17.2149 8.78437 16.9845C8.85129 16.7564 8.97976 16.4157 9.23086 16.0447L15.856 20.5288C16.4584 19.6388 16.6026 18.7339 16.6488 18.242L8.68394 17.4932ZM9.18392 16.1157C9.47338 15.6678 9.85896 15.2876 10.3109 15.0044C10.7509 14.7287 11.1789 14.5912 11.5213 14.5252L13.0352 22.3806C14.0248 22.1899 15.1518 21.6202 15.903 20.4579L9.18392 16.1157ZM11.4676 14.5359C11.6301 14.5023 11.747 14.4921 11.7932 14.4888C11.8447 14.4851 11.8665 14.4859 11.85 14.4858L11.794 22.4856C12.1061 22.4878 12.5781 22.4756 13.089 22.3699L11.4676 14.5359ZM11.85 14.4858L9.04212 14.4661L8.98607 22.4659L11.794 22.4856L11.85 14.4858ZM9.04212 14.4661C9.40924 14.4687 9.89671 14.5356 10.4206 14.7711C10.9603 15.0138 11.4111 15.3788 11.7483 15.8064L5.46646 20.76C6.42919 21.9809 7.79397 22.4576 8.98607 22.4659L9.04212 14.4661ZM11.7483 15.8063C12.2088 16.3903 12.4715 17.1351 12.4661 17.9022L4.46633 17.8462C4.45882 18.9173 4.81563 19.9347 5.46647 20.76L11.7483 15.8063ZM12.4661 17.9022C12.469 17.4985 12.475 17.1934 12.4829 16.9759L4.48819 16.6847C4.47631 17.011 4.46944 17.402 4.46633 17.8462L12.4661 17.9022ZM12.4769 17.0932C12.4912 16.8758 12.5045 16.7632 12.5097 16.7269L4.59081 15.5905C4.54555 15.9059 4.51568 16.241 4.49419 16.5674L12.4769 17.0932ZM12.5097 16.7269C12.5096 16.7275 12.5052 16.7588 12.4925 16.8141C12.4803 16.8672 12.4548 16.9674 12.4067 17.0991L4.89182 14.3557C4.72194 14.8211 4.63813 15.2608 4.59081 15.5905L12.5097 16.7269ZM12.4067 17.0991C12.3495 17.2559 12.2783 17.3985 12.1994 17.5247L5.41567 13.2843C5.20733 13.6176 5.03061 13.9755 4.89182 14.3557L12.4067 17.0991ZM12.1889 17.5415C12.2497 17.4452 12.2885 17.4082 12.2937 17.4034L6.84648 11.5443C6.28799 12.0636 5.81839 12.647 5.4262 13.2676L12.1889 17.5415ZM12.2937 17.4033C12.4731 17.2365 12.6437 17.0955 12.8046 16.9766L8.04958 10.5431C7.63149 10.8521 7.23074 11.1871 6.84648 11.5443L12.2937 17.4033ZM12.8046 16.9766C13.0657 16.7836 13.3158 16.6041 13.5552 16.4377L8.98758 9.86978C8.68026 10.0835 8.36754 10.3081 8.04957 10.5431L12.8046 16.9766ZM13.5551 16.4377C13.999 16.129 14.4227 15.783 14.8162 15.395L9.1991 9.6987C9.15751 9.7397 9.09044 9.79824 8.98758 9.86978L13.5551 16.4377ZM14.8675 15.3435C15.3801 14.8194 15.8105 14.2144 16.1361 13.535L8.92158 10.078C8.98733 9.94079 9.07035 9.82941 9.14778 9.75022L14.8675 15.3435ZM16.155 13.495C16.5747 12.5937 16.7218 11.6775 16.7276 10.8519L8.72782 10.7958C8.72834 10.7222 8.7429 10.4612 8.90268 10.118L16.155 13.495ZM16.7276 10.8519C16.7337 9.99101 16.5466 9.16589 16.2014 8.41261L8.92845 11.7448C8.80395 11.4731 8.72538 11.1447 8.72782 10.7958L16.7276 10.8519ZM16.2014 8.41261C15.8842 7.7201 15.4452 7.09979 14.9012 6.57104L9.32562 12.308C9.16298 12.15 9.0251 11.9558 8.92845 11.7448L16.2014 8.41261ZM14.9616 6.63099C14.3807 6.04195 13.7059 5.60526 12.9879 5.30769L9.92502 12.6981C9.71754 12.6122 9.48066 12.4665 9.26524 12.2481L14.9616 6.63099ZM13.1283 5.36906C12.3656 5.01815 11.5456 4.83544 10.7057 4.82956L10.6496 12.8294C10.3537 12.8273 10.0529 12.7602 9.78461 12.6368L13.1283 5.36906ZM10.7057 4.82956C9.86572 4.82368 9.0433 4.99487 8.27573 5.33506L11.5172 12.6489C11.2472 12.7686 10.9456 12.8314 10.6496 12.8294L10.7057 4.82956ZM8.27571 5.33507C7.58642 5.64057 6.96273 6.06471 6.42477 6.59518L12.0418 12.2915C11.8906 12.4407 11.709 12.5639 11.5173 12.6489L8.27571 5.33507ZM6.42476 6.59519C5.8868 7.12566 5.45397 7.74335 5.13884 8.4283L12.4066 11.772C12.3189 11.9625 12.1931 12.1424 12.0419 12.2915L6.42476 6.59519ZM5.13884 8.4283C4.79531 9.17499 4.60537 9.98957 4.59942 10.8389L12.5992 10.895C12.597 11.2163 12.5226 11.5197 12.4066 11.772L5.13884 8.4283ZM4.59942 10.8389L4.59749 11.1149L12.5973 11.171L12.5992 10.895L4.59942 10.8389ZM4.59749 11.1149C4.60028 10.7165 4.67489 10.1599 4.96627 9.56354C5.27012 8.94173 5.7291 8.44413 6.25586 8.09827L10.6467 14.7856C12.0738 13.8486 12.5889 12.3681 12.5973 11.171L4.59749 11.1149ZM6.46007 7.97277C6.97138 7.67929 7.42649 7.5949 7.67668 7.56887L8.5044 15.5259C9.04281 15.4699 9.73842 15.3152 10.4425 14.9111L6.46007 7.97277ZM7.67666 7.56887C7.77276 7.55888 7.83057 7.56153 7.84072 7.56208L7.40421 15.5502C7.75024 15.5691 8.12011 15.5659 8.50443 15.5259L7.67666 7.56887ZM7.85021 7.56261C7.63946 7.55059 7.42726 7.54266 7.21859 7.5412L7.16254 15.541C7.20986 15.5413 7.2856 15.5434 7.39473 15.5496L7.85021 7.56261ZM7.21859 7.5412L5.14264 7.52665L5.08659 15.5265L7.16254 15.541L7.21859 7.5412ZM5.14264 7.52665C5.51703 7.52928 6.88466 7.63393 7.88321 8.95103L1.50822 13.7842C2.66532 15.3104 4.31221 15.521 5.08659 15.5265L5.14264 7.52665ZM8.07551 9.22822C8.33598 9.63971 8.59551 10.2692 8.58998 11.0589L0.590173 11.0028C0.583071 12.0165 0.913027 12.8705 1.31593 13.507L8.07551 9.22822ZM8.58998 11.0589L8.59275 10.6629L0.592947 10.6069L0.590173 11.0028L8.58998 11.0589ZM8.59275 10.6629C8.59489 10.3577 8.65217 10.1797 8.70727 10.0649L1.49468 6.60388C0.884047 7.87642 0.602578 9.23213 0.592947 10.6069L8.59275 10.6629ZM8.69874 10.0825C8.82431 9.82412 8.96629 9.64467 9.12196 9.50452L3.76932 3.55899C2.81396 4.41909 2.05949 5.44139 1.50321 6.58622L8.69874 10.0825ZM9.10061 9.52361C9.28556 9.35947 9.50672 9.22145 9.79556 9.11267L6.9761 1.62597C5.80506 2.06698 4.73275 2.70391 3.79067 3.53991L9.10061 9.52361ZM9.78189 9.11779C10.057 9.01532 10.3428 8.96312 10.6647 8.96537L10.7207 0.965571C9.44263 0.956616 8.19053 1.17364 6.98977 1.62085L9.78189 9.11779ZM10.6647 8.96537C10.9976 8.96771 11.2592 9.02687 11.485 9.12055L14.5501 1.73099C13.3241 1.22248 12.0358 0.974783 10.7207 0.965571L10.6647 8.96537ZM11.485 9.12055C11.7539 9.23207 11.9503 9.36781 12.1109 9.52584L17.7228 3.82437C16.8028 2.91881 15.733 2.22166 14.5501 1.73099L11.485 9.12055ZM12.1537 9.56738C12.2953 9.70258 12.4167 9.86921 12.5185 10.1088L19.8811 6.97946C19.369 5.77473 18.6351 4.69534 17.6799 3.78283L12.1537 9.56738ZM12.5399 10.1583C12.6098 10.3168 12.6658 10.5291 12.6636 10.8474L20.6634 10.9035C20.6729 9.54186 20.4197 8.19992 19.8596 6.92999L12.5399 10.1583ZM12.6636 10.8474C12.6621 11.0624 12.6472 11.2086 12.6332 11.2972C12.6191 11.3862 12.6091 11.3966 12.6267 11.3507L20.0975 14.2121C20.5173 13.1161 20.6559 11.9697 20.6634 10.9035L12.6636 10.8474ZM12.6342 11.3313C12.5758 11.4815 12.55 11.484 12.6075 11.4181L18.6349 16.6784C19.2892 15.9286 19.7574 15.0866 20.09 14.2315L12.6342 11.3313ZM12.5722 11.4591C12.492 11.5535 12.4419 11.5898 12.4295 11.5982L16.9288 18.2131C17.5917 17.7622 18.1696 17.2269 18.6702 16.6374L12.5722 11.4591ZM12.4838 11.562C12.1036 11.8116 11.7392 12.0613 11.3914 12.3114L16.0618 18.8066C16.309 18.6288 16.5796 18.443 16.8746 18.2493L12.4838 11.562ZM11.4074 12.2999C10.8683 12.6836 10.3495 13.1465 9.89599 13.7053L16.1078 18.7465C16.0416 18.8281 16.006 18.8463 16.0458 18.818L11.4074 12.2999ZM9.89599 13.7053C9.03532 14.7659 8.71543 15.9901 8.70769 17.0959L16.7075 17.1519C16.7048 17.5377 16.5811 18.1633 16.1078 18.7465L9.89599 13.7053ZM12.4647 21.5263C12.4605 22.1272 12.2692 23.0426 11.5291 23.8387L5.66992 18.3917C4.75248 19.3786 4.47139 20.5493 4.46494 21.4702L12.4647 21.5263ZM11.5291 23.8387C10.6136 24.8236 9.50292 24.9776 8.9685 24.9739L9.02455 16.9741C8.13814 16.9679 6.76284 17.2161 5.66992 18.3917L11.5291 23.8387ZM8.9685 24.9739L12.1364 24.9961L12.1925 16.9963L9.02455 16.9741L8.9685 24.9739ZM12.1364 24.9961C11.2339 24.9898 10.4546 24.634 9.91105 24.1615L15.1598 18.1241C14.3936 17.458 13.367 17.0045 12.1925 16.9963L12.1364 24.9961ZM10.0148 24.2487C9.64072 23.9451 9.28411 23.524 9.03561 22.984C8.78934 22.4489 8.70983 21.9292 8.71283 21.5L16.7126 21.5561C16.7219 20.2389 16.163 18.9352 15.056 18.0369L10.0148 24.2487ZM8.71283 21.5L8.69249 24.4039L16.6923 24.46L16.7126 21.5561L8.71283 21.5ZM8.69249 24.4039C8.69835 23.5679 9.01404 22.7806 9.52699 22.1906L15.5644 27.4393C16.2709 26.6266 16.6844 25.584 16.6923 24.46L8.69249 24.4039ZM9.41782 22.3217C9.81753 21.8202 10.3304 21.4522 10.8798 21.2305C11.4011 21.0201 11.8607 20.978 12.1646 20.9802L12.1085 28.98C13.1304 28.9871 14.6059 28.6476 15.6736 27.3082L9.41782 22.3217ZM12.1646 20.9802L8.99664 20.958L8.94059 28.9578L12.1085 28.98L12.1646 20.9802ZM8.99664 20.958C9.48362 20.9614 10.5713 21.1054 11.4835 22.0725C12.3641 23.0062 12.4471 24.041 12.4444 24.4302L4.44459 24.3742C4.43929 25.1314 4.60836 26.4428 5.66373 27.5617C6.75063 28.714 8.10162 28.9519 8.94059 28.9578L8.99664 20.958ZM12.4444 24.4302L12.4647 21.5263L4.46494 21.4702L4.44459 24.3742L12.4444 24.4302Z" fill="#7050DA" mask="url(#path-1-outside-1_3475_692)"/>
</svg>
