<svg width="24" height="27" viewBox="0 0 24 27" fill="none" xmlns="http://www.w3.org/2000/svg">
<mask id="path-1-outside-1_3475_693" maskUnits="userSpaceOnUse" x="-1.04115" y="-0.377108" width="24.9162" height="27.8111" fill="black">
<rect fill="white" x="-1.04115" y="-0.377108" width="24.9162" height="27.8111"/>
<path d="M11.1531 17.0996C11.2169 15.9292 11.5326 14.9356 12.1002 14.1187C12.6984 13.3186 13.0519 12.0214 13.1607 10.2272C13.2293 7.10269 12.1066 5.43019 9.79253 5.20969C9.10544 5.18599 8.5391 5.28763 8.09351 5.5146C7.75104 5.69822 7.51304 5.9128 7.3795 6.15834C7.32188 6.24234 7.29119 6.339 7.28742 6.44831C7.2823 6.59666 7.32875 6.72333 7.42675 6.82834C7.52475 6.93334 7.64793 6.9884 7.79627 6.99351C7.94462 6.99863 8.0713 6.95219 8.1763 6.85418C8.28911 6.75645 8.34807 6.63341 8.35319 6.48506C8.35831 6.33671 8.30809 6.206 8.20255 6.09292C8.18748 6.07676 8.16863 6.05657 8.14601 6.03234C8.40663 5.95534 8.72285 5.96624 9.09467 6.06505C10.0672 6.42691 10.7681 7.06863 11.1975 7.99023C11.6342 8.92771 11.6757 9.87892 11.3219 10.8439C10.976 11.8091 10.3381 12.5102 9.40846 12.9471C8.47098 13.3838 7.51963 13.4292 6.55442 13.0832C5.58947 12.7295 4.88852 12.0877 4.45155 11.1581C4.01458 10.2284 4.02023 9.15764 4.46851 7.9458C4.74906 7.29102 5.11643 6.72522 5.57063 6.2484C7.02882 4.99322 9.10476 4.41207 11.7985 4.50496C14.2423 4.58923 16.0842 5.12959 17.324 6.12604C18.5639 7.12248 19.1513 8.56155 19.0864 10.4432C18.8032 13.2164 17.0635 14.927 13.8674 15.575C12.7584 15.7713 12.0801 16.2873 11.8324 17.123L11.1531 17.0996ZM11.5109 17.9444C12.159 17.9668 12.7054 18.2162 13.1502 18.6928C13.595 19.1693 13.8062 19.7316 13.7838 20.3797C13.7612 21.0355 13.5116 21.5859 13.0351 22.0306C12.5585 22.4754 11.9962 22.6866 11.3482 22.6643C10.6923 22.6417 10.142 22.3921 9.69721 21.9155C9.25243 21.439 9.04135 20.8728 9.06397 20.2169C9.08632 19.5689 9.33576 19.0225 9.81231 18.5777C10.2889 18.1329 10.8551 17.9218 11.5109 17.9444Z"/>
</mask>
<path d="M11.1531 17.0996C11.2169 15.9292 11.5326 14.9356 12.1002 14.1187C12.6984 13.3186 13.0519 12.0214 13.1607 10.2272C13.2293 7.10269 12.1066 5.43019 9.79253 5.20969C9.10544 5.18599 8.5391 5.28763 8.09351 5.5146C7.75104 5.69822 7.51304 5.9128 7.3795 6.15834C7.32188 6.24234 7.29119 6.339 7.28742 6.44831C7.2823 6.59666 7.32875 6.72333 7.42675 6.82834C7.52475 6.93334 7.64793 6.9884 7.79627 6.99351C7.94462 6.99863 8.0713 6.95219 8.1763 6.85418C8.28911 6.75645 8.34807 6.63341 8.35319 6.48506C8.35831 6.33671 8.30809 6.206 8.20255 6.09292C8.18748 6.07676 8.16863 6.05657 8.14601 6.03234C8.40663 5.95534 8.72285 5.96624 9.09467 6.06505C10.0672 6.42691 10.7681 7.06863 11.1975 7.99023C11.6342 8.92771 11.6757 9.87892 11.3219 10.8439C10.976 11.8091 10.3381 12.5102 9.40846 12.9471C8.47098 13.3838 7.51963 13.4292 6.55442 13.0832C5.58947 12.7295 4.88852 12.0877 4.45155 11.1581C4.01458 10.2284 4.02023 9.15764 4.46851 7.9458C4.74906 7.29102 5.11643 6.72522 5.57063 6.2484C7.02882 4.99322 9.10476 4.41207 11.7985 4.50496C14.2423 4.58923 16.0842 5.12959 17.324 6.12604C18.5639 7.12248 19.1513 8.56155 19.0864 10.4432C18.8032 13.2164 17.0635 14.927 13.8674 15.575C12.7584 15.7713 12.0801 16.2873 11.8324 17.123L11.1531 17.0996ZM11.5109 17.9444C12.159 17.9668 12.7054 18.2162 13.1502 18.6928C13.595 19.1693 13.8062 19.7316 13.7838 20.3797C13.7612 21.0355 13.5116 21.5859 13.0351 22.0306C12.5585 22.4754 11.9962 22.6866 11.3482 22.6643C10.6923 22.6417 10.142 22.3921 9.69721 21.9155C9.25243 21.439 9.04135 20.8728 9.06397 20.2169C9.08632 19.5689 9.33576 19.0225 9.81231 18.5777C10.2889 18.1329 10.8551 17.9218 11.5109 17.9444Z" fill="white"/>
<path d="M11.1531 17.0996L7.15904 16.8818L6.93689 20.9566L11.0153 21.0972L11.1531 17.0996ZM12.1002 14.1187L8.89653 11.7236L8.85489 11.7793L8.81521 11.8364L12.1002 14.1187ZM13.1607 10.2272L17.1533 10.4692L17.158 10.3922L17.1597 10.3151L13.1607 10.2272ZM9.79253 5.20969L10.172 1.22773L10.0514 1.21624L9.93038 1.21206L9.79253 5.20969ZM8.09351 5.5146L6.278 1.95034L6.2405 1.96945L6.2034 1.98934L8.09351 5.5146ZM7.3795 6.15834L10.6781 8.42087L10.7948 8.2507L10.8934 8.06943L7.3795 6.15834ZM8.1763 6.85418L5.55713 3.83095L5.50116 3.87944L5.44703 3.92996L8.1763 6.85418ZM8.14601 6.03234L7.01263 2.19627L0.805736 4.03012L5.22179 8.76161L8.14601 6.03234ZM9.09467 6.06505L10.4896 2.31617L10.3086 2.24883L10.122 2.19923L9.09467 6.06505ZM11.1975 7.99023L14.8234 6.3012L14.8232 6.30078L11.1975 7.99023ZM11.3219 10.8439L7.56638 9.46697L7.56139 9.48057L7.55651 9.4942L11.3219 10.8439ZM9.40846 12.9471L11.0975 16.5731L11.11 16.5672L9.40846 12.9471ZM6.55442 13.0832L5.17752 16.8388L5.19112 16.8438L5.20475 16.8487L6.55442 13.0832ZM4.46851 7.9458L0.791775 6.37049L0.752001 6.46332L0.716963 6.55804L4.46851 7.9458ZM5.57063 6.2484L2.96111 3.21683L2.81098 3.34606L2.67435 3.48949L5.57063 6.2484ZM19.0864 10.4432L23.0657 10.8497L23.0794 10.7157L23.0841 10.5811L19.0864 10.4432ZM13.8674 15.575L14.5645 19.5138L14.6135 19.5051L14.6623 19.4953L13.8674 15.575ZM11.8324 17.123L11.6945 21.1206L14.7879 21.2273L15.6675 18.2597L11.8324 17.123ZM15.1472 17.3173C15.1779 16.7538 15.3112 16.5074 15.3851 16.4011L8.81521 11.8364C7.75399 13.3638 7.25594 15.1046 7.15904 16.8818L15.1472 17.3173ZM15.3038 16.5139C16.6128 14.763 17.0301 12.5024 17.1533 10.4692L9.16801 9.98513C9.12505 10.6938 9.03991 11.1814 8.95471 11.494C8.86719 11.8151 8.81024 11.839 8.89653 11.7236L15.3038 16.5139ZM17.1597 10.3151C17.2028 8.35198 16.9017 6.20328 15.6912 4.40004C14.3543 2.40835 12.3168 1.4321 10.172 1.22773L9.41309 9.19165C9.54661 9.20437 9.50405 9.22214 9.37488 9.15099C9.23043 9.07143 9.11399 8.95562 9.04902 8.85884C8.99643 8.7805 9.03494 8.80037 9.08199 9.01452C9.12993 9.23268 9.17361 9.59444 9.16164 10.1393L17.1597 10.3151ZM9.93038 1.21206C8.80793 1.17336 7.51166 1.32196 6.278 1.95034L9.90902 9.07885C9.73444 9.16778 9.60491 9.19701 9.55902 9.20525C9.51599 9.21297 9.54107 9.20339 9.65468 9.20731L9.93038 1.21206ZM6.2034 1.98934C5.43238 2.40273 4.4905 3.09817 3.86556 4.24725L10.8934 8.06943C10.5356 8.72742 10.0697 8.99371 9.98363 9.03986L6.2034 1.98934ZM4.08086 3.89582C3.56099 4.65376 3.31776 5.49938 3.28979 6.31046L11.285 6.58616C11.2646 7.17862 11.0828 7.83093 10.6781 8.42087L4.08086 3.89582ZM3.28979 6.31046C3.24949 7.47939 3.65405 8.64853 4.50253 9.55761L10.351 4.09907C10.6428 4.41171 10.9015 4.80738 11.074 5.27768C11.2454 5.74532 11.2985 6.19635 11.285 6.58616L3.28979 6.31046ZM4.50253 9.55761C5.351 10.4667 6.48949 10.9508 7.65842 10.9911L7.93413 2.99589C8.32394 3.00933 8.77023 3.09334 9.22496 3.2966C9.68227 3.50102 10.0592 3.78642 10.351 4.09907L4.50253 9.55761ZM7.65842 10.9911C8.82736 11.0314 9.99649 10.6269 10.9056 9.77841L5.44703 3.92996C5.75968 3.63816 6.15534 3.3794 6.62564 3.20697C7.09329 3.03552 7.54431 2.98245 7.93413 2.99589L7.65842 10.9911ZM10.7955 9.87742C11.7437 9.05596 12.3071 7.88985 12.3508 6.62291L4.35557 6.34721C4.37034 5.91886 4.46863 5.43849 4.69793 4.95999C4.927 4.48198 5.23817 4.10728 5.55713 3.83095L10.7955 9.87742ZM12.3508 6.62291C12.3942 5.36562 11.9222 4.21591 11.1268 3.36365L5.27833 8.82219C5.01726 8.54247 4.7629 8.17223 4.58539 7.71013C4.40661 7.24473 4.34075 6.77677 4.35557 6.34721L12.3508 6.62291ZM11.1268 3.36365C11.1267 3.36361 11.1267 3.36358 11.1267 3.36355C11.1267 3.36352 11.1266 3.36349 11.1266 3.36346C11.1266 3.36342 11.1265 3.36339 11.1265 3.36336C11.1265 3.36333 11.1265 3.3633 11.1264 3.36327C11.1264 3.36323 11.1264 3.3632 11.1263 3.36317C11.1263 3.36314 11.1263 3.36311 11.1262 3.36308C11.1262 3.36304 11.1262 3.36301 11.1262 3.36298C11.1261 3.36295 11.1261 3.36292 11.1261 3.36289C11.126 3.36285 11.126 3.36282 11.126 3.36279C11.1259 3.36276 11.1259 3.36273 11.1259 3.36269C11.1259 3.36266 11.1258 3.36263 11.1258 3.3626C11.1258 3.36257 11.1257 3.36254 11.1257 3.3625C11.1257 3.36247 11.1256 3.36244 11.1256 3.36241C11.1256 3.36238 11.1256 3.36234 11.1255 3.36231C11.1255 3.36228 11.1255 3.36225 11.1254 3.36222C11.1254 3.36218 11.1254 3.36215 11.1254 3.36212C11.1253 3.36209 11.1253 3.36206 11.1253 3.36202C11.1252 3.36199 11.1252 3.36196 11.1252 3.36193C11.1251 3.3619 11.1251 3.36186 11.1251 3.36183C11.1251 3.3618 11.125 3.36177 11.125 3.36173C11.125 3.3617 11.1249 3.36167 11.1249 3.36164C11.1249 3.36161 11.1248 3.36157 11.1248 3.36154C11.1248 3.36151 11.1248 3.36148 11.1247 3.36144C11.1247 3.36141 11.1247 3.36138 11.1246 3.36135C11.1246 3.36132 11.1246 3.36128 11.1245 3.36125C11.1245 3.36122 11.1245 3.36119 11.1244 3.36115C11.1244 3.36112 11.1244 3.36109 11.1244 3.36106C11.1243 3.36102 11.1243 3.36099 11.1243 3.36096C11.1242 3.36093 11.1242 3.36089 11.1242 3.36086C11.1241 3.36083 11.1241 3.3608 11.1241 3.36076C11.1241 3.36073 11.124 3.3607 11.124 3.36067C11.124 3.36063 11.1239 3.3606 11.1239 3.36057C11.1239 3.36054 11.1238 3.3605 11.1238 3.36047C11.1238 3.36044 11.1238 3.36041 11.1237 3.36037C11.1237 3.36034 11.1237 3.36031 11.1236 3.36028C11.1236 3.36024 11.1236 3.36021 11.1235 3.36018C11.1235 3.36015 11.1235 3.36011 11.1234 3.36008C11.1234 3.36005 11.1234 3.36002 11.1234 3.35998C11.1233 3.35995 11.1233 3.35992 11.1233 3.35988C11.1232 3.35985 11.1232 3.35982 11.1232 3.35979C11.1231 3.35975 11.1231 3.35972 11.1231 3.35969C11.123 3.35965 11.123 3.35962 11.123 3.35959C11.123 3.35956 11.1229 3.35952 11.1229 3.35949C11.1229 3.35946 11.1228 3.35942 11.1228 3.35939C11.1228 3.35936 11.1227 3.35933 11.1227 3.35929C11.1227 3.35926 11.1227 3.35923 11.1226 3.35919C11.1226 3.35916 11.1226 3.35913 11.1225 3.3591C11.1225 3.35906 11.1225 3.35903 11.1224 3.359C11.1224 3.35896 11.1224 3.35893 11.1223 3.3589C11.1223 3.35886 11.1223 3.35883 11.1222 3.3588C11.1222 3.35876 11.1222 3.35873 11.1222 3.3587C11.1221 3.35867 11.1221 3.35863 11.1221 3.3586C11.122 3.35857 11.122 3.35853 11.122 3.3585C11.1219 3.35847 11.1219 3.35843 11.1219 3.3584C11.1218 3.35837 11.1218 3.35833 11.1218 3.3583C11.1218 3.35827 11.1217 3.35823 11.1217 3.3582C11.1217 3.35817 11.1216 3.35813 11.1216 3.3581C11.1216 3.35807 11.1215 3.35803 11.1215 3.358C11.1215 3.35797 11.1214 3.35793 11.1214 3.3579C11.1214 3.35787 11.1214 3.35783 11.1213 3.3578C11.1213 3.35777 11.1213 3.35773 11.1212 3.3577C11.1212 3.35767 11.1212 3.35763 11.1211 3.3576C11.1211 3.35757 11.1211 3.35753 11.121 3.3575C11.121 3.35747 11.121 3.35743 11.1209 3.3574C11.1209 3.35737 11.1209 3.35733 11.1209 3.3573C11.1208 3.35726 11.1208 3.35723 11.1208 3.3572C11.1207 3.35716 11.1207 3.35713 11.1207 3.3571C11.1206 3.35706 11.1206 3.35703 11.1206 3.357C11.1205 3.35696 11.1205 3.35693 11.1205 3.35689C11.1204 3.35686 11.1204 3.35683 11.1204 3.35679C11.1203 3.35676 11.1203 3.35673 11.1203 3.35669C11.1203 3.35666 11.1202 3.35663 11.1202 3.35659C11.1202 3.35656 11.1201 3.35652 11.1201 3.35649C11.1201 3.35646 11.12 3.35642 11.12 3.35639C11.12 3.35635 11.1199 3.35632 11.1199 3.35629C11.1199 3.35625 11.1198 3.35622 11.1198 3.35619C11.1198 3.35615 11.1197 3.35612 11.1197 3.35608C11.1197 3.35605 11.1197 3.35602 11.1196 3.35598C11.1196 3.35595 11.1196 3.35591 11.1195 3.35588C11.1195 3.35585 11.1195 3.35581 11.1194 3.35578C11.1194 3.35574 11.1194 3.35571 11.1193 3.35568C11.1193 3.35564 11.1193 3.35561 11.1192 3.35557C11.1192 3.35554 11.1192 3.35551 11.1191 3.35547C11.1191 3.35544 11.1191 3.3554 11.119 3.35537C11.119 3.35533 11.119 3.3553 11.119 3.35527C11.1189 3.35523 11.1189 3.3552 11.1189 3.35516C11.1188 3.35513 11.1188 3.3551 11.1188 3.35506C11.1187 3.35503 11.1187 3.35499 11.1187 3.35496C11.1186 3.35492 11.1186 3.35489 11.1186 3.35486C11.1185 3.35482 11.1185 3.35479 11.1185 3.35475C11.1184 3.35472 11.1184 3.35468 11.1184 3.35465C11.1183 3.35462 11.1183 3.35458 11.1183 3.35455C11.1182 3.35451 11.1182 3.35448 11.1182 3.35444C11.1182 3.35441 11.1181 3.35437 11.1181 3.35434C11.1181 3.35431 11.118 3.35427 11.118 3.35424C11.118 3.3542 11.1179 3.35417 11.1179 3.35413C11.1179 3.3541 11.1178 3.35406 11.1178 3.35403C11.1178 3.354 11.1177 3.35396 11.1177 3.35393C11.1177 3.35389 11.1176 3.35386 11.1176 3.35382C11.1176 3.35379 11.1175 3.35375 11.1175 3.35372C11.1175 3.35368 11.1174 3.35365 11.1174 3.35361C11.1174 3.35358 11.1173 3.35355 11.1173 3.35351C11.1173 3.35348 11.1173 3.35344 11.1172 3.35341C11.1172 3.35337 11.1172 3.35334 11.1171 3.3533C11.1171 3.35327 11.1171 3.35323 11.117 3.3532C11.117 3.35316 11.117 3.35313 11.1169 3.35309C11.1169 3.35306 11.1169 3.35302 11.1168 3.35299C11.1168 3.35295 11.1168 3.35292 11.1167 3.35288C11.1167 3.35285 11.1167 3.35281 11.1166 3.35278C11.1166 3.35274 11.1166 3.35271 11.1165 3.35267C11.1165 3.35264 11.1165 3.3526 11.1164 3.35257C11.1164 3.35254 11.1164 3.3525 11.1163 3.35247C11.1163 3.35243 11.1163 3.3524 11.1162 3.35236C11.1162 3.35232 11.1162 3.35229 11.1161 3.35225C11.1161 3.35222 11.1161 3.35218 11.116 3.35215C11.116 3.35211 11.116 3.35208 11.1159 3.35204C11.1159 3.35201 11.1159 3.35197 11.1158 3.35194C11.1158 3.3519 11.1158 3.35187 11.1157 3.35183C11.1157 3.3518 11.1157 3.35176 11.1157 3.35173C11.1156 3.35169 11.1156 3.35166 11.1156 3.35162C11.1155 3.35159 11.1155 3.35155 11.1155 3.35152C11.1154 3.35148 11.1154 3.35145 11.1154 3.35141C11.1153 3.35138 11.1153 3.35134 11.1153 3.3513C11.1152 3.35127 11.1152 3.35123 11.1152 3.3512C11.1151 3.35116 11.1151 3.35113 11.1151 3.35109C11.115 3.35106 11.115 3.35102 11.115 3.35099C11.1149 3.35095 11.1149 3.35091 11.1149 3.35088C11.1148 3.35084 11.1148 3.35081 11.1148 3.35077C11.1147 3.35074 11.1147 3.3507 11.1147 3.35067C11.1146 3.35063 11.1146 3.3506 11.1146 3.35056C11.1145 3.35052 11.1145 3.35049 11.1145 3.35045C11.1144 3.35042 11.1144 3.35038 11.1144 3.35035C11.1143 3.35031 11.1143 3.35028 11.1143 3.35024C11.1142 3.3502 11.1142 3.35017 11.1142 3.35013C11.1141 3.3501 11.1141 3.35006 11.1141 3.35003C11.114 3.34999 11.114 3.34995 11.114 3.34992C11.1139 3.34988 11.1139 3.34985 11.1139 3.34981C11.1138 3.34978 11.1138 3.34974 11.1138 3.3497C11.1137 3.34967 11.1137 3.34963 11.1137 3.3496C11.1136 3.34956 11.1136 3.34952 11.1136 3.34949C11.1135 3.34945 11.1135 3.34942 11.1135 3.34938C11.1134 3.34934 11.1134 3.34931 11.1134 3.34927C11.1133 3.34924 11.1133 3.3492 11.1133 3.34917C11.1132 3.34913 11.1132 3.34909 11.1132 3.34906C11.1131 3.34902 11.1131 3.34899 11.1131 3.34895C11.113 3.34891 11.113 3.34888 11.113 3.34884C11.1129 3.34881 11.1129 3.34877 11.1129 3.34873C11.1128 3.3487 11.1128 3.34866 11.1128 3.34862C11.1127 3.34859 11.1127 3.34855 11.1127 3.34852C11.1126 3.34848 11.1126 3.34844 11.1126 3.34841C11.1125 3.34837 11.1125 3.34834 11.1125 3.3483C11.1124 3.34826 11.1124 3.34823 11.1124 3.34819C11.1123 3.34815 11.1123 3.34812 11.1122 3.34808C11.1122 3.34805 11.1122 3.34801 11.1121 3.34797C11.1121 3.34794 11.1121 3.3479 11.112 3.34786C11.112 3.34783 11.112 3.34779 11.1119 3.34776C11.1119 3.34772 11.1119 3.34768 11.1118 3.34765C11.1118 3.34761 11.1118 3.34757 11.1117 3.34754C11.1117 3.3475 11.1117 3.34746 11.1116 3.34743C11.1116 3.34739 11.1116 3.34735 11.1115 3.34732C11.1115 3.34728 11.1115 3.34725 11.1114 3.34721C11.1114 3.34717 11.1114 3.34714 11.1113 3.3471C11.1113 3.34706 11.1113 3.34703 11.1112 3.34699C11.1112 3.34695 11.1112 3.34692 11.1111 3.34688C11.1111 3.34684 11.1111 3.34681 11.111 3.34677C11.111 3.34673 11.111 3.3467 11.1109 3.34666C11.1109 3.34662 11.1109 3.34659 11.1108 3.34655C11.1108 3.34651 11.1107 3.34648 11.1107 3.34644C11.1107 3.3464 11.1106 3.34637 11.1106 3.34633C11.1106 3.34629 11.1105 3.34626 11.1105 3.34622C11.1105 3.34618 11.1104 3.34615 11.1104 3.34611C11.1104 3.34607 11.1103 3.34604 11.1103 3.346C11.1103 3.34596 11.1102 3.34592 11.1102 3.34589C11.1102 3.34585 11.1101 3.34581 11.1101 3.34578C11.1101 3.34574 11.11 3.3457 11.11 3.34567C11.11 3.34563 11.1099 3.34559 11.1099 3.34556C11.1099 3.34552 11.1098 3.34548 11.1098 3.34544C11.1098 3.34541 11.1097 3.34537 11.1097 3.34533C11.1096 3.3453 11.1096 3.34526 11.1096 3.34522C11.1095 3.34519 11.1095 3.34515 11.1095 3.34511C11.1094 3.34507 11.1094 3.34504 11.1094 3.345C11.1093 3.34496 11.1093 3.34493 11.1093 3.34489C11.1092 3.34485 11.1092 3.34481 11.1092 3.34478C11.1091 3.34474 11.1091 3.3447 11.1091 3.34467C11.109 3.34463 11.109 3.34459 11.109 3.34455C11.1089 3.34452 11.1089 3.34448 11.1089 3.34444C11.1088 3.3444 11.1088 3.34437 11.1087 3.34433C11.1087 3.34429 11.1087 3.34425 11.1086 3.34422C11.1086 3.34418 11.1086 3.34414 11.1085 3.34411C11.1085 3.34407 11.1085 3.34403 11.1084 3.34399C11.1084 3.34396 11.1084 3.34392 11.1083 3.34388C11.1083 3.34384 11.1083 3.34381 11.1082 3.34377C11.1082 3.34373 11.1082 3.34369 11.1081 3.34366C11.1081 3.34362 11.108 3.34358 11.108 3.34354C11.108 3.34351 11.1079 3.34347 11.1079 3.34343C11.1079 3.34339 11.1078 3.34336 11.1078 3.34332C11.1078 3.34328 11.1077 3.34324 11.1077 3.34321C11.1077 3.34317 11.1076 3.34313 11.1076 3.34309C11.1076 3.34305 11.1075 3.34302 11.1075 3.34298C11.1075 3.34294 11.1074 3.3429 11.1074 3.34287C11.1073 3.34283 11.1073 3.34279 11.1073 3.34275C11.1072 3.34272 11.1072 3.34268 11.1072 3.34264C11.1071 3.3426 11.1071 3.34256 11.1071 3.34253C11.107 3.34249 11.107 3.34245 11.107 3.34241C11.1069 3.34238 11.1069 3.34234 11.1069 3.3423C11.1068 3.34226 11.1068 3.34222 11.1067 3.34219C11.1067 3.34215 11.1067 3.34211 11.1066 3.34207C11.1066 3.34203 11.1066 3.342 11.1065 3.34196C11.1065 3.34192 11.1065 3.34188 11.1064 3.34184C11.1064 3.34181 11.1064 3.34177 11.1063 3.34173C11.1063 3.34169 11.1062 3.34165 11.1062 3.34162C11.1062 3.34158 11.1061 3.34154 11.1061 3.3415C11.1061 3.34146 11.106 3.34143 11.106 3.34139C11.106 3.34135 11.1059 3.34131 11.1059 3.34127C11.1059 3.34124 11.1058 3.3412 11.1058 3.34116C11.1058 3.34112 11.1057 3.34108 11.1057 3.34104C11.1056 3.34101 11.1056 3.34097 11.1056 3.34093C11.1055 3.34089 11.1055 3.34085 11.1055 3.34082C11.1054 3.34078 11.1054 3.34074 11.1054 3.3407C11.1053 3.34066 11.1053 3.34062 11.1053 3.34059C11.1052 3.34055 11.1052 3.34051 11.1051 3.34047C11.1051 3.34043 11.1051 3.34039 11.105 3.34036C11.105 3.34032 11.105 3.34028 11.1049 3.34024C11.1049 3.3402 11.1049 3.34016 11.1048 3.34012C11.1048 3.34009 11.1047 3.34005 11.1047 3.34001C11.1047 3.33997 11.1046 3.33993 11.1046 3.33989C11.1046 3.33986 11.1045 3.33982 11.1045 3.33978C11.1045 3.33974 11.1044 3.3397 11.1044 3.33966C11.1044 3.33962 11.1043 3.33959 11.1043 3.33955C11.1042 3.33951 11.1042 3.33947 11.1042 3.33943C11.1041 3.33939 11.1041 3.33935 11.1041 3.33931C11.104 3.33928 11.104 3.33924 11.104 3.3392C11.1039 3.33916 11.1039 3.33912 11.1038 3.33908C11.1038 3.33904 11.1038 3.33901 11.1037 3.33897C11.1037 3.33893 11.1037 3.33889 11.1036 3.33885C11.1036 3.33881 11.1036 3.33877 11.1035 3.33873C11.1035 3.33869 11.1035 3.33866 11.1034 3.33862C11.1034 3.33858 11.1033 3.33854 11.1033 3.3385C11.1033 3.33846 11.1032 3.33842 11.1032 3.33838C11.1032 3.33834 11.1031 3.33831 11.1031 3.33827C11.1031 3.33823 11.103 3.33819 11.103 3.33815C11.1029 3.33811 11.1029 3.33807 11.1029 3.33803C11.1028 3.33799 11.1028 3.33796 11.1028 3.33792C11.1027 3.33788 11.1027 3.33784 11.1027 3.3378C11.1026 3.33776 11.1026 3.33772 11.1025 3.33768C11.1025 3.33764 11.1025 3.3376 11.1024 3.33756C11.1024 3.33753 11.1024 3.33749 11.1023 3.33745C11.1023 3.33741 11.1022 3.33737 11.1022 3.33733C11.1022 3.33729 11.1021 3.33725 11.1021 3.33721C11.1021 3.33717 11.102 3.33713 11.102 3.33709C11.102 3.33705 11.1019 3.33702 11.1019 3.33698C11.1018 3.33694 11.1018 3.3369 11.1018 3.33686C11.1017 3.33682 11.1017 3.33678 11.1017 3.33674C11.1016 3.3367 11.1016 3.33666 11.1016 3.33662C11.1015 3.33658 11.1015 3.33654 11.1014 3.3365C11.1014 3.33646 11.1014 3.33643 11.1013 3.33639C11.1013 3.33635 11.1013 3.33631 11.1012 3.33627C11.1012 3.33623 11.1011 3.33619 11.1011 3.33615C11.1011 3.33611 11.101 3.33607 11.101 3.33603C11.101 3.33599 11.1009 3.33595 11.1009 3.33591C11.1009 3.33587 11.1008 3.33583 11.1008 3.33579C11.1007 3.33575 11.1007 3.33571 11.1007 3.33567C11.1006 3.33563 11.1006 3.33559 11.1006 3.33556C11.1005 3.33552 11.1005 3.33548 11.1004 3.33544C11.1004 3.3354 11.1004 3.33536 11.1003 3.33532C11.1003 3.33528 11.1003 3.33524 11.1002 3.3352C11.1002 3.33516 11.1001 3.33512 11.1001 3.33508C11.1001 3.33504 11.1 3.335 11.1 3.33496C11.1 3.33492 11.0999 3.33488 11.0999 3.33484C11.0999 3.3348 11.0998 3.33476 11.0998 3.33472C11.0997 3.33468 11.0997 3.33464 11.0997 3.3346C11.0996 3.33456 11.0996 3.33452 11.0996 3.33448C11.0995 3.33444 11.0995 3.3344 11.0994 3.33436C11.0994 3.33432 11.0994 3.33428 11.0993 3.33424C11.0993 3.3342 11.0993 3.33416 11.0992 3.33412C11.0992 3.33408 11.0991 3.33404 11.0991 3.334C11.0991 3.33396 11.099 3.33392 11.099 3.33388C11.099 3.33384 11.0989 3.3338 11.0989 3.33376C11.0988 3.33372 11.0988 3.33368 11.0988 3.33364C11.0987 3.3336 11.0987 3.33356 11.0987 3.33352C11.0986 3.33348 11.0986 3.33344 11.0985 3.3334C11.0985 3.33336 11.0985 3.33332 11.0984 3.33328C11.0984 3.33324 11.0984 3.3332 11.0983 3.33316C11.0983 3.33312 11.0982 3.33308 11.0982 3.33304C11.0982 3.333 11.0981 3.33296 11.0981 3.33292C11.0981 3.33288 11.098 3.33284 11.098 3.33279C11.0979 3.33275 11.0979 3.33271 11.0979 3.33267C11.0978 3.33263 11.0978 3.33259 11.0978 3.33255C11.0977 3.33251 11.0977 3.33247 11.0976 3.33243C11.0976 3.33239 11.0976 3.33235 11.0975 3.33231C11.0975 3.33227 11.0975 3.33223 11.0974 3.33219C11.0974 3.33215 11.0973 3.33211 11.0973 3.33207C11.0973 3.33203 11.0972 3.33199 11.0972 3.33194C11.0971 3.3319 11.0971 3.33186 11.0971 3.33182C11.097 3.33178 11.097 3.33174 11.097 3.3317C11.0969 3.33166 11.0969 3.33162 11.0968 3.33158C11.0968 3.33154 11.0968 3.3315 11.0967 3.33146C11.0967 3.33142 11.0967 3.33138 11.0966 3.33133C11.0966 3.33129 11.0965 3.33125 11.0965 3.33121C11.0965 3.33117 11.0964 3.33113 11.0964 3.33109C11.0964 3.33105 11.0963 3.33101 11.0963 3.33097C11.0962 3.33093 11.0962 3.33089 11.0962 3.33085C11.0961 3.3308 11.0961 3.33076 11.096 3.33072C11.096 3.33068 11.096 3.33064 11.0959 3.3306C11.0959 3.33056 11.0959 3.33052 11.0958 3.33048C11.0958 3.33044 11.0957 3.3304 11.0957 3.33035C11.0957 3.33031 11.0956 3.33027 11.0956 3.33023C11.0955 3.33019 11.0955 3.33015 11.0955 3.33011C11.0954 3.33007 11.0954 3.33003 11.0954 3.32999C11.0953 3.32994 11.0953 3.3299 11.0952 3.32986C11.0952 3.32982 11.0952 3.32978 11.0951 3.32974C11.0951 3.3297 11.0951 3.32966 11.095 3.32962C11.095 3.32957 11.0949 3.32953 11.0949 3.32949C11.0949 3.32945 11.0948 3.32941 11.0948 3.32937C11.0947 3.32933 11.0947 3.32929 11.0947 3.32924C11.0946 3.3292 11.0946 3.32916 11.0946 3.32912C11.0945 3.32908 11.0945 3.32904 11.0944 3.329C11.0944 3.32896 11.0944 3.32891 11.0943 3.32887C11.0943 3.32883 11.0942 3.32879 11.0942 3.32875C11.0942 3.32871 11.0941 3.32867 11.0941 3.32862C11.094 3.32858 11.094 3.32854 11.094 3.3285C11.0939 3.32846 11.0939 3.32842 11.0939 3.32838C11.0938 3.32833 11.0938 3.32829 11.0937 3.32825C11.0937 3.32821 11.0937 3.32817 11.0936 3.32813C11.0936 3.32808 11.0935 3.32804 11.0935 3.328C11.0935 3.32796 11.0934 3.32792 11.0934 3.32788C11.0934 3.32784 11.0933 3.32779 11.0933 3.32775C11.0932 3.32771 11.0932 3.32767 11.0932 3.32763C11.0931 3.32759 11.0931 3.32754 11.093 3.3275C11.093 3.32746 11.093 3.32742 11.0929 3.32738C11.0929 3.32734 11.0928 3.32729 11.0928 3.32725C11.0928 3.32721 11.0927 3.32717 11.0927 3.32713C11.0927 3.32708 11.0926 3.32704 11.0926 3.327C11.0925 3.32696 11.0925 3.32692 11.0925 3.32688C11.0924 3.32683 11.0924 3.32679 11.0923 3.32675C11.0923 3.32671 11.0923 3.32667 11.0922 3.32662C11.0922 3.32658 11.0921 3.32654 11.0921 3.3265C11.0921 3.32646 11.092 3.32641 11.092 3.32637C11.0919 3.32633 11.0919 3.32629 11.0919 3.32625C11.0918 3.32621 11.0918 3.32616 11.0918 3.32612C11.0917 3.32608 11.0917 3.32604 11.0916 3.32599C11.0916 3.32595 11.0916 3.32591 11.0915 3.32587C11.0915 3.32583 11.0914 3.32578 11.0914 3.32574C11.0914 3.3257 11.0913 3.32566 11.0913 3.32562C11.0912 3.32557 11.0912 3.32553 11.0912 3.32549C11.0911 3.32545 11.0911 3.32541 11.091 3.32536C11.091 3.32532 11.091 3.32528 11.0909 3.32524C11.0909 3.32519 11.0908 3.32515 11.0908 3.32511C11.0908 3.32507 11.0907 3.32502 11.0907 3.32498C11.0906 3.32494 11.0906 3.3249 11.0906 3.32486C11.0905 3.32481 11.0905 3.32477 11.0905 3.32473C11.0904 3.32469 11.0904 3.32464 11.0903 3.3246C11.0903 3.32456 11.0903 3.32452 11.0902 3.32447C11.0902 3.32443 11.0901 3.32439 11.0901 3.32435C11.0901 3.3243 11.09 3.32426 11.09 3.32422C11.0899 3.32418 11.0899 3.32413 11.0899 3.32409C11.0898 3.32405 11.0898 3.32401 11.0897 3.32396C11.0897 3.32392 11.0897 3.32388 11.0896 3.32384C11.0896 3.32379 11.0895 3.32375 11.0895 3.32371C11.0895 3.32367 11.0894 3.32362 11.0894 3.32358C11.0893 3.32354 11.0893 3.3235 11.0893 3.32345C11.0892 3.32341 11.0892 3.32337 11.0891 3.32332C11.0891 3.32328 11.0891 3.32324 11.089 3.3232C11.089 3.32315 11.0889 3.32311 11.0889 3.32307C11.0889 3.32303 11.0888 3.32298 11.0888 3.32294C11.0887 3.3229 11.0887 3.32285 11.0887 3.32281C11.0886 3.32277 11.0886 3.32273 11.0885 3.32268C11.0885 3.32264 11.0885 3.3226 11.0884 3.32255C11.0884 3.32251 11.0883 3.32247 11.0883 3.32243C11.0883 3.32238 11.0882 3.32234 11.0882 3.3223C11.0881 3.32225 11.0881 3.32221 11.0881 3.32217C11.088 3.32213 11.088 3.32208 11.0879 3.32204C11.0879 3.322 11.0879 3.32195 11.0878 3.32191C11.0878 3.32187 11.0877 3.32182 11.0877 3.32178C11.0877 3.32174 11.0876 3.32169 11.0876 3.32165C11.0875 3.32161 11.0875 3.32157 11.0875 3.32152C11.0874 3.32148 11.0874 3.32144 11.0873 3.32139C11.0873 3.32135 11.0873 3.32131 11.0872 3.32126C11.0872 3.32122 11.0871 3.32118 11.0871 3.32113C11.0871 3.32109 11.087 3.32105 11.087 3.321C11.0869 3.32096 11.0869 3.32092 11.0869 3.32087C11.0868 3.32083 11.0868 3.32079 11.0867 3.32074C11.0867 3.3207 11.0867 3.32066 11.0866 3.32061C11.0866 3.32057 11.0865 3.32053 11.0865 3.32048C11.0865 3.32044 11.0864 3.3204 11.0864 3.32035C11.0863 3.32031 11.0863 3.32027 11.0862 3.32022C11.0862 3.32018 11.0862 3.32014 11.0861 3.32009C11.0861 3.32005 11.086 3.32001 11.086 3.31996C11.086 3.31992 11.0859 3.31988 11.0859 3.31983C11.0858 3.31979 11.0858 3.31975 11.0858 3.3197C11.0857 3.31966 11.0857 3.31961 11.0856 3.31957C11.0856 3.31953 11.0856 3.31948 11.0855 3.31944C11.0855 3.3194 11.0854 3.31935 11.0854 3.31931C11.0854 3.31927 11.0853 3.31922 11.0853 3.31918C11.0852 3.31913 11.0852 3.31909 11.0851 3.31905C11.0851 3.319 11.0851 3.31896 11.085 3.31892C11.085 3.31887 11.0849 3.31883 11.0849 3.31878C11.0849 3.31874 11.0848 3.3187 11.0848 3.31865C11.0847 3.31861 11.0847 3.31857 11.0847 3.31852C11.0846 3.31848 11.0846 3.31843 11.0845 3.31839C11.0845 3.31835 11.0845 3.3183 11.0844 3.31826C11.0844 3.31821 11.0843 3.31817 11.0843 3.31813C11.0842 3.31808 11.0842 3.31804 11.0842 3.31799C11.0841 3.31795 11.0841 3.31791 11.084 3.31786C11.084 3.31782 11.084 3.31777 11.0839 3.31773C11.0839 3.31769 11.0838 3.31764 11.0838 3.3176C11.0838 3.31755 11.0837 3.31751 11.0837 3.31747C11.0836 3.31742 11.0836 3.31738 11.0836 3.31733C11.0835 3.31729 11.0835 3.31725 11.0834 3.3172C11.0834 3.31716 11.0833 3.31711 11.0833 3.31707C11.0833 3.31702 11.0832 3.31698 11.0832 3.31694C11.0831 3.31689 11.0831 3.31685 11.0831 3.3168C11.083 3.31676 11.083 3.31672 11.0829 3.31667C11.0829 3.31663 11.0828 3.31658 11.0828 3.31654C11.0828 3.31649 11.0827 3.31645 11.0827 3.31641C11.0826 3.31636 11.0826 3.31632 11.0826 3.31627C11.0825 3.31623 11.0825 3.31618 11.0824 3.31614C11.0824 3.31609 11.0824 3.31605 11.0823 3.31601C11.0823 3.31596 11.0822 3.31592 11.0822 3.31587C11.0821 3.31583 11.0821 3.31578 11.0821 3.31574C11.082 3.31569 11.082 3.31565 11.0819 3.31561C11.0819 3.31556 11.0819 3.31552 11.0818 3.31547C11.0818 3.31543 11.0817 3.31538 11.0817 3.31534C11.0816 3.31529 11.0816 3.31525 11.0816 3.3152C11.0815 3.31516 11.0815 3.31511 11.0814 3.31507C11.0814 3.31503 11.0814 3.31498 11.0813 3.31494C11.0813 3.31489 11.0812 3.31485 11.0812 3.3148C11.0811 3.31476 11.0811 3.31471 11.0811 3.31467C11.081 3.31462 11.081 3.31458 11.0809 3.31453C11.0809 3.31449 11.0809 3.31444 11.0808 3.3144C11.0808 3.31435 11.0807 3.31431 11.0807 3.31427C11.0806 3.31422 11.0806 3.31418 11.0806 3.31413C11.0805 3.31409 11.0805 3.31404 11.0804 3.314C11.0804 3.31395 11.0804 3.31391 11.0803 3.31386C11.0803 3.31382 11.0802 3.31377 11.0802 3.31373C11.0801 3.31368 11.0801 3.31364 11.0801 3.31359C11.08 3.31355 11.08 3.3135 11.0799 3.31346C11.0799 3.31341 11.0798 3.31337 11.0798 3.31332C11.0798 3.31328 11.0797 3.31323 11.0797 3.31319C11.0796 3.31314 11.0796 3.3131 11.0796 3.31305C11.0795 3.31301 11.0795 3.31296 11.0794 3.31292C11.0794 3.31287 11.0793 3.31282 11.0793 3.31278C11.0793 3.31273 11.0792 3.31269 11.0792 3.31264C11.0791 3.3126 11.0791 3.31255 11.079 3.31251C11.079 3.31246 11.079 3.31242 11.0789 3.31237C11.0789 3.31233 11.0788 3.31228 11.0788 3.31224C11.0788 3.31219 11.0787 3.31215 11.0787 3.3121C11.0786 3.31206 11.0786 3.31201 11.0785 3.31197C11.0785 3.31192 11.0785 3.31187 11.0784 3.31183C11.0784 3.31178 11.0783 3.31174 11.0783 3.31169C11.0782 3.31165 11.0782 3.3116 11.0782 3.31156C11.0781 3.31151 11.0781 3.31147 11.078 3.31142C11.078 3.31137 11.0779 3.31133 11.0779 3.31128C11.0779 3.31124 11.0778 3.31119 11.0778 3.31115C11.0777 3.3111 11.0777 3.31106 11.0776 3.31101C11.0776 3.31096 11.0776 3.31092 11.0775 3.31087C11.0775 3.31083 11.0774 3.31078 11.0774 3.31074C11.0774 3.31069 11.0773 3.31065 11.0773 3.3106C11.0772 3.31055 11.0772 3.31051 11.0771 3.31046C11.0771 3.31042 11.0771 3.31037 11.077 3.31033C11.077 3.31028 11.0769 3.31023 11.0769 3.31019C11.0768 3.31014 11.0768 3.3101 11.0768 3.31005C11.0767 3.31001 11.0767 3.30996 11.0766 3.30991C11.0766 3.30987 11.0765 3.30982 11.0765 3.30978C11.0765 3.30973 11.0764 3.30968 11.0764 3.30964C11.0763 3.30959 11.0763 3.30955 11.0762 3.3095C11.0762 3.30946 11.0762 3.30941 11.0761 3.30936C11.0761 3.30932 11.076 3.30927 11.076 3.30923C11.0759 3.30918 11.0759 3.30913 11.0759 3.30909C11.0758 3.30904 11.0758 3.309 11.0757 3.30895C11.0757 3.3089 11.0756 3.30886 11.0756 3.30881C11.0756 3.30877 11.0755 3.30872 11.0755 3.30867C11.0754 3.30863 11.0754 3.30858 11.0753 3.30853C11.0753 3.30849 11.0753 3.30844 11.0752 3.3084C11.0752 3.30835 11.0751 3.3083 11.0751 3.30826C11.075 3.30821 11.075 3.30817 11.0749 3.30812C11.0749 3.30807 11.0749 3.30803 11.0748 3.30798C11.0748 3.30793 11.0747 3.30789 11.0747 3.30784C11.0746 3.3078 11.0746 3.30775 11.0746 3.3077C11.0745 3.30766 11.0745 3.30761 11.0744 3.30756C11.0744 3.30752 11.0743 3.30747 11.0743 3.30742C11.0743 3.30738 11.0742 3.30733 11.0742 3.30729C11.0741 3.30724 11.0741 3.30719 11.074 3.30715C11.074 3.3071 11.074 3.30705 11.0739 3.30701C11.0739 3.30696 11.0738 3.30691 11.0738 3.30687C11.0737 3.30682 11.0737 3.30677 11.0737 3.30673C11.0736 3.30668 11.0736 3.30663 11.0735 3.30659C11.0735 3.30654 11.0734 3.3065 11.0734 3.30645C11.0733 3.3064 11.0733 3.30636 11.0733 3.30631C11.0732 3.30626 11.0732 3.30622 11.0731 3.30617C11.0731 3.30612 11.073 3.30608 11.073 3.30603C11.073 3.30598 11.0729 3.30594 11.0729 3.30589C11.0728 3.30584 11.0728 3.3058 11.0727 3.30575C11.0727 3.3057 11.0727 3.30566 11.0726 3.30561C11.0726 3.30556 11.0725 3.30551 11.0725 3.30547C11.0724 3.30542 11.0724 3.30537 11.0723 3.30533C11.0723 3.30528 11.0723 3.30523 11.0722 3.30519C11.0722 3.30514 11.0721 3.30509 11.0721 3.30505C11.072 3.305 11.072 3.30495 11.072 3.30491C11.0719 3.30486 11.0719 3.30481 11.0718 3.30476C11.0718 3.30472 11.0717 3.30467 11.0717 3.30462C11.0716 3.30458 11.0716 3.30453 11.0716 3.30448C11.0715 3.30444 11.0715 3.30439 11.0714 3.30434C11.0714 3.30429 11.0713 3.30425 11.0713 3.3042C11.0712 3.30415 11.0712 3.30411 11.0712 3.30406C11.0711 3.30401 11.0711 3.30397 11.071 3.30392C11.071 3.30387 11.0709 3.30382 11.0709 3.30378C11.0709 3.30373 11.0708 3.30368 11.0708 3.30363C11.0707 3.30359 11.0707 3.30354 11.0706 3.30349C11.0706 3.30345 11.0705 3.3034 11.0705 3.30335C11.0705 3.3033 11.0704 3.30326 11.0704 3.30321C11.0703 3.30316 11.0703 3.30312 11.0702 3.30307L5.22179 8.76161C5.22184 8.76166 5.22188 8.76171 5.22192 8.76175C5.22197 8.7618 5.22201 8.76185 5.22206 8.7619C5.2221 8.76194 5.22214 8.76199 5.22219 8.76204C5.22223 8.76208 5.22228 8.76213 5.22232 8.76218C5.22236 8.76223 5.22241 8.76227 5.22245 8.76232C5.2225 8.76237 5.22254 8.76241 5.22258 8.76246C5.22263 8.76251 5.22267 8.76256 5.22272 8.7626C5.22276 8.76265 5.2228 8.7627 5.22285 8.76274C5.22289 8.76279 5.22294 8.76284 5.22298 8.76289C5.22302 8.76293 5.22307 8.76298 5.22311 8.76303C5.22316 8.76307 5.2232 8.76312 5.22324 8.76317C5.22329 8.76321 5.22333 8.76326 5.22337 8.76331C5.22342 8.76336 5.22346 8.7634 5.22351 8.76345C5.22355 8.7635 5.22359 8.76354 5.22364 8.76359C5.22368 8.76364 5.22373 8.76368 5.22377 8.76373C5.22381 8.76378 5.22386 8.76382 5.2239 8.76387C5.22394 8.76392 5.22399 8.76397 5.22403 8.76401C5.22407 8.76406 5.22412 8.76411 5.22416 8.76415C5.22421 8.7642 5.22425 8.76425 5.22429 8.76429C5.22434 8.76434 5.22438 8.76439 5.22442 8.76443C5.22447 8.76448 5.22451 8.76453 5.22455 8.76457C5.2246 8.76462 5.22464 8.76467 5.22469 8.76471C5.22473 8.76476 5.22477 8.76481 5.22482 8.76485C5.22486 8.7649 5.2249 8.76495 5.22495 8.76499C5.22499 8.76504 5.22503 8.76509 5.22508 8.76513C5.22512 8.76518 5.22516 8.76523 5.22521 8.76527C5.22525 8.76532 5.22529 8.76536 5.22534 8.76541C5.22538 8.76546 5.22542 8.7655 5.22547 8.76555C5.22551 8.7656 5.22555 8.76564 5.2256 8.76569C5.22564 8.76574 5.22568 8.76578 5.22573 8.76583C5.22577 8.76588 5.22581 8.76592 5.22586 8.76597C5.2259 8.76601 5.22594 8.76606 5.22599 8.76611C5.22603 8.76615 5.22607 8.7662 5.22612 8.76625C5.22616 8.76629 5.2262 8.76634 5.22625 8.76639C5.22629 8.76643 5.22633 8.76648 5.22638 8.76652C5.22642 8.76657 5.22646 8.76662 5.22651 8.76666C5.22655 8.76671 5.22659 8.76676 5.22663 8.7668C5.22668 8.76685 5.22672 8.76689 5.22676 8.76694C5.22681 8.76699 5.22685 8.76703 5.22689 8.76708C5.22694 8.76712 5.22698 8.76717 5.22702 8.76722C5.22707 8.76726 5.22711 8.76731 5.22715 8.76735C5.22719 8.7674 5.22724 8.76745 5.22728 8.76749C5.22732 8.76754 5.22737 8.76758 5.22741 8.76763C5.22745 8.76768 5.2275 8.76772 5.22754 8.76777C5.22758 8.76782 5.22762 8.76786 5.22767 8.76791C5.22771 8.76795 5.22775 8.768 5.2278 8.76805C5.22784 8.76809 5.22788 8.76814 5.22792 8.76818C5.22797 8.76823 5.22801 8.76827 5.22805 8.76832C5.2281 8.76837 5.22814 8.76841 5.22818 8.76846C5.22822 8.7685 5.22827 8.76855 5.22831 8.7686C5.22835 8.76864 5.22839 8.76869 5.22844 8.76873C5.22848 8.76878 5.22852 8.76882 5.22857 8.76887C5.22861 8.76891 5.22865 8.76896 5.22869 8.76901C5.22874 8.76905 5.22878 8.7691 5.22882 8.76914C5.22886 8.76919 5.22891 8.76924 5.22895 8.76928C5.22899 8.76933 5.22903 8.76937 5.22908 8.76942C5.22912 8.76946 5.22916 8.76951 5.2292 8.76955C5.22925 8.7696 5.22929 8.76965 5.22933 8.76969C5.22937 8.76974 5.22942 8.76978 5.22946 8.76983C5.2295 8.76987 5.22954 8.76992 5.22959 8.76996C5.22963 8.77001 5.22967 8.77005 5.22971 8.7701C5.22976 8.77015 5.2298 8.77019 5.22984 8.77024C5.22988 8.77028 5.22993 8.77033 5.22997 8.77037C5.23001 8.77042 5.23005 8.77046 5.2301 8.77051C5.23014 8.77055 5.23018 8.7706 5.23022 8.77065C5.23026 8.77069 5.23031 8.77074 5.23035 8.77078C5.23039 8.77083 5.23043 8.77087 5.23048 8.77092C5.23052 8.77096 5.23056 8.77101 5.2306 8.77105C5.23064 8.7711 5.23069 8.77114 5.23073 8.77119C5.23077 8.77123 5.23081 8.77128 5.23086 8.77132C5.2309 8.77137 5.23094 8.77141 5.23098 8.77146C5.23102 8.7715 5.23107 8.77155 5.23111 8.77159C5.23115 8.77164 5.23119 8.77168 5.23123 8.77173C5.23128 8.77178 5.23132 8.77182 5.23136 8.77186C5.2314 8.77191 5.23144 8.77195 5.23149 8.772C5.23153 8.77205 5.23157 8.77209 5.23161 8.77213C5.23165 8.77218 5.2317 8.77222 5.23174 8.77227C5.23178 8.77231 5.23182 8.77236 5.23186 8.77241C5.23191 8.77245 5.23195 8.77249 5.23199 8.77254C5.23203 8.77258 5.23207 8.77263 5.23212 8.77267C5.23216 8.77272 5.2322 8.77276 5.23224 8.77281C5.23228 8.77285 5.23233 8.7729 5.23237 8.77294C5.23241 8.77299 5.23245 8.77303 5.23249 8.77308C5.23253 8.77312 5.23258 8.77317 5.23262 8.77321C5.23266 8.77326 5.2327 8.7733 5.23274 8.77335C5.23278 8.77339 5.23283 8.77344 5.23287 8.77348C5.23291 8.77352 5.23295 8.77357 5.23299 8.77361C5.23303 8.77366 5.23308 8.7737 5.23312 8.77375C5.23316 8.77379 5.2332 8.77384 5.23324 8.77388C5.23328 8.77393 5.23333 8.77397 5.23337 8.77402C5.23341 8.77406 5.23345 8.7741 5.23349 8.77415C5.23353 8.77419 5.23358 8.77424 5.23362 8.77428C5.23366 8.77433 5.2337 8.77437 5.23374 8.77442C5.23378 8.77446 5.23382 8.77451 5.23387 8.77455C5.23391 8.77459 5.23395 8.77464 5.23399 8.77468C5.23403 8.77473 5.23407 8.77477 5.23411 8.77482C5.23416 8.77486 5.2342 8.7749 5.23424 8.77495C5.23428 8.77499 5.23432 8.77504 5.23436 8.77508C5.2344 8.77513 5.23445 8.77517 5.23449 8.77521C5.23453 8.77526 5.23457 8.7753 5.23461 8.77535C5.23465 8.77539 5.23469 8.77544 5.23473 8.77548C5.23478 8.77552 5.23482 8.77557 5.23486 8.77561C5.2349 8.77566 5.23494 8.7757 5.23498 8.77575C5.23502 8.77579 5.23506 8.77583 5.23511 8.77588C5.23515 8.77592 5.23519 8.77597 5.23523 8.77601C5.23527 8.77605 5.23531 8.7761 5.23535 8.77614C5.23539 8.77619 5.23544 8.77623 5.23548 8.77627C5.23552 8.77632 5.23556 8.77636 5.2356 8.77641C5.23564 8.77645 5.23568 8.77649 5.23572 8.77654C5.23576 8.77658 5.2358 8.77663 5.23585 8.77667C5.23589 8.77671 5.23593 8.77676 5.23597 8.7768C5.23601 8.77685 5.23605 8.77689 5.23609 8.77693C5.23613 8.77698 5.23617 8.77702 5.23621 8.77706C5.23626 8.77711 5.2363 8.77715 5.23634 8.7772C5.23638 8.77724 5.23642 8.77728 5.23646 8.77733C5.2365 8.77737 5.23654 8.77742 5.23658 8.77746C5.23662 8.7775 5.23666 8.77755 5.2367 8.77759C5.23675 8.77763 5.23679 8.77768 5.23683 8.77772C5.23687 8.77776 5.23691 8.77781 5.23695 8.77785C5.23699 8.7779 5.23703 8.77794 5.23707 8.77798C5.23711 8.77803 5.23715 8.77807 5.23719 8.77811C5.23723 8.77816 5.23728 8.7782 5.23732 8.77824C5.23736 8.77829 5.2374 8.77833 5.23744 8.77838C5.23748 8.77842 5.23752 8.77846 5.23756 8.77851C5.2376 8.77855 5.23764 8.77859 5.23768 8.77864C5.23772 8.77868 5.23776 8.77872 5.2378 8.77877C5.23784 8.77881 5.23788 8.77885 5.23792 8.7789C5.23797 8.77894 5.23801 8.77898 5.23805 8.77903C5.23809 8.77907 5.23813 8.77911 5.23817 8.77916C5.23821 8.7792 5.23825 8.77924 5.23829 8.77929C5.23833 8.77933 5.23837 8.77937 5.23841 8.77942C5.23845 8.77946 5.23849 8.7795 5.23853 8.77955C5.23857 8.77959 5.23861 8.77963 5.23865 8.77968C5.23869 8.77972 5.23873 8.77976 5.23877 8.77981C5.23881 8.77985 5.23885 8.77989 5.23889 8.77994C5.23893 8.77998 5.23897 8.78002 5.23902 8.78007C5.23906 8.78011 5.2391 8.78015 5.23914 8.7802C5.23918 8.78024 5.23922 8.78028 5.23926 8.78032C5.2393 8.78037 5.23934 8.78041 5.23938 8.78045C5.23942 8.7805 5.23946 8.78054 5.2395 8.78058C5.23954 8.78063 5.23958 8.78067 5.23962 8.78071C5.23966 8.78075 5.2397 8.7808 5.23974 8.78084C5.23978 8.78088 5.23982 8.78093 5.23986 8.78097C5.2399 8.78101 5.23994 8.78106 5.23998 8.7811C5.24002 8.78114 5.24006 8.78118 5.2401 8.78123C5.24014 8.78127 5.24018 8.78131 5.24022 8.78136C5.24026 8.7814 5.2403 8.78144 5.24034 8.78148C5.24038 8.78153 5.24042 8.78157 5.24046 8.78161C5.2405 8.78165 5.24054 8.7817 5.24058 8.78174C5.24062 8.78178 5.24066 8.78183 5.2407 8.78187C5.24074 8.78191 5.24078 8.78195 5.24082 8.782C5.24086 8.78204 5.2409 8.78208 5.24094 8.78212C5.24098 8.78217 5.24102 8.78221 5.24106 8.78225C5.2411 8.7823 5.24114 8.78234 5.24118 8.78238C5.24121 8.78242 5.24125 8.78246 5.24129 8.78251C5.24133 8.78255 5.24137 8.78259 5.24141 8.78264C5.24145 8.78268 5.24149 8.78272 5.24153 8.78276C5.24157 8.78281 5.24161 8.78285 5.24165 8.78289C5.24169 8.78293 5.24173 8.78298 5.24177 8.78302C5.24181 8.78306 5.24185 8.7831 5.24189 8.78315C5.24193 8.78319 5.24197 8.78323 5.24201 8.78327C5.24205 8.78331 5.24209 8.78336 5.24213 8.7834C5.24217 8.78344 5.24221 8.78348 5.24224 8.78353C5.24228 8.78357 5.24232 8.78361 5.24236 8.78365C5.2424 8.7837 5.24244 8.78374 5.24248 8.78378C5.24252 8.78382 5.24256 8.78386 5.2426 8.78391C5.24264 8.78395 5.24268 8.78399 5.24272 8.78403C5.24276 8.78408 5.2428 8.78412 5.24284 8.78416C5.24288 8.7842 5.24291 8.78424 5.24295 8.78429C5.24299 8.78433 5.24303 8.78437 5.24307 8.78441C5.24311 8.78445 5.24315 8.7845 5.24319 8.78454C5.24323 8.78458 5.24327 8.78462 5.24331 8.78466C5.24335 8.78471 5.24339 8.78475 5.24342 8.78479C5.24346 8.78483 5.2435 8.78487 5.24354 8.78492C5.24358 8.78496 5.24362 8.785 5.24366 8.78504C5.2437 8.78508 5.24374 8.78513 5.24378 8.78517C5.24382 8.78521 5.24386 8.78525 5.24389 8.78529C5.24393 8.78534 5.24397 8.78538 5.24401 8.78542C5.24405 8.78546 5.24409 8.7855 5.24413 8.78555C5.24417 8.78559 5.24421 8.78563 5.24425 8.78567C5.24429 8.78571 5.24432 8.78575 5.24436 8.7858C5.2444 8.78584 5.24444 8.78588 5.24448 8.78592C5.24452 8.78596 5.24456 8.786 5.2446 8.78605C5.24464 8.78609 5.24467 8.78613 5.24471 8.78617C5.24475 8.78621 5.24479 8.78625 5.24483 8.7863C5.24487 8.78634 5.24491 8.78638 5.24495 8.78642C5.24499 8.78646 5.24502 8.7865 5.24506 8.78655C5.2451 8.78659 5.24514 8.78663 5.24518 8.78667C5.24522 8.78671 5.24526 8.78675 5.2453 8.78679C5.24533 8.78684 5.24537 8.78688 5.24541 8.78692C5.24545 8.78696 5.24549 8.787 5.24553 8.78704C5.24557 8.78709 5.2456 8.78713 5.24564 8.78717C5.24568 8.78721 5.24572 8.78725 5.24576 8.78729C5.2458 8.78733 5.24584 8.78738 5.24588 8.78742C5.24591 8.78746 5.24595 8.7875 5.24599 8.78754C5.24603 8.78758 5.24607 8.78762 5.24611 8.78766C5.24615 8.78771 5.24618 8.78775 5.24622 8.78779C5.24626 8.78783 5.2463 8.78787 5.24634 8.78791C5.24638 8.78795 5.24641 8.78799 5.24645 8.78804C5.24649 8.78808 5.24653 8.78812 5.24657 8.78816C5.24661 8.7882 5.24665 8.78824 5.24668 8.78828C5.24672 8.78832 5.24676 8.78836 5.2468 8.78841C5.24684 8.78845 5.24688 8.78849 5.24691 8.78853C5.24695 8.78857 5.24699 8.78861 5.24703 8.78865C5.24707 8.78869 5.24711 8.78873 5.24714 8.78878C5.24718 8.78882 5.24722 8.78886 5.24726 8.7889C5.2473 8.78894 5.24733 8.78898 5.24737 8.78902C5.24741 8.78906 5.24745 8.7891 5.24749 8.78914C5.24753 8.78918 5.24756 8.78923 5.2476 8.78927C5.24764 8.78931 5.24768 8.78935 5.24772 8.78939C5.24775 8.78943 5.24779 8.78947 5.24783 8.78951C5.24787 8.78955 5.24791 8.78959 5.24795 8.78963C5.24798 8.78967 5.24802 8.78972 5.24806 8.78976C5.2481 8.7898 5.24814 8.78984 5.24817 8.78988C5.24821 8.78992 5.24825 8.78996 5.24829 8.79C5.24833 8.79004 5.24836 8.79008 5.2484 8.79012C5.24844 8.79016 5.24848 8.7902 5.24852 8.79025C5.24855 8.79029 5.24859 8.79033 5.24863 8.79037C5.24867 8.79041 5.2487 8.79045 5.24874 8.79049C5.24878 8.79053 5.24882 8.79057 5.24886 8.79061C5.24889 8.79065 5.24893 8.79069 5.24897 8.79073C5.24901 8.79077 5.24905 8.79081 5.24908 8.79085C5.24912 8.79089 5.24916 8.79093 5.2492 8.79097C5.24923 8.79102 5.24927 8.79106 5.24931 8.7911C5.24935 8.79114 5.24939 8.79118 5.24942 8.79122C5.24946 8.79126 5.2495 8.7913 5.24954 8.79134C5.24957 8.79138 5.24961 8.79142 5.24965 8.79146C5.24969 8.7915 5.24972 8.79154 5.24976 8.79158C5.2498 8.79162 5.24984 8.79166 5.24987 8.7917C5.24991 8.79174 5.24995 8.79178 5.24999 8.79182C5.25003 8.79186 5.25006 8.7919 5.2501 8.79194C5.25014 8.79198 5.25018 8.79202 5.25021 8.79206C5.25025 8.7921 5.25029 8.79214 5.25033 8.79218C5.25036 8.79222 5.2504 8.79226 5.25044 8.7923C5.25047 8.79234 5.25051 8.79238 5.25055 8.79242C5.25059 8.79246 5.25062 8.7925 5.25066 8.79254C5.2507 8.79258 5.25074 8.79262 5.25077 8.79266C5.25081 8.7927 5.25085 8.79274 5.25089 8.79279C5.25092 8.79282 5.25096 8.79286 5.251 8.7929C5.25104 8.79294 5.25107 8.79298 5.25111 8.79302C5.25115 8.79306 5.25118 8.7931 5.25122 8.79314C5.25126 8.79318 5.2513 8.79322 5.25133 8.79326C5.25137 8.7933 5.25141 8.79334 5.25144 8.79338C5.25148 8.79342 5.25152 8.79346 5.25156 8.7935C5.25159 8.79354 5.25163 8.79358 5.25167 8.79362C5.2517 8.79366 5.25174 8.7937 5.25178 8.79374C5.25182 8.79378 5.25185 8.79382 5.25189 8.79386C5.25193 8.7939 5.25196 8.79394 5.252 8.79398C5.25204 8.79402 5.25208 8.79406 5.25211 8.7941C5.25215 8.79414 5.25219 8.79418 5.25222 8.79422C5.25226 8.79426 5.2523 8.7943 5.25233 8.79434C5.25237 8.79438 5.25241 8.79442 5.25245 8.79446C5.25248 8.79449 5.25252 8.79453 5.25256 8.79457C5.25259 8.79461 5.25263 8.79465 5.25267 8.79469C5.2527 8.79473 5.25274 8.79477 5.25278 8.79481C5.25281 8.79485 5.25285 8.79489 5.25289 8.79493C5.25292 8.79497 5.25296 8.79501 5.253 8.79505C5.25303 8.79509 5.25307 8.79513 5.25311 8.79517C5.25315 8.79521 5.25318 8.79524 5.25322 8.79528C5.25326 8.79532 5.25329 8.79536 5.25333 8.7954C5.25337 8.79544 5.2534 8.79548 5.25344 8.79552C5.25348 8.79556 5.25351 8.7956 5.25355 8.79564C5.25359 8.79568 5.25362 8.79572 5.25366 8.79576C5.2537 8.79579 5.25373 8.79583 5.25377 8.79587C5.25381 8.79591 5.25384 8.79595 5.25388 8.79599C5.25391 8.79603 5.25395 8.79607 5.25399 8.79611C5.25402 8.79615 5.25406 8.79619 5.2541 8.79623C5.25413 8.79626 5.25417 8.7963 5.25421 8.79634C5.25424 8.79638 5.25428 8.79642 5.25432 8.79646C5.25435 8.7965 5.25439 8.79654 5.25443 8.79658C5.25446 8.79662 5.2545 8.79666 5.25453 8.79669C5.25457 8.79673 5.25461 8.79677 5.25464 8.79681C5.25468 8.79685 5.25472 8.79689 5.25475 8.79693C5.25479 8.79697 5.25483 8.79701 5.25486 8.79704C5.2549 8.79708 5.25493 8.79712 5.25497 8.79716C5.25501 8.7972 5.25504 8.79724 5.25508 8.79728C5.25512 8.79732 5.25515 8.79736 5.25519 8.79739C5.25522 8.79743 5.25526 8.79747 5.2553 8.79751C5.25533 8.79755 5.25537 8.79759 5.2554 8.79763C5.25544 8.79766 5.25548 8.7977 5.25551 8.79774C5.25555 8.79778 5.25559 8.79782 5.25562 8.79786C5.25566 8.7979 5.25569 8.79794 5.25573 8.79797C5.25577 8.79801 5.2558 8.79805 5.25584 8.79809C5.25587 8.79813 5.25591 8.79817 5.25595 8.79821C5.25598 8.79824 5.25602 8.79828 5.25605 8.79832C5.25609 8.79836 5.25613 8.7984 5.25616 8.79844C5.2562 8.79848 5.25623 8.79851 5.25627 8.79855C5.25631 8.79859 5.25634 8.79863 5.25638 8.79867C5.25641 8.79871 5.25645 8.79875 5.25648 8.79878C5.25652 8.79882 5.25656 8.79886 5.25659 8.7989C5.25663 8.79894 5.25666 8.79898 5.2567 8.79901C5.25674 8.79905 5.25677 8.79909 5.25681 8.79913C5.25684 8.79917 5.25688 8.79921 5.25691 8.79924C5.25695 8.79928 5.25699 8.79932 5.25702 8.79936C5.25706 8.7994 5.25709 8.79944 5.25713 8.79947C5.25716 8.79951 5.2572 8.79955 5.25724 8.79959C5.25727 8.79963 5.25731 8.79966 5.25734 8.7997C5.25738 8.79974 5.25741 8.79978 5.25745 8.79982C5.25749 8.79986 5.25752 8.79989 5.25756 8.79993C5.25759 8.79997 5.25763 8.80001 5.25766 8.80005C5.2577 8.80008 5.25773 8.80012 5.25777 8.80016C5.25781 8.8002 5.25784 8.80024 5.25788 8.80027C5.25791 8.80031 5.25795 8.80035 5.25798 8.80039C5.25802 8.80043 5.25805 8.80046 5.25809 8.8005C5.25812 8.80054 5.25816 8.80058 5.2582 8.80062C5.25823 8.80065 5.25827 8.80069 5.2583 8.80073C5.25834 8.80077 5.25837 8.80081 5.25841 8.80084C5.25844 8.80088 5.25848 8.80092 5.25851 8.80096C5.25855 8.80099 5.25858 8.80103 5.25862 8.80107C5.25865 8.80111 5.25869 8.80115 5.25873 8.80118C5.25876 8.80122 5.2588 8.80126 5.25883 8.8013C5.25887 8.80133 5.2589 8.80137 5.25894 8.80141C5.25897 8.80145 5.25901 8.80149 5.25904 8.80152C5.25908 8.80156 5.25911 8.8016 5.25915 8.80164C5.25918 8.80167 5.25922 8.80171 5.25925 8.80175C5.25929 8.80179 5.25932 8.80182 5.25936 8.80186C5.25939 8.8019 5.25943 8.80194 5.25946 8.80197C5.2595 8.80201 5.25953 8.80205 5.25957 8.80209C5.2596 8.80213 5.25964 8.80216 5.25967 8.8022C5.25971 8.80224 5.25974 8.80228 5.25978 8.80231C5.25981 8.80235 5.25985 8.80239 5.25988 8.80242C5.25992 8.80246 5.25995 8.8025 5.25999 8.80254C5.26002 8.80257 5.26006 8.80261 5.26009 8.80265C5.26013 8.80269 5.26016 8.80272 5.2602 8.80276C5.26023 8.8028 5.26027 8.80284 5.2603 8.80287C5.26034 8.80291 5.26037 8.80295 5.26041 8.80299C5.26044 8.80302 5.26048 8.80306 5.26051 8.8031C5.26055 8.80313 5.26058 8.80317 5.26062 8.80321C5.26065 8.80325 5.26068 8.80328 5.26072 8.80332C5.26075 8.80336 5.26079 8.80339 5.26082 8.80343C5.26086 8.80347 5.26089 8.80351 5.26093 8.80354C5.26096 8.80358 5.261 8.80362 5.26103 8.80365C5.26107 8.80369 5.2611 8.80373 5.26113 8.80377C5.26117 8.8038 5.2612 8.80384 5.26124 8.80388C5.26127 8.80391 5.26131 8.80395 5.26134 8.80399C5.26138 8.80403 5.26141 8.80406 5.26145 8.8041C5.26148 8.80414 5.26151 8.80417 5.26155 8.80421C5.26158 8.80425 5.26162 8.80428 5.26165 8.80432C5.26169 8.80436 5.26172 8.80439 5.26176 8.80443C5.26179 8.80447 5.26183 8.80451 5.26186 8.80454C5.26189 8.80458 5.26193 8.80462 5.26196 8.80465C5.262 8.80469 5.26203 8.80473 5.26207 8.80476C5.2621 8.8048 5.26213 8.80484 5.26217 8.80487C5.2622 8.80491 5.26224 8.80495 5.26227 8.80498C5.26231 8.80502 5.26234 8.80506 5.26237 8.80509C5.26241 8.80513 5.26244 8.80517 5.26248 8.8052C5.26251 8.80524 5.26255 8.80528 5.26258 8.80531C5.26261 8.80535 5.26265 8.80539 5.26268 8.80542C5.26272 8.80546 5.26275 8.8055 5.26278 8.80553C5.26282 8.80557 5.26285 8.80561 5.26289 8.80564C5.26292 8.80568 5.26296 8.80572 5.26299 8.80575C5.26302 8.80579 5.26306 8.80583 5.26309 8.80586C5.26313 8.8059 5.26316 8.80594 5.26319 8.80597C5.26323 8.80601 5.26326 8.80604 5.2633 8.80608C5.26333 8.80612 5.26336 8.80615 5.2634 8.80619C5.26343 8.80623 5.26347 8.80626 5.2635 8.8063C5.26353 8.80634 5.26357 8.80637 5.2636 8.80641C5.26363 8.80644 5.26367 8.80648 5.2637 8.80652C5.26374 8.80655 5.26377 8.80659 5.2638 8.80663C5.26384 8.80666 5.26387 8.8067 5.26391 8.80673C5.26394 8.80677 5.26397 8.80681 5.26401 8.80684C5.26404 8.80688 5.26407 8.80692 5.26411 8.80695C5.26414 8.80699 5.26418 8.80702 5.26421 8.80706C5.26424 8.8071 5.26428 8.80713 5.26431 8.80717C5.26434 8.8072 5.26438 8.80724 5.26441 8.80728C5.26445 8.80731 5.26448 8.80735 5.26451 8.80739C5.26455 8.80742 5.26458 8.80746 5.26461 8.80749C5.26465 8.80753 5.26468 8.80756 5.26471 8.8076C5.26475 8.80764 5.26478 8.80767 5.26482 8.80771C5.26485 8.80775 5.26488 8.80778 5.26492 8.80782C5.26495 8.80785 5.26498 8.80789 5.26502 8.80792C5.26505 8.80796 5.26508 8.808 5.26512 8.80803C5.26515 8.80807 5.26518 8.8081 5.26522 8.80814C5.26525 8.80818 5.26528 8.80821 5.26532 8.80825C5.26535 8.80828 5.26538 8.80832 5.26542 8.80835C5.26545 8.80839 5.26548 8.80843 5.26552 8.80846C5.26555 8.8085 5.26558 8.80853 5.26562 8.80857C5.26565 8.80861 5.26568 8.80864 5.26572 8.80868C5.26575 8.80871 5.26578 8.80875 5.26582 8.80878C5.26585 8.80882 5.26588 8.80885 5.26592 8.80889C5.26595 8.80893 5.26598 8.80896 5.26602 8.809C5.26605 8.80903 5.26608 8.80907 5.26612 8.8091C5.26615 8.80914 5.26618 8.80917 5.26622 8.80921C5.26625 8.80925 5.26628 8.80928 5.26632 8.80932C5.26635 8.80935 5.26638 8.80939 5.26642 8.80942C5.26645 8.80946 5.26648 8.80949 5.26651 8.80953C5.26655 8.80957 5.26658 8.8096 5.26661 8.80964C5.26665 8.80967 5.26668 8.80971 5.26671 8.80974C5.26675 8.80978 5.26678 8.80981 5.26681 8.80985C5.26684 8.80988 5.26688 8.80992 5.26691 8.80995C5.26694 8.80999 5.26698 8.81002 5.26701 8.81006C5.26704 8.81009 5.26708 8.81013 5.26711 8.81017C5.26714 8.8102 5.26717 8.81024 5.26721 8.81027C5.26724 8.81031 5.26727 8.81034 5.26731 8.81038C5.26734 8.81041 5.26737 8.81045 5.2674 8.81048C5.26744 8.81052 5.26747 8.81055 5.2675 8.81059C5.26754 8.81062 5.26757 8.81066 5.2676 8.81069C5.26763 8.81073 5.26767 8.81076 5.2677 8.8108C5.26773 8.81083 5.26776 8.81087 5.2678 8.8109C5.26783 8.81094 5.26786 8.81097 5.2679 8.81101C5.26793 8.81104 5.26796 8.81108 5.26799 8.81111C5.26803 8.81115 5.26806 8.81118 5.26809 8.81122C5.26812 8.81125 5.26816 8.81129 5.26819 8.81132C5.26822 8.81136 5.26825 8.81139 5.26829 8.81143C5.26832 8.81146 5.26835 8.8115 5.26838 8.81153C5.26842 8.81157 5.26845 8.8116 5.26848 8.81164C5.26851 8.81167 5.26855 8.81171 5.26858 8.81174C5.26861 8.81178 5.26864 8.81181 5.26868 8.81185C5.26871 8.81188 5.26874 8.81192 5.26877 8.81195C5.26881 8.81198 5.26884 8.81202 5.26887 8.81205C5.2689 8.81209 5.26894 8.81212 5.26897 8.81216C5.269 8.81219 5.26903 8.81223 5.26906 8.81226C5.2691 8.8123 5.26913 8.81233 5.26916 8.81237C5.26919 8.8124 5.26923 8.81244 5.26926 8.81247C5.26929 8.8125 5.26932 8.81254 5.26936 8.81257C5.26939 8.81261 5.26942 8.81264 5.26945 8.81268C5.26948 8.81271 5.26952 8.81275 5.26955 8.81278C5.26958 8.81282 5.26961 8.81285 5.26965 8.81288C5.26968 8.81292 5.26971 8.81295 5.26974 8.81299C5.26977 8.81302 5.26981 8.81306 5.26984 8.81309C5.26987 8.81312 5.2699 8.81316 5.26993 8.81319C5.26997 8.81323 5.27 8.81326 5.27003 8.8133C5.27006 8.81333 5.27009 8.81337 5.27013 8.8134C5.27016 8.81343 5.27019 8.81347 5.27022 8.8135C5.27025 8.81354 5.27029 8.81357 5.27032 8.8136C5.27035 8.81364 5.27038 8.81367 5.27041 8.81371C5.27045 8.81374 5.27048 8.81378 5.27051 8.81381C5.27054 8.81384 5.27057 8.81388 5.27061 8.81391C5.27064 8.81395 5.27067 8.81398 5.2707 8.81402C5.27073 8.81405 5.27076 8.81408 5.2708 8.81412C5.27083 8.81415 5.27086 8.81419 5.27089 8.81422C5.27092 8.81425 5.27096 8.81429 5.27099 8.81432C5.27102 8.81436 5.27105 8.81439 5.27108 8.81442C5.27111 8.81446 5.27115 8.81449 5.27118 8.81453C5.27121 8.81456 5.27124 8.81459 5.27127 8.81463C5.2713 8.81466 5.27134 8.8147 5.27137 8.81473C5.2714 8.81476 5.27143 8.8148 5.27146 8.81483C5.27149 8.81486 5.27153 8.8149 5.27156 8.81493C5.27159 8.81497 5.27162 8.815 5.27165 8.81503C5.27168 8.81507 5.27171 8.8151 5.27175 8.81514C5.27178 8.81517 5.27181 8.8152 5.27184 8.81524C5.27187 8.81527 5.2719 8.8153 5.27194 8.81534C5.27197 8.81537 5.272 8.8154 5.27203 8.81544C5.27206 8.81547 5.27209 8.81551 5.27212 8.81554C5.27216 8.81557 5.27219 8.81561 5.27222 8.81564C5.27225 8.81567 5.27228 8.81571 5.27231 8.81574C5.27234 8.81578 5.27237 8.81581 5.27241 8.81584C5.27244 8.81588 5.27247 8.81591 5.2725 8.81594C5.27253 8.81598 5.27256 8.81601 5.27259 8.81604C5.27262 8.81608 5.27266 8.81611 5.27269 8.81614C5.27272 8.81618 5.27275 8.81621 5.27278 8.81624C5.27281 8.81628 5.27284 8.81631 5.27287 8.81634C5.27291 8.81638 5.27294 8.81641 5.27297 8.81644C5.273 8.81648 5.27303 8.81651 5.27306 8.81654C5.27309 8.81658 5.27312 8.81661 5.27315 8.81664C5.27319 8.81668 5.27322 8.81671 5.27325 8.81674C5.27328 8.81678 5.27331 8.81681 5.27334 8.81684C5.27337 8.81688 5.2734 8.81691 5.27343 8.81694C5.27347 8.81698 5.2735 8.81701 5.27353 8.81704C5.27356 8.81708 5.27359 8.81711 5.27362 8.81714C5.27365 8.81718 5.27368 8.81721 5.27371 8.81724C5.27374 8.81727 5.27377 8.81731 5.27381 8.81734C5.27384 8.81737 5.27387 8.81741 5.2739 8.81744C5.27393 8.81747 5.27396 8.81751 5.27399 8.81754C5.27402 8.81757 5.27405 8.81761 5.27408 8.81764C5.27411 8.81767 5.27414 8.8177 5.27418 8.81774C5.27421 8.81777 5.27424 8.8178 5.27427 8.81784C5.2743 8.81787 5.27433 8.8179 5.27436 8.81794C5.27439 8.81797 5.27442 8.818 5.27445 8.81803C5.27448 8.81807 5.27451 8.8181 5.27454 8.81813C5.27457 8.81817 5.27461 8.8182 5.27464 8.81823C5.27467 8.81826 5.2747 8.8183 5.27473 8.81833C5.27476 8.81836 5.27479 8.81839 5.27482 8.81843C5.27485 8.81846 5.27488 8.81849 5.27491 8.81853C5.27494 8.81856 5.27497 8.81859 5.275 8.81862C5.27503 8.81866 5.27506 8.81869 5.27509 8.81872C5.27512 8.81875 5.27516 8.81879 5.27519 8.81882C5.27522 8.81885 5.27525 8.81889 5.27528 8.81892C5.27531 8.81895 5.27534 8.81898 5.27537 8.81902C5.2754 8.81905 5.27543 8.81908 5.27546 8.81911C5.27549 8.81915 5.27552 8.81918 5.27555 8.81921C5.27558 8.81924 5.27561 8.81928 5.27564 8.81931C5.27567 8.81934 5.2757 8.81937 5.27573 8.81941C5.27576 8.81944 5.27579 8.81947 5.27582 8.8195C5.27585 8.81954 5.27588 8.81957 5.27591 8.8196C5.27594 8.81963 5.27597 8.81966 5.276 8.8197C5.27603 8.81973 5.27606 8.81976 5.27609 8.81979C5.27613 8.81983 5.27616 8.81986 5.27619 8.81989C5.27622 8.81992 5.27625 8.81996 5.27628 8.81999C5.27631 8.82002 5.27634 8.82005 5.27637 8.82008C5.2764 8.82012 5.27643 8.82015 5.27646 8.82018C5.27649 8.82021 5.27652 8.82025 5.27655 8.82028C5.27658 8.82031 5.27661 8.82034 5.27664 8.82037C5.27667 8.82041 5.2767 8.82044 5.27673 8.82047C5.27676 8.8205 5.27679 8.82054 5.27682 8.82057C5.27685 8.8206 5.27688 8.82063 5.27691 8.82066C5.27694 8.8207 5.27697 8.82073 5.277 8.82076C5.27703 8.82079 5.27706 8.82082 5.27709 8.82086C5.27712 8.82089 5.27715 8.82092 5.27717 8.82095C5.2772 8.82098 5.27723 8.82102 5.27726 8.82105C5.27729 8.82108 5.27732 8.82111 5.27735 8.82114C5.27738 8.82117 5.27741 8.82121 5.27744 8.82124C5.27747 8.82127 5.2775 8.8213 5.27753 8.82133C5.27756 8.82137 5.27759 8.8214 5.27762 8.82143C5.27765 8.82146 5.27768 8.82149 5.27771 8.82153C5.27774 8.82156 5.27777 8.82159 5.2778 8.82162C5.27783 8.82165 5.27786 8.82168 5.27789 8.82172C5.27792 8.82175 5.27795 8.82178 5.27798 8.82181C5.27801 8.82184 5.27804 8.82187 5.27807 8.8219C5.27809 8.82194 5.27812 8.82197 5.27815 8.822C5.27818 8.82203 5.27821 8.82206 5.27824 8.8221C5.27827 8.82213 5.2783 8.82216 5.27833 8.82219L11.1268 3.36365ZM9.2794 9.86841C8.60202 10.0685 8.12451 9.94607 8.06733 9.93087L10.122 2.19923C9.32119 1.98641 8.21124 1.84213 7.01263 2.19627L9.2794 9.86841ZM7.69973 9.81394C7.72725 9.82418 7.73006 9.82784 7.71586 9.81933C7.70103 9.81043 7.67663 9.79362 7.64872 9.76807C7.62072 9.74243 7.59852 9.71655 7.58314 9.69527C7.56813 9.67451 7.5658 9.66673 7.57183 9.67968L14.8232 6.30078C13.9397 4.40453 12.4248 3.03623 10.4896 2.31617L7.69973 9.81394ZM7.57164 9.67926C7.58137 9.70017 7.57874 9.69911 7.5733 9.67763C7.56768 9.65542 7.56174 9.62189 7.55996 9.58094C7.55817 9.53995 7.56111 9.50463 7.56525 9.47926C7.56927 9.45461 7.57271 9.44971 7.56638 9.46697L15.0775 12.2208C15.7999 10.2502 15.7061 8.19596 14.8234 6.3012L7.57164 9.67926ZM7.55651 9.4942C7.55013 9.51198 7.55052 9.5062 7.56326 9.48463C7.57637 9.46243 7.597 9.43294 7.6253 9.40183C7.65359 9.37073 7.68072 9.34771 7.70092 9.33305C7.72052 9.31882 7.72529 9.31846 7.70694 9.32708L11.11 16.5672C13.0001 15.6788 14.3818 14.1619 15.0873 12.1935L7.55651 9.4942ZM7.71943 9.32124C7.69647 9.33194 7.69501 9.33027 7.71358 9.32553C7.73285 9.32061 7.76334 9.31504 7.80131 9.31323C7.83934 9.31142 7.87213 9.31398 7.89553 9.31765C7.91826 9.32122 7.92192 9.32421 7.90409 9.31782L5.20475 16.8487C7.17129 17.5535 9.21427 17.4503 11.0975 16.573L7.71943 9.32124ZM7.93132 9.32769C7.91086 9.32019 7.91364 9.31926 7.93207 9.33028C7.95111 9.34165 7.9776 9.36026 8.00602 9.38628C8.03444 9.4123 8.05539 9.43713 8.06852 9.45527C8.08125 9.47283 8.08072 9.47593 8.07161 9.45654L0.831488 12.8596C1.7168 14.7431 3.22411 16.1226 5.17752 16.8388L7.93132 9.32769ZM8.07161 9.45654C8.09075 9.49727 8.10675 9.54394 8.11696 9.59128C8.12704 9.63805 8.12805 9.66955 8.128 9.67887C8.12792 9.69527 8.12531 9.5897 8.22006 9.33357L0.716963 6.55804C-0.00199266 8.50159 -0.172515 10.7235 0.831488 12.8596L8.07161 9.45654ZM8.14525 9.52112C8.25358 9.26828 8.36717 9.11202 8.46691 9.00731L2.67435 3.48949C1.86569 4.33842 1.24453 5.31376 0.791775 6.37049L8.14525 9.52112ZM8.18015 9.27997C8.61741 8.90358 9.56778 8.43042 11.6606 8.50259L11.9363 0.507338C8.64175 0.393731 5.44022 1.08286 2.96111 3.21683L8.18015 9.27997ZM11.6606 8.50259C13.6775 8.57214 14.5274 9.01014 14.8182 9.24389L19.8298 3.00819C17.641 1.24904 14.8071 0.606333 11.9363 0.507338L11.6606 8.50259ZM14.8182 9.24389C14.9221 9.32736 14.9601 9.38833 14.9912 9.46448C15.0313 9.56267 15.1058 9.81216 15.0888 10.3054L23.0841 10.5811C23.1834 7.70108 22.2395 4.94481 19.8298 3.00819L14.8182 9.24389ZM15.1071 10.0368C15.046 10.6359 14.8763 10.8442 14.7648 10.9539C14.6045 11.1115 14.1611 11.4341 13.0725 11.6548L14.6623 19.4953C16.7699 19.0679 18.7944 18.2112 20.3737 16.6582C22.0019 15.0573 22.8437 13.0237 23.0657 10.8497L15.1071 10.0368ZM13.1703 11.6362C11.0847 12.0054 8.80673 13.2554 7.9973 15.9863L15.6675 18.2597C15.5556 18.6372 15.3025 19.0237 14.9486 19.2929C14.645 19.5238 14.4432 19.5353 14.5645 19.5138L13.1703 11.6362ZM11.9702 13.1254L11.291 13.102L11.0153 21.0972L11.6945 21.1206L11.9702 13.1254ZM11.3731 21.9421C11.2129 21.9365 10.9886 21.898 10.7456 21.787C10.503 21.6763 10.3303 21.5338 10.226 21.4221L16.0744 15.9635C14.9101 14.716 13.3634 14.0059 11.6488 13.9468L11.3731 21.9421ZM10.226 21.4221C10.1216 21.3103 9.9914 21.1281 9.89763 20.8785C9.80369 20.6284 9.78067 20.402 9.7862 20.2418L17.7814 20.5175C17.8406 18.803 17.2387 17.211 16.0744 15.9635L10.226 21.4221ZM9.7862 20.2418C9.79136 20.092 9.82743 19.8734 9.9368 19.6322C10.0464 19.3905 10.1893 19.2151 10.3058 19.1064L15.7643 24.9549C17.0223 23.7808 17.7225 22.2256 17.7814 20.5175L9.7862 20.2418ZM10.3058 19.1064C10.4176 19.0021 10.5997 18.8719 10.8494 18.7781C11.0994 18.6842 11.3259 18.6611 11.486 18.6667L11.2103 26.6619C12.9249 26.721 14.5169 26.1192 15.7643 24.9549L10.3058 19.1064ZM11.486 18.6667C11.6359 18.6718 11.8545 18.7079 12.0957 18.8173C12.3373 18.9269 12.5127 19.0698 12.6214 19.1863L6.77299 24.6448C7.94708 25.9028 9.50225 26.603 11.2103 26.6619L11.486 18.6667ZM12.6214 19.1863C12.7301 19.3027 12.8606 19.4876 12.9533 19.7362C13.0458 19.9843 13.0668 20.2049 13.0616 20.3548L5.06635 20.0791C5.00745 21.7872 5.5989 23.3869 6.77299 24.6448L12.6214 19.1863ZM13.0616 20.3548C13.0561 20.5149 13.0175 20.7392 12.9066 20.9822C12.7958 21.2248 12.6534 21.3976 12.5416 21.5019L7.08304 15.6535C5.83555 16.8178 5.12547 18.3645 5.06635 20.0791L13.0616 20.3548ZM12.5416 21.5019C12.4251 21.6106 12.2403 21.7411 11.9916 21.8338C11.7435 21.9263 11.5229 21.9472 11.3731 21.9421L11.6488 13.9468C9.94071 13.8879 8.34099 14.4794 7.08304 15.6535L12.5416 21.5019Z" fill="#FF5151" mask="url(#path-1-outside-1_3475_693)"/>
</svg>
