<svg width="20" height="31" viewBox="0 0 20 31" fill="none" xmlns="http://www.w3.org/2000/svg">
<mask id="path-1-outside-1_3475_691" maskUnits="userSpaceOnUse" x="-1.36148" y="-1.37986" width="24.0293" height="33.4315" fill="black">
<rect fill="white" x="-1.36148" y="-1.37986" width="24.0293" height="33.4315"/>
<path d="M8.43455 5.05811C8.98065 4.91856 9.5412 4.82548 10.1162 4.77886C10.689 4.7164 11.2399 4.72961 11.7689 4.81851C12.3138 4.90523 12.8209 5.06981 13.2902 5.31225C13.7754 5.55251 14.2023 5.89767 14.5709 6.34773C14.9215 6.78411 15.1892 7.26416 15.3742 7.78788C15.5569 8.29575 15.6774 8.82025 15.7355 9.36137C15.8094 9.90032 15.8099 10.4332 15.7369 10.96C15.6775 11.4688 15.5651 11.9445 15.3998 12.3871C15.2092 12.8816 14.9419 13.3463 14.5979 13.7811C14.2516 14.2001 13.9065 14.627 13.5624 15.0618C13.2342 15.4944 12.9477 15.9375 12.7031 16.391C12.4585 16.8444 12.3483 17.336 12.3726 17.8656C12.408 18.0061 12.4776 18.1015 12.5814 18.1519C12.6852 18.2022 12.7915 18.2119 12.9003 18.1808C13.0069 18.1338 13.1081 18.0473 13.2038 17.9211C13.2974 17.7791 13.3617 17.6006 13.3969 17.3859L15.1564 17.1444C15.249 17.5839 15.2738 18.0004 15.2309 18.3939C15.1859 18.7715 15.0687 19.0944 14.8794 19.3627C14.6513 19.7008 14.368 19.99 14.0295 20.2303C13.691 20.4705 13.3222 20.6665 12.9231 20.8182C12.5377 20.9518 12.1458 21.0379 11.7473 21.0764C11.3489 21.115 10.9756 21.1016 10.6275 21.0363C9.99467 20.8971 9.45184 20.6486 8.999 20.2908C8.54615 19.9331 8.21498 19.4617 8.0055 18.8768C7.76276 18.1672 7.67932 17.5004 7.75516 16.8762C7.831 16.2521 7.99263 15.6647 8.24004 15.1139C8.50113 14.5452 8.80511 13.9947 9.15198 13.4626C9.5147 12.9283 9.84572 12.3984 10.145 11.8728C10.458 11.3292 10.7054 10.7785 10.8873 10.2206C11.0691 9.66265 11.1165 9.06667 11.0295 8.43262C10.976 8.27846 10.8761 8.13874 10.7297 8.01349C10.5992 7.88605 10.4424 7.8026 10.2593 7.76312C10.0762 7.72365 9.87592 7.73499 9.65835 7.79715C9.44078 7.85931 9.22507 7.99389 9.01123 8.20089C9.27729 8.37432 9.47745 8.59718 9.61172 8.86945C9.75966 9.1237 9.83736 9.39566 9.84482 9.68533C9.86812 9.97283 9.82803 10.269 9.72452 10.5739C9.63687 10.8767 9.49623 11.1463 9.30259 11.3828C9.19318 11.527 9.04197 11.6608 8.84896 11.7842C8.67179 11.9054 8.47551 12.0051 8.26012 12.0831C8.06058 12.1589 7.84985 12.2121 7.62793 12.2425C7.40383 12.2571 7.19015 12.2299 6.98688 12.1609C6.46068 11.9747 6.01296 11.7132 5.64372 11.3763C5.2723 11.0235 5.03127 10.6205 4.92062 10.1674C4.72762 9.46709 4.72809 8.7645 4.92204 8.05959C5.12967 7.33664 5.48696 6.76273 5.99389 6.33786C6.15303 6.20296 6.30533 6.07709 6.45079 5.96022C6.6121 5.84118 6.78243 5.72898 6.96177 5.62362C7.14111 5.51826 7.34531 5.41756 7.57438 5.32152C7.8193 5.2233 8.10602 5.1355 8.43455 5.05811ZM11.4312 21.7739C11.7641 21.7282 12.0819 21.7492 12.3847 21.8368C12.6874 21.9245 12.957 22.0651 13.1935 22.2588C13.4459 22.4502 13.6562 22.6879 13.8243 22.9716C13.9903 23.2396 14.0961 23.54 14.1418 23.8728C14.1875 24.2057 14.1676 24.5314 14.0821 24.85C13.9945 25.1528 13.8549 25.4303 13.6634 25.6827C13.4857 25.917 13.2628 26.1172 12.9949 26.2832C12.727 26.4491 12.4266 26.555 12.0937 26.6006C11.7608 26.6463 11.4351 26.6264 11.1165 26.541C10.8138 26.4533 10.5373 26.3217 10.2871 26.1461C10.0506 25.9524 9.84932 25.7217 9.68335 25.4537C9.51521 25.17 9.40829 24.8616 9.3626 24.5288C9.31692 24.1959 9.3379 23.8781 9.42555 23.5753C9.51103 23.2568 9.64157 22.9724 9.81718 22.7222C10.0086 22.4698 10.2383 22.2606 10.5063 22.0946C10.79 21.9265 11.0984 21.8196 11.4312 21.7739Z"/>
</mask>
<path d="M8.43455 5.05811C8.98065 4.91856 9.5412 4.82548 10.1162 4.77886C10.689 4.7164 11.2399 4.72961 11.7689 4.81851C12.3138 4.90523 12.8209 5.06981 13.2902 5.31225C13.7754 5.55251 14.2023 5.89767 14.5709 6.34773C14.9215 6.78411 15.1892 7.26416 15.3742 7.78788C15.5569 8.29575 15.6774 8.82025 15.7355 9.36137C15.8094 9.90032 15.8099 10.4332 15.7369 10.96C15.6775 11.4688 15.5651 11.9445 15.3998 12.3871C15.2092 12.8816 14.9419 13.3463 14.5979 13.7811C14.2516 14.2001 13.9065 14.627 13.5624 15.0618C13.2342 15.4944 12.9477 15.9375 12.7031 16.391C12.4585 16.8444 12.3483 17.336 12.3726 17.8656C12.408 18.0061 12.4776 18.1015 12.5814 18.1519C12.6852 18.2022 12.7915 18.2119 12.9003 18.1808C13.0069 18.1338 13.1081 18.0473 13.2038 17.9211C13.2974 17.7791 13.3617 17.6006 13.3969 17.3859L15.1564 17.1444C15.249 17.5839 15.2738 18.0004 15.2309 18.3939C15.1859 18.7715 15.0687 19.0944 14.8794 19.3627C14.6513 19.7008 14.368 19.99 14.0295 20.2303C13.691 20.4705 13.3222 20.6665 12.9231 20.8182C12.5377 20.9518 12.1458 21.0379 11.7473 21.0764C11.3489 21.115 10.9756 21.1016 10.6275 21.0363C9.99467 20.8971 9.45184 20.6486 8.999 20.2908C8.54615 19.9331 8.21498 19.4617 8.0055 18.8768C7.76276 18.1672 7.67932 17.5004 7.75516 16.8762C7.831 16.2521 7.99263 15.6647 8.24004 15.1139C8.50113 14.5452 8.80511 13.9947 9.15198 13.4626C9.5147 12.9283 9.84572 12.3984 10.145 11.8728C10.458 11.3292 10.7054 10.7785 10.8873 10.2206C11.0691 9.66265 11.1165 9.06667 11.0295 8.43262C10.976 8.27846 10.8761 8.13874 10.7297 8.01349C10.5992 7.88605 10.4424 7.8026 10.2593 7.76312C10.0762 7.72365 9.87592 7.73499 9.65835 7.79715C9.44078 7.85931 9.22507 7.99389 9.01123 8.20089C9.27729 8.37432 9.47745 8.59718 9.61172 8.86945C9.75966 9.1237 9.83736 9.39566 9.84482 9.68533C9.86812 9.97283 9.82803 10.269 9.72452 10.5739C9.63687 10.8767 9.49623 11.1463 9.30259 11.3828C9.19318 11.527 9.04197 11.6608 8.84896 11.7842C8.67179 11.9054 8.47551 12.0051 8.26012 12.0831C8.06058 12.1589 7.84985 12.2121 7.62793 12.2425C7.40383 12.2571 7.19015 12.2299 6.98688 12.1609C6.46068 11.9747 6.01296 11.7132 5.64372 11.3763C5.2723 11.0235 5.03127 10.6205 4.92062 10.1674C4.72762 9.46709 4.72809 8.7645 4.92204 8.05959C5.12967 7.33664 5.48696 6.76273 5.99389 6.33786C6.15303 6.20296 6.30533 6.07709 6.45079 5.96022C6.6121 5.84118 6.78243 5.72898 6.96177 5.62362C7.14111 5.51826 7.34531 5.41756 7.57438 5.32152C7.8193 5.2233 8.10602 5.1355 8.43455 5.05811ZM11.4312 21.7739C11.7641 21.7282 12.0819 21.7492 12.3847 21.8368C12.6874 21.9245 12.957 22.0651 13.1935 22.2588C13.4459 22.4502 13.6562 22.6879 13.8243 22.9716C13.9903 23.2396 14.0961 23.54 14.1418 23.8728C14.1875 24.2057 14.1676 24.5314 14.0821 24.85C13.9945 25.1528 13.8549 25.4303 13.6634 25.6827C13.4857 25.917 13.2628 26.1172 12.9949 26.2832C12.727 26.4491 12.4266 26.555 12.0937 26.6006C11.7608 26.6463 11.4351 26.6264 11.1165 26.541C10.8138 26.4533 10.5373 26.3217 10.2871 26.1461C10.0506 25.9524 9.84932 25.7217 9.68335 25.4537C9.51521 25.17 9.40829 24.8616 9.3626 24.5288C9.31692 24.1959 9.3379 23.8781 9.42555 23.5753C9.51103 23.2568 9.64157 22.9724 9.81718 22.7222C10.0086 22.4698 10.2383 22.2606 10.5063 22.0946C10.79 21.9265 11.0984 21.8196 11.4312 21.7739Z" fill="white"/>
<path d="M8.43455 5.05811L9.35171 8.95155L9.38838 8.94291L9.42488 8.93358L8.43455 5.05811ZM10.1162 4.77886L10.4394 8.76578L10.4947 8.7613L10.5498 8.75529L10.1162 4.77886ZM11.7689 4.81851L11.106 8.7632L11.1231 8.76606L11.1402 8.76878L11.7689 4.81851ZM13.2902 5.31225L11.4544 8.86609L11.4846 8.88171L11.5151 8.8968L13.2902 5.31225ZM14.5709 6.34773L17.6892 3.84248L17.6774 3.82777L17.6654 3.81318L14.5709 6.34773ZM15.3742 7.78788L11.6024 9.11971L11.6064 9.13098L11.6104 9.14223L15.3742 7.78788ZM15.7355 9.36137L11.7583 9.78851L11.7646 9.84699L11.7726 9.90525L15.7355 9.36137ZM15.7369 10.96L11.7748 10.4107L11.7688 10.4535L11.7638 10.4964L15.7369 10.96ZM15.3998 12.3871L19.1323 13.8253L19.1396 13.8062L19.1468 13.787L15.3998 12.3871ZM14.5979 13.7811L17.6812 16.3292L17.7083 16.2965L17.7346 16.2632L14.5979 13.7811ZM13.5624 15.0618L10.4256 12.5797L10.4003 12.6117L10.3756 12.6442L13.5624 15.0618ZM12.3726 17.8656L8.37675 18.0485L8.39522 18.4521L8.49402 18.8438L12.3726 17.8656ZM12.5814 18.1519L14.3271 14.5529L14.3271 14.5529L12.5814 18.1519ZM12.9003 18.1808L13.9992 22.0269L14.2619 21.9518L14.512 21.8417L12.9003 18.1808ZM13.2038 17.9211L16.3906 20.3387L16.4711 20.2326L16.5443 20.1213L13.2038 17.9211ZM13.3969 17.3859L12.853 13.423L9.92611 13.8247L9.44929 16.7403L13.3969 17.3859ZM15.1564 17.1444L19.0704 16.3196L18.3024 12.6751L14.6125 13.1815L15.1564 17.1444ZM15.2309 18.3939L19.2028 18.8679L19.2052 18.8476L19.2074 18.8273L15.2309 18.3939ZM14.8794 19.3627L11.6112 17.0563L11.587 17.0907L11.5635 17.1256L14.8794 19.3627ZM14.0295 20.2303L11.7142 16.9685L11.7142 16.9685L14.0295 20.2303ZM12.9231 20.8182L14.2336 24.5974L14.2892 24.5781L14.3442 24.5572L12.9231 20.8182ZM11.7473 21.0764L11.3623 17.095L11.7473 21.0764ZM10.6275 21.0363L9.76785 24.9429L9.82888 24.9563L9.89029 24.9678L10.6275 21.0363ZM8.999 20.2908L11.4786 17.1521L11.4786 17.1521L8.999 20.2908ZM8.0055 18.8768L4.22082 20.1715L4.23007 20.1985L4.2397 20.2254L8.0055 18.8768ZM7.75516 16.8762L11.7259 17.3588L11.7259 17.3588L7.75516 16.8762ZM8.24004 15.114L4.60474 13.4452L4.59796 13.46L4.5913 13.4749L8.24004 15.114ZM9.15198 13.4626L5.84258 11.2159L5.82154 11.2469L5.80109 11.2782L9.15198 13.4626ZM10.145 11.8728L6.67857 9.87694L6.67385 9.88512L6.66918 9.89333L10.145 11.8728ZM10.8873 10.2206L14.6904 11.4601L14.6904 11.4601L10.8873 10.2206ZM11.0295 8.43262L14.9923 7.88874L14.9385 7.49634L14.8087 7.12212L11.0295 8.43262ZM10.7297 8.01349L7.93554 10.8758L8.02945 10.9674L8.12918 11.0528L10.7297 8.01349ZM10.2593 7.76312L11.1024 3.85299L11.1024 3.85299L10.2593 7.76312ZM9.65835 7.79715L8.55951 3.95104L8.55949 3.95105L9.65835 7.79715ZM9.01123 8.20089L6.22916 5.32685L2.62687 8.81388L6.82685 11.5518L9.01123 8.20089ZM9.61172 8.86945L6.02421 10.6386L6.08515 10.7621L6.15444 10.8812L9.61172 8.86945ZM9.84482 9.68533L5.84614 9.78827L5.84898 9.89857L5.8579 10.0086L9.84482 9.68533ZM9.72452 10.5739L5.93681 9.28816L5.9076 9.3742L5.88233 9.46148L9.72452 10.5739ZM9.30259 11.3828L6.20751 8.84896L6.1606 8.90626L6.11584 8.96525L9.30259 11.3828ZM8.84896 11.7842L6.69447 8.41404L6.64183 8.4477L6.59026 8.48298L8.84896 11.7842ZM8.26012 12.0831L6.89797 8.32215L6.86844 8.33284L6.83908 8.344L8.26012 12.0831ZM7.62793 12.2425L7.88809 16.234L8.03046 16.2248L8.17181 16.2054L7.62793 12.2425ZM6.98688 12.1609L5.65265 15.9318L5.67682 15.9404L5.70109 15.9486L6.98688 12.1609ZM5.64372 11.3763L2.88901 14.2765L2.91801 14.3041L2.94755 14.331L5.64372 11.3763ZM4.92062 10.1674L8.80648 9.21858L8.79249 9.16132L8.77683 9.1045L4.92062 10.1674ZM4.92204 8.05959L1.07746 6.95542L1.07129 6.9769L1.06536 6.99845L4.92204 8.05959ZM5.99389 6.33786L8.56328 9.40351L8.57182 9.39636L8.58031 9.38916L5.99389 6.33786ZM6.45079 5.96022L4.0757 2.74169L4.0096 2.79047L3.94555 2.84193L6.45079 5.96022ZM7.57438 5.32152L6.0856 1.6089L6.0566 1.62053L6.02778 1.63261L7.57438 5.32152ZM13.1935 22.2588L10.6597 25.3539L10.717 25.4008L10.776 25.4455L13.1935 22.2588ZM13.8243 22.9716L10.3831 25.0107L10.4032 25.0446L10.4239 25.0781L13.8243 22.9716ZM14.0821 24.85L17.9243 25.9625L17.9353 25.9246L17.9455 25.8866L14.0821 24.85ZM13.6634 25.6827L10.4767 23.2651L10.4767 23.2651L13.6634 25.6827ZM12.9949 26.2832L15.1014 29.6836L12.9949 26.2832ZM11.1165 26.541L10.004 30.3832L10.0419 30.3941L10.0799 30.4043L11.1165 26.541ZM10.2871 26.1461L7.75323 29.2411L7.86786 29.335L7.98912 29.4201L10.2871 26.1461ZM9.68335 25.4537L6.24211 27.4928L6.26219 27.5267L6.28294 27.5602L9.68335 25.4537ZM9.42555 23.5753L13.2677 24.6878L13.2787 24.6499L13.2889 24.6119L9.42555 23.5753ZM9.81718 22.7222L6.63044 20.3046L6.58569 20.3636L6.54315 20.4242L9.81718 22.7222ZM10.5063 22.0946L8.46719 18.6534L8.43328 18.6735L8.39979 18.6942L10.5063 22.0946ZM9.42488 8.93358C9.74708 8.85125 10.0843 8.79458 10.4394 8.76578L9.79297 0.791946C8.99814 0.856384 8.21422 0.985881 7.44423 1.18264L9.42488 8.93358ZM10.5498 8.75529C10.7844 8.72971 10.9652 8.73953 11.106 8.7632L12.4318 0.873819C11.5147 0.719696 10.5936 0.703084 9.68256 0.802439L10.5498 8.75529ZM11.1402 8.76878C11.283 8.79151 11.3803 8.82783 11.4544 8.86609L15.126 1.7584C14.2614 1.31179 13.3446 1.01895 12.3977 0.868234L11.1402 8.76878ZM11.5151 8.8968C11.5038 8.89122 11.4928 8.88494 11.4825 8.87835C11.4723 8.87178 11.4645 8.86596 11.4593 8.8618C11.4482 8.8528 11.4548 8.85599 11.4764 8.88228L17.6654 3.81318C16.9638 2.95662 16.0971 2.23864 15.0653 1.72769L11.5151 8.8968ZM11.4526 8.85297C11.523 8.94066 11.5688 9.02456 11.6024 9.11971L19.1459 6.45605C18.8097 5.50377 18.3199 4.62756 17.6892 3.84248L11.4526 8.85297ZM11.6104 9.14223C11.6845 9.34812 11.7339 9.56119 11.7583 9.78851L19.7126 8.93422C19.6208 8.0793 19.4293 7.24338 19.1379 6.43353L11.6104 9.14223ZM11.7726 9.90525C11.798 10.0898 11.7964 10.2548 11.7748 10.4107L19.699 11.5094C19.8234 10.6116 19.8209 9.71082 19.6983 8.81749L11.7726 9.90525ZM11.7638 10.4964C11.7387 10.7118 11.6963 10.8706 11.6527 10.9872L19.1468 13.787C19.434 13.0184 19.6163 12.2258 19.7099 11.4236L11.7638 10.4964ZM11.6672 10.949C11.6282 11.0503 11.5668 11.1654 11.4611 11.299L17.7346 16.2632C18.3171 15.5271 18.7903 14.7129 19.1323 13.8253L11.6672 10.949ZM11.5145 11.2329C11.1499 11.6742 10.7869 12.1231 10.4256 12.5797L16.6991 17.5439C17.026 17.1308 17.3533 16.726 17.6812 16.3292L11.5145 11.2329ZM10.3756 12.6442C9.92965 13.2321 9.5301 13.8478 9.18266 14.4919L16.2236 18.29C16.3654 18.0271 16.5387 17.7568 16.7491 17.4794L10.3756 12.6442ZM9.18266 14.4919C8.58354 15.6026 8.32038 16.8167 8.37675 18.0485L16.3684 17.6827C16.3717 17.7544 16.3668 17.8558 16.3402 17.9747C16.3134 18.0943 16.2711 18.2019 16.2236 18.29L9.18266 14.4919ZM8.49402 18.8438C8.7382 19.812 9.40531 21.057 10.8358 21.7509L14.3271 14.5529C14.879 14.8206 15.3409 15.2165 15.6827 15.6849C16.01 16.1335 16.171 16.5699 16.2511 16.8874L8.49402 18.8438ZM10.8358 21.7508C11.8057 22.2213 12.9236 22.3342 13.9992 22.0269L11.8015 14.3347C12.1924 14.223 12.6334 14.1709 13.1001 14.2132C13.5656 14.2554 13.9798 14.3844 14.3271 14.5529L10.8358 21.7508ZM14.512 21.8417C15.4246 21.44 16.0255 20.8199 16.3906 20.3387L10.0171 15.5035C10.1907 15.2746 10.5892 14.8277 11.2887 14.5198L14.512 21.8417ZM16.5443 20.1213C17.0209 19.3977 17.2429 18.652 17.3444 18.0315L9.44929 16.7403C9.48053 16.5493 9.57385 16.1604 9.86333 15.7209L16.5443 20.1213ZM13.9407 21.3487L15.7002 21.1072L14.6125 13.1815L12.853 13.423L13.9407 21.3487ZM11.2423 17.9692C11.251 18.0103 11.2518 18.028 11.2516 18.0247C11.2513 18.021 11.2504 17.9984 11.2545 17.9604L19.2074 18.8273C19.3018 17.9614 19.2386 17.1177 19.0704 16.3196L11.2423 17.9692ZM11.2591 17.9198C11.2802 17.7429 11.3607 17.4114 11.6112 17.0563L18.1476 21.669C18.7767 20.7775 19.0915 19.8 19.2028 18.8679L11.2591 17.9198ZM11.5635 17.1256C11.5839 17.0953 11.6092 17.0638 11.6384 17.034C11.6675 17.0044 11.6942 16.9826 11.7142 16.9685L16.3448 23.4921C17.0687 22.9782 17.6932 22.344 18.1953 21.5997L11.5635 17.1256ZM11.7142 16.9685C11.6602 17.0068 11.5932 17.0445 11.5021 17.0791L14.3442 24.5572C15.0513 24.2885 15.7218 23.9343 16.3448 23.4921L11.7142 16.9685ZM11.6126 17.0389C11.5209 17.0707 11.4394 17.0876 11.3623 17.095L12.1324 25.0579C12.8522 24.9882 13.5546 24.8329 14.2336 24.5974L11.6126 17.0389ZM11.3623 17.095C11.3262 17.0985 11.3101 17.0978 11.3117 17.0979C11.3136 17.0979 11.3323 17.0988 11.3647 17.1048L9.89029 24.9678C10.6528 25.1108 11.4073 25.128 12.1324 25.0579L11.3623 17.095ZM11.4871 17.1298C11.4556 17.1229 11.4346 17.1166 11.4226 17.1127C11.4108 17.1088 11.4073 17.107 11.4107 17.1085C11.4142 17.1101 11.423 17.1144 11.4357 17.1221C11.4485 17.1299 11.4632 17.1399 11.4786 17.1521L6.51941 23.4296C7.50264 24.2063 8.61704 24.6896 9.76785 24.9429L11.4871 17.1298ZM11.4786 17.1521C11.5552 17.2127 11.6266 17.2879 11.6839 17.3695C11.74 17.4493 11.7646 17.5094 11.7713 17.5282L4.2397 20.2254C4.68165 21.4595 5.43343 22.5717 6.51941 23.4296L11.4786 17.1521ZM11.7902 17.5821C11.7474 17.4569 11.734 17.3804 11.7299 17.3478C11.7261 17.3172 11.7302 17.324 11.7259 17.3588L3.78437 16.3937C3.62304 17.7213 3.82008 19 4.22082 20.1715L11.7902 17.5821ZM11.7259 17.3588C11.7553 17.1176 11.813 16.9217 11.8888 16.753L4.5913 13.4749C4.17225 14.4077 3.90675 15.3867 3.78437 16.3937L11.7259 17.3588ZM11.8753 16.7827C12.0532 16.3952 12.2617 16.0169 12.5029 15.647L5.80109 11.2782C5.34848 11.9725 4.94905 12.6952 4.60474 13.4452L11.8753 16.7827ZM12.4614 15.7094C12.8791 15.094 13.2663 14.475 13.6209 13.8523L6.66918 9.89333C6.42517 10.3218 6.15026 10.7627 5.84258 11.2159L12.4614 15.7094ZM13.6115 13.8687C14.0531 13.1017 14.4171 12.2985 14.6904 11.4601L7.08416 8.98106C6.99375 9.25848 6.86292 9.55675 6.67857 9.87694L13.6115 13.8687ZM14.6904 11.4601C15.0761 10.2767 15.154 9.06652 14.9923 7.88874L7.06663 8.9765C7.07025 9.00282 7.07132 9.02033 7.07162 9.02978C7.07192 9.03914 7.07151 9.04157 7.07179 9.03798C7.07208 9.03432 7.07294 9.02652 7.07511 9.01557C7.0773 9.00458 7.08034 8.9928 7.08416 8.98107L14.6904 11.4601ZM14.8087 7.12212C14.4837 6.18494 13.9178 5.47692 13.3302 4.97421L8.12918 11.0528C7.83444 10.8006 7.46832 10.372 7.25026 9.74312L14.8087 7.12212ZM13.5239 5.15122C12.8397 4.48329 12.0009 4.04673 11.1024 3.85299L9.41616 11.6733C8.88385 11.5585 8.35866 11.2888 7.93554 10.8758L13.5239 5.15122ZM11.1024 3.85299C10.1557 3.64886 9.27863 3.74559 8.55951 3.95104L10.7572 11.6433C10.4732 11.7244 9.99672 11.7984 9.41616 11.6733L11.1024 3.85299ZM8.55949 3.95105C7.54151 4.24189 6.77178 4.8016 6.22916 5.32685L11.7933 11.0749C11.6784 11.1862 11.34 11.4767 10.7572 11.6433L8.55949 3.95105ZM6.82685 11.5518C6.52075 11.3522 6.22226 11.0402 6.02421 10.6386L13.1992 7.10032C12.7326 6.15417 12.0338 5.39641 11.1956 4.85L6.82685 11.5518ZM6.15444 10.8812C5.96981 10.5639 5.85624 10.1808 5.84614 9.78827L13.8435 9.5824C13.8185 8.61053 13.5495 7.68346 13.069 6.85768L6.15444 10.8812ZM5.8579 10.0086C5.83221 9.6917 5.88523 9.4401 5.93681 9.28816L13.5122 11.8597C13.7708 11.098 13.904 10.254 13.8317 9.36211L5.8579 10.0086ZM5.88233 9.46148C5.9403 9.26127 6.04788 9.04395 6.20751 8.84896L12.3977 13.9167C12.9446 13.2486 13.3334 12.4921 13.5667 11.6864L5.88233 9.46148ZM6.11584 8.96525C6.35606 8.64861 6.59089 8.48026 6.69447 8.41404L11.0034 15.1544C11.4931 14.8414 12.0303 14.4055 12.4893 13.8004L6.11584 8.96525ZM6.59026 8.48298C6.70938 8.40147 6.81753 8.35128 6.89797 8.32215L9.62227 15.844C10.1335 15.6588 10.6342 15.4094 11.1077 15.0855L6.59026 8.48298ZM6.83908 8.344C6.93611 8.30713 7.02081 8.28834 7.08405 8.27966L8.17181 16.2054C8.67889 16.1358 9.18505 16.0107 9.68117 15.8221L6.83908 8.344ZM7.36777 8.25098C7.64277 8.23306 7.95616 8.26577 8.27267 8.37321L5.70109 15.9486C6.42414 16.1941 7.16489 16.2812 7.88809 16.234L7.36777 8.25098ZM8.32111 8.39C8.27738 8.37452 8.26483 8.36586 8.27411 8.37128C8.27856 8.37388 8.28729 8.3793 8.2992 8.38802C8.31114 8.39677 8.325 8.40791 8.33988 8.42148L2.94755 14.331C3.7553 15.0681 4.68133 15.5882 5.65265 15.9318L8.32111 8.39ZM8.39843 8.47599C8.45242 8.52728 8.53509 8.61894 8.61717 8.75618C8.7007 8.89583 8.76624 9.05381 8.80648 9.21858L1.03477 11.1161C1.34515 12.3873 2.01783 13.4491 2.88901 14.2765L8.39843 8.47599ZM8.77683 9.1045C8.77434 9.09547 8.77441 9.09357 8.775 9.09784C8.7756 9.10221 8.77623 9.10933 8.77622 9.11791C8.77622 9.12648 8.77558 9.13265 8.77523 9.13518C8.7749 9.13759 8.77533 9.13308 8.77872 9.12072L1.06536 6.99845C0.681474 8.39368 0.678533 9.83016 1.06442 11.2302L8.77683 9.1045ZM8.76663 9.16375C8.77962 9.11852 8.77904 9.14059 8.74147 9.20094C8.70168 9.26485 8.64099 9.33838 8.56328 9.40351L3.42451 3.2722C2.22533 4.27726 1.47399 5.57474 1.07746 6.95542L8.76663 9.16375ZM8.58031 9.38916C8.71575 9.27435 8.84089 9.17103 8.95603 9.07852L3.94555 2.84193C3.76977 2.98315 3.59031 3.13157 3.40748 3.28655L8.58031 9.38916ZM8.82588 9.17876C8.87089 9.14554 8.92439 9.10981 8.98798 9.07245L4.93555 2.17479C4.64046 2.34815 4.35331 2.53683 4.0757 2.74169L8.82588 9.17876ZM8.98798 9.07245C8.98681 9.07314 9.02636 9.05009 9.12098 9.01042L6.02778 1.63261C5.66426 1.78502 5.2954 1.96337 4.93555 2.17479L8.98798 9.07245ZM9.06316 9.03414C9.07944 9.02761 9.16714 8.99502 9.35171 8.95155L7.5174 1.16468C7.04491 1.27598 6.55916 1.419 6.0856 1.6089L9.06316 9.03414ZM11.9751 25.7367C11.7908 25.762 11.542 25.7572 11.2722 25.679L13.4971 17.9947C12.6218 17.7412 11.7374 17.6944 10.8874 17.811L11.9751 25.7367ZM11.2722 25.679C11.072 25.6211 10.8547 25.5135 10.6597 25.3539L15.7274 19.1637C15.0594 18.6168 14.3028 18.2279 13.4971 17.9947L11.2722 25.679ZM10.776 25.4455C10.5991 25.3114 10.4676 25.1534 10.3831 25.0107L17.2656 20.9326C16.8447 20.2223 16.2927 19.5891 15.6111 19.072L10.776 25.4455ZM10.4239 25.0781C10.276 24.8393 10.2042 24.601 10.179 24.4167L18.1047 23.3289C17.988 22.4789 17.7046 21.6398 17.2247 20.8652L10.4239 25.0781ZM10.179 24.4167C10.1535 24.2315 10.1635 24.0196 10.2188 23.8135L17.9455 25.8866C18.1717 25.0433 18.2214 24.1799 18.1047 23.3289L10.179 24.4167ZM10.2399 23.7376C10.2895 23.5662 10.373 23.4018 10.4767 23.2651L16.8502 28.1003C17.3368 27.4588 17.6994 26.7393 17.9243 25.9625L10.2399 23.7376ZM10.4767 23.2651C10.6163 23.0811 10.769 22.9567 10.8884 22.8828L15.1014 29.6836C15.7566 29.2777 16.3551 28.7529 16.8502 28.1003L10.4767 23.2651ZM10.8884 22.8828C11.1272 22.7348 11.3655 22.6631 11.5498 22.6378L12.6376 30.5635C13.4877 30.4468 14.3267 30.1635 15.1014 29.6836L10.8884 22.8828ZM11.5498 22.6378C11.735 22.6124 11.947 22.6223 12.153 22.6776L10.0799 30.4043C10.9232 30.6306 11.7866 30.6803 12.6376 30.5635L11.5498 22.6378ZM12.229 22.6988C12.3367 22.73 12.463 22.7863 12.5851 22.872L7.98912 29.4201C8.61163 29.857 9.29082 30.1766 10.004 30.3832L12.229 22.6988ZM12.821 23.051C12.9364 23.1455 13.0247 23.2519 13.0838 23.3473L6.28294 27.5602C6.67396 28.1914 7.16475 28.7594 7.75323 29.2411L12.821 23.051ZM13.1246 23.4147C13.2334 23.5982 13.3 23.7997 13.3255 23.9849L5.39975 25.0726C5.51654 25.9236 5.79704 26.7417 6.24211 27.4928L13.1246 23.4147ZM13.3255 23.9849C13.3508 24.1692 13.3459 24.4179 13.2677 24.6878L5.58336 22.4629C5.32992 23.3382 5.28308 24.2225 5.39975 25.0726L13.3255 23.9849ZM13.2889 24.6119C13.2628 24.7092 13.2048 24.8583 13.0912 25.0201L6.54315 20.4242C6.07835 21.0864 5.75925 21.8043 5.56219 22.5388L13.2889 24.6119ZM13.0039 25.1397C12.9002 25.2764 12.7644 25.4011 12.6127 25.4951L8.39979 18.6942C7.71232 19.1201 7.11707 19.6631 6.63044 20.3046L13.0039 25.1397ZM12.5453 25.5359C12.3618 25.6447 12.1603 25.7113 11.9751 25.7367L10.8874 17.811C10.0364 17.9278 9.21831 18.2083 8.46719 18.6534L12.5453 25.5359Z" fill="#5BCF50" mask="url(#path-1-outside-1_3475_691)"/>
</svg>
