<svg width="30" height="30" viewBox="0 0 30 30" fill="none" xmlns="http://www.w3.org/2000/svg">
<path d="M22.0626 7.93773C20.0251 5.90023 17.1376 4.72523 13.9626 5.05023C9.37509 5.51273 5.60009 9.23773 5.08759 13.8252C4.40009 19.8877 9.08759 25.0002 15.0001 25.0002C18.9876 25.0002 22.4126 22.6627 24.0126 19.3002C24.4126 18.4627 23.8126 17.5002 22.8876 17.5002C22.4251 17.5002 21.9876 17.7502 21.7876 18.1627C20.3751 21.2002 16.9876 23.1252 13.2876 22.3002C10.5126 21.6877 8.27509 19.4252 7.68759 16.6502C6.63759 11.8002 10.3251 7.50023 15.0001 7.50023C17.0751 7.50023 18.9251 8.36273 20.2751 9.72523L18.3876 11.6127C17.6001 12.4002 18.1501 13.7502 19.2626 13.7502H23.7501C24.4376 13.7502 25.0001 13.1877 25.0001 12.5002V8.01273C25.0001 6.90023 23.6501 6.33773 22.8626 7.12523L22.0626 7.93773Z" fill="#F5F5F5"/>
</svg>
