<svg width="42" height="18" viewBox="0 0 42 18" fill="none" xmlns="http://www.w3.org/2000/svg">
<mask id="path-1-outside-1_3482_1284" maskUnits="userSpaceOnUse" x="0" y="0" width="42" height="18" fill="black">
<rect fill="white" width="42" height="18"/>
<path d="M8.73186 3.562C8.73186 3.38867 8.81853 3.302 8.99186 3.302H9.97986C10.1532 3.302 10.2399 3.38867 10.2399 3.562V7.813H11.3969V3.51C11.3969 3.33667 11.4835 3.25 11.6569 3.25H12.6709C12.8442 3.25 12.9309 3.33667 12.9309 3.51V14.3C12.9309 14.4733 12.8442 14.56 12.6709 14.56H11.6569C11.4835 14.56 11.3969 14.4733 11.3969 14.3V9.139H10.2399V14.17C10.2399 14.3433 10.1532 14.43 9.97986 14.43H8.99186C8.81853 14.43 8.73186 14.3433 8.73186 14.17V3.562ZM3.31086 3.77C3.31086 3.59667 3.39753 3.51 3.57086 3.51H4.61086C4.78419 3.51 4.87086 3.59667 4.87086 3.77V12.428C4.87086 12.6013 4.95753 12.688 5.13086 12.688H5.32586C5.47319 12.688 5.64219 12.675 5.83286 12.649C6.03219 12.623 6.24019 12.584 6.45686 12.532C6.67353 12.4713 6.89019 12.402 7.10686 12.324C7.33219 12.2373 7.54886 12.1377 7.75686 12.025C7.82619 11.9817 7.89119 11.973 7.95186 11.999C8.02119 12.025 8.06453 12.0727 8.08186 12.142L8.28986 12.922C8.32453 13.0607 8.26819 13.1733 8.12086 13.26C7.67886 13.5113 7.16753 13.702 6.58686 13.832C6.00619 13.9707 5.41253 14.04 4.80586 14.04H4.61086C4.22086 14.04 3.90453 13.9187 3.66186 13.676C3.42786 13.442 3.31086 13.13 3.31086 12.74V3.77ZM19.634 4.654C19.4607 4.654 19.374 4.74067 19.374 4.914V6.357C19.374 6.53033 19.4607 6.617 19.634 6.617H25.224C25.3973 6.617 25.484 6.53033 25.484 6.357V4.914C25.484 4.74067 25.3973 4.654 25.224 4.654H19.634ZM17.801 4.706C17.801 4.316 17.918 4.004 18.152 3.77C18.3947 3.52733 18.711 3.406 19.101 3.406H25.757C26.147 3.406 26.459 3.52733 26.693 3.77C26.9357 4.004 27.057 4.316 27.057 4.706V6.552C27.057 6.942 26.9357 7.25833 26.693 7.501C26.459 7.735 26.147 7.852 25.757 7.852H23.222V8.84H27.291C27.4643 8.84 27.551 8.92667 27.551 9.1V9.88C27.551 10.0533 27.4643 10.14 27.291 10.14H17.567C17.3937 10.14 17.307 10.0533 17.307 9.88V9.1C17.307 8.92667 17.3937 8.84 17.567 8.84H21.636V7.852H19.101C18.711 7.852 18.3947 7.735 18.152 7.501C17.918 7.25833 17.801 6.942 17.801 6.552V4.706ZM26.979 14.3C26.979 14.4733 26.8923 14.56 26.719 14.56H25.64C25.4667 14.56 25.38 14.4733 25.38 14.3V12.545C25.38 12.3717 25.2933 12.285 25.12 12.285H18.087C17.9136 12.285 17.827 12.1983 17.827 12.025V11.245C17.827 11.0717 17.9136 10.985 18.087 10.985H25.679C26.069 10.985 26.381 11.1063 26.615 11.349C26.8577 11.583 26.979 11.895 26.979 12.285V14.3ZM38.7361 12.688C38.9094 12.688 38.9961 12.7747 38.9961 12.948V13.78C38.9961 13.9533 38.9094 14.04 38.7361 14.04H29.0121C28.8387 14.04 28.7521 13.9533 28.7521 13.78V12.948C28.7521 12.7747 28.8387 12.688 29.0121 12.688H31.1571V10.413H29.4151C29.2417 10.413 29.1551 10.3263 29.1551 10.153V9.399C29.1551 9.22567 29.2417 9.139 29.4151 9.139H35.2261V5.655C35.2261 5.48167 35.3127 5.395 35.4861 5.395H36.5521C36.7254 5.395 36.8121 5.48167 36.8121 5.655V9.139H38.3331C38.5064 9.139 38.5931 9.22567 38.5931 9.399V10.153C38.5931 10.3263 38.5064 10.413 38.3331 10.413H36.5911V12.688H38.7361ZM32.5221 5.356C32.5221 5.876 32.5437 6.36133 32.5871 6.812C32.6304 7.26267 32.6997 7.735 32.7951 8.229C32.8124 8.29833 32.8081 8.36767 32.7821 8.437C32.7561 8.50633 32.7084 8.54967 32.6391 8.567L31.5601 8.749C31.4907 8.76633 31.4257 8.75333 31.3651 8.71C31.3044 8.66667 31.2654 8.61033 31.2481 8.541C31.1441 8.00367 31.0661 7.48367 31.0141 6.981C30.9621 6.46967 30.9361 5.928 30.9361 5.356V4.888H29.5191C29.3457 4.888 29.2591 4.80133 29.2591 4.628V3.861C29.2591 3.68767 29.3457 3.601 29.5191 3.601H38.2291C38.4024 3.601 38.4891 3.68767 38.4891 3.861V4.628C38.4891 4.80133 38.4024 4.888 38.2291 4.888H32.5221V5.356ZM35.0311 12.688V10.413H32.7171V12.688H35.0311Z"/>
</mask>
<path d="M8.73186 3.562C8.73186 3.38867 8.81853 3.302 8.99186 3.302H9.97986C10.1532 3.302 10.2399 3.38867 10.2399 3.562V7.813H11.3969V3.51C11.3969 3.33667 11.4835 3.25 11.6569 3.25H12.6709C12.8442 3.25 12.9309 3.33667 12.9309 3.51V14.3C12.9309 14.4733 12.8442 14.56 12.6709 14.56H11.6569C11.4835 14.56 11.3969 14.4733 11.3969 14.3V9.139H10.2399V14.17C10.2399 14.3433 10.1532 14.43 9.97986 14.43H8.99186C8.81853 14.43 8.73186 14.3433 8.73186 14.17V3.562ZM3.31086 3.77C3.31086 3.59667 3.39753 3.51 3.57086 3.51H4.61086C4.78419 3.51 4.87086 3.59667 4.87086 3.77V12.428C4.87086 12.6013 4.95753 12.688 5.13086 12.688H5.32586C5.47319 12.688 5.64219 12.675 5.83286 12.649C6.03219 12.623 6.24019 12.584 6.45686 12.532C6.67353 12.4713 6.89019 12.402 7.10686 12.324C7.33219 12.2373 7.54886 12.1377 7.75686 12.025C7.82619 11.9817 7.89119 11.973 7.95186 11.999C8.02119 12.025 8.06453 12.0727 8.08186 12.142L8.28986 12.922C8.32453 13.0607 8.26819 13.1733 8.12086 13.26C7.67886 13.5113 7.16753 13.702 6.58686 13.832C6.00619 13.9707 5.41253 14.04 4.80586 14.04H4.61086C4.22086 14.04 3.90453 13.9187 3.66186 13.676C3.42786 13.442 3.31086 13.13 3.31086 12.74V3.77ZM19.634 4.654C19.4607 4.654 19.374 4.74067 19.374 4.914V6.357C19.374 6.53033 19.4607 6.617 19.634 6.617H25.224C25.3973 6.617 25.484 6.53033 25.484 6.357V4.914C25.484 4.74067 25.3973 4.654 25.224 4.654H19.634ZM17.801 4.706C17.801 4.316 17.918 4.004 18.152 3.77C18.3947 3.52733 18.711 3.406 19.101 3.406H25.757C26.147 3.406 26.459 3.52733 26.693 3.77C26.9357 4.004 27.057 4.316 27.057 4.706V6.552C27.057 6.942 26.9357 7.25833 26.693 7.501C26.459 7.735 26.147 7.852 25.757 7.852H23.222V8.84H27.291C27.4643 8.84 27.551 8.92667 27.551 9.1V9.88C27.551 10.0533 27.4643 10.14 27.291 10.14H17.567C17.3937 10.14 17.307 10.0533 17.307 9.88V9.1C17.307 8.92667 17.3937 8.84 17.567 8.84H21.636V7.852H19.101C18.711 7.852 18.3947 7.735 18.152 7.501C17.918 7.25833 17.801 6.942 17.801 6.552V4.706ZM26.979 14.3C26.979 14.4733 26.8923 14.56 26.719 14.56H25.64C25.4667 14.56 25.38 14.4733 25.38 14.3V12.545C25.38 12.3717 25.2933 12.285 25.12 12.285H18.087C17.9136 12.285 17.827 12.1983 17.827 12.025V11.245C17.827 11.0717 17.9136 10.985 18.087 10.985H25.679C26.069 10.985 26.381 11.1063 26.615 11.349C26.8577 11.583 26.979 11.895 26.979 12.285V14.3ZM38.7361 12.688C38.9094 12.688 38.9961 12.7747 38.9961 12.948V13.78C38.9961 13.9533 38.9094 14.04 38.7361 14.04H29.0121C28.8387 14.04 28.7521 13.9533 28.7521 13.78V12.948C28.7521 12.7747 28.8387 12.688 29.0121 12.688H31.1571V10.413H29.4151C29.2417 10.413 29.1551 10.3263 29.1551 10.153V9.399C29.1551 9.22567 29.2417 9.139 29.4151 9.139H35.2261V5.655C35.2261 5.48167 35.3127 5.395 35.4861 5.395H36.5521C36.7254 5.395 36.8121 5.48167 36.8121 5.655V9.139H38.3331C38.5064 9.139 38.5931 9.22567 38.5931 9.399V10.153C38.5931 10.3263 38.5064 10.413 38.3331 10.413H36.5911V12.688H38.7361ZM32.5221 5.356C32.5221 5.876 32.5437 6.36133 32.5871 6.812C32.6304 7.26267 32.6997 7.735 32.7951 8.229C32.8124 8.29833 32.8081 8.36767 32.7821 8.437C32.7561 8.50633 32.7084 8.54967 32.6391 8.567L31.5601 8.749C31.4907 8.76633 31.4257 8.75333 31.3651 8.71C31.3044 8.66667 31.2654 8.61033 31.2481 8.541C31.1441 8.00367 31.0661 7.48367 31.0141 6.981C30.9621 6.46967 30.9361 5.928 30.9361 5.356V4.888H29.5191C29.3457 4.888 29.2591 4.80133 29.2591 4.628V3.861C29.2591 3.68767 29.3457 3.601 29.5191 3.601H38.2291C38.4024 3.601 38.4891 3.68767 38.4891 3.861V4.628C38.4891 4.80133 38.4024 4.888 38.2291 4.888H32.5221V5.356ZM35.0311 12.688V10.413H32.7171V12.688H35.0311Z" fill="#1E1E1E"/>
<path d="M10.2399 7.813H7.23986V10.813H10.2399V7.813ZM11.3969 7.813V10.813H14.3969V7.813H11.3969ZM11.3969 9.139H14.3969V6.139H11.3969V9.139ZM10.2399 9.139V6.139H7.23986V9.139H10.2399ZM5.83286 12.649L5.44484 9.6742L5.43618 9.67533L5.42752 9.67651L5.83286 12.649ZM6.45686 12.532L7.15698 15.4492L7.21163 15.436L7.26575 15.4209L6.45686 12.532ZM7.10686 12.324L8.12302 15.1467L8.15353 15.1357L8.1838 15.124L7.10686 12.324ZM7.75686 12.025L9.18571 14.6629L9.26774 14.6184L9.34686 14.569L7.75686 12.025ZM7.95186 11.999L6.7701 14.7564L6.8337 14.7837L6.89849 14.808L7.95186 11.999ZM8.08186 12.142L5.17143 12.8696L5.17712 12.8923L5.18315 12.915L8.08186 12.142ZM8.28986 12.922L11.2003 12.1944L11.1946 12.1717L11.1886 12.149L8.28986 12.922ZM8.12086 13.26L9.60377 15.8679L9.62292 15.857L9.64192 15.8458L8.12086 13.26ZM6.58686 13.832L5.93144 10.9045L5.9107 10.9091L5.89003 10.914L6.58686 13.832ZM3.66186 13.676L5.78318 11.5547H5.78318L3.66186 13.676ZM11.7319 3.562C11.7319 3.93777 11.6359 4.77061 10.9182 5.48832C10.2005 6.20603 9.36763 6.302 8.99186 6.302V0.301999C8.44276 0.301999 7.47991 0.441307 6.67554 1.24568C5.87117 2.05005 5.73186 3.0129 5.73186 3.562H11.7319ZM8.99186 6.302H9.97986V0.301999H8.99186V6.302ZM9.97986 6.302C9.60409 6.302 8.77124 6.20602 8.05354 5.48832C7.33583 4.77061 7.23986 3.93777 7.23986 3.562H13.2399C13.2399 3.0129 13.1006 2.05006 12.2962 1.24568C11.4918 0.441308 10.529 0.301999 9.97986 0.301999V6.302ZM7.23986 3.562V7.813H13.2399V3.562H7.23986ZM10.2399 10.813H11.3969V4.813H10.2399V10.813ZM14.3969 7.813V3.51H8.39686V7.813H14.3969ZM14.3969 3.51C14.3969 3.88577 14.3009 4.71861 13.5832 5.43632C12.8655 6.15403 12.0326 6.25 11.6569 6.25V0.249999C11.1078 0.249999 10.1449 0.389306 9.34054 1.19368C8.53617 1.99805 8.39686 2.9609 8.39686 3.51H14.3969ZM11.6569 6.25H12.6709V0.249999H11.6569V6.25ZM12.6709 6.25C12.2951 6.25 11.4622 6.15403 10.7445 5.43632C10.0268 4.71861 9.93086 3.88577 9.93086 3.51H15.9309C15.9309 2.9609 15.7916 1.99805 14.9872 1.19368C14.1828 0.389306 13.22 0.249999 12.6709 0.249999V6.25ZM9.93086 3.51V14.3H15.9309V3.51H9.93086ZM9.93086 14.3C9.93086 13.9242 10.0268 13.0914 10.7445 12.3737C11.4622 11.656 12.2951 11.56 12.6709 11.56V17.56C13.22 17.56 14.1828 17.4207 14.9872 16.6163C15.7916 15.8119 15.9309 14.8491 15.9309 14.3H9.93086ZM12.6709 11.56H11.6569V17.56H12.6709V11.56ZM11.6569 11.56C12.0326 11.56 12.8655 11.656 13.5832 12.3737C14.3009 13.0914 14.3969 13.9242 14.3969 14.3H8.39686C8.39686 14.8491 8.53617 15.8119 9.34054 16.6163C10.1449 17.4207 11.1078 17.56 11.6569 17.56V11.56ZM14.3969 14.3V9.139H8.39686V14.3H14.3969ZM11.3969 6.139H10.2399V12.139H11.3969V6.139ZM7.23986 9.139V14.17H13.2399V9.139H7.23986ZM7.23986 14.17C7.23986 13.7942 7.33583 12.9614 8.05354 12.2437C8.77124 11.526 9.60409 11.43 9.97986 11.43V17.43C10.529 17.43 11.4918 17.2907 12.2962 16.4863C13.1006 15.6819 13.2399 14.7191 13.2399 14.17H7.23986ZM9.97986 11.43H8.99186V17.43H9.97986V11.43ZM8.99186 11.43C9.36763 11.43 10.2005 11.526 10.9182 12.2437C11.6359 12.9614 11.7319 13.7942 11.7319 14.17H5.73186C5.73186 14.7191 5.87117 15.6819 6.67554 16.4863C7.47991 17.2907 8.44276 17.43 8.99186 17.43V11.43ZM11.7319 14.17V3.562H5.73186V14.17H11.7319ZM6.31086 3.77C6.31086 4.14577 6.21488 4.97861 5.49718 5.69632C4.77947 6.41403 3.94663 6.51 3.57086 6.51V0.51C3.02176 0.51 2.05891 0.649307 1.25454 1.45368C0.450166 2.25805 0.310859 3.2209 0.310859 3.77H6.31086ZM3.57086 6.51H4.61086V0.51H3.57086V6.51ZM4.61086 6.51C4.23509 6.51 3.40225 6.41403 2.68454 5.69632C1.96683 4.97861 1.87086 4.14577 1.87086 3.77H7.87086C7.87086 3.2209 7.73155 2.25805 6.92718 1.45368C6.12281 0.649307 5.15996 0.51 4.61086 0.51V6.51ZM1.87086 3.77V12.428H7.87086V3.77H1.87086ZM1.87086 12.428C1.87086 12.9771 2.01017 13.9399 2.81454 14.7443C3.61891 15.5487 4.58176 15.688 5.13086 15.688V9.688C5.50663 9.688 6.33947 9.78397 7.05718 10.5017C7.77488 11.2194 7.87086 12.0522 7.87086 12.428H1.87086ZM5.13086 15.688H5.32586V9.688H5.13086V15.688ZM5.32586 15.688C5.64249 15.688 5.95135 15.6606 6.2382 15.6215L5.42752 9.67651C5.38279 9.68261 5.35174 9.68565 5.33302 9.68709C5.31398 9.68855 5.31237 9.688 5.32586 9.688V15.688ZM6.22088 15.6238C6.53573 15.5827 6.84825 15.5233 7.15698 15.4492L5.75674 9.61484C5.63213 9.64474 5.52865 9.66327 5.44484 9.6742L6.22088 15.6238ZM7.26575 15.4209C7.5539 15.3402 7.83968 15.2487 8.12302 15.1467L6.0907 9.50134C5.94071 9.55534 5.79316 9.60246 5.64797 9.64311L7.26575 15.4209ZM8.1838 15.124C8.52733 14.9919 8.86171 14.8384 9.18571 14.6629L6.32801 9.38712C6.23601 9.43696 6.13706 9.48276 6.02992 9.52396L8.1838 15.124ZM9.34686 14.569C9.10584 14.7196 8.73659 14.8954 8.2541 14.9597C7.74696 15.0273 7.23333 14.955 6.7701 14.7564L9.13362 9.24156C7.95118 8.7348 6.84498 9.05718 6.16686 9.48101L9.34686 14.569ZM6.89849 14.808C6.55403 14.6788 6.16026 14.4504 5.81654 14.0723C5.46975 13.6908 5.26952 13.2619 5.17143 12.8696L10.9923 11.4144C10.7256 10.3477 9.95835 9.54743 9.00523 9.19001L6.89849 14.808ZM5.18315 12.915L5.39115 13.695L11.1886 12.149L10.9806 11.369L5.18315 12.915ZM5.37943 13.6496C5.24798 13.1238 5.25512 12.4393 5.59033 11.7689C5.8985 11.1525 6.34721 10.8228 6.5998 10.6742L9.64192 15.8458C10.0418 15.6106 10.5924 15.1811 10.9569 14.4521C11.3484 13.6691 11.3664 12.8589 11.2003 12.1944L5.37943 13.6496ZM6.63795 10.6521C6.49403 10.734 6.27007 10.8287 5.93144 10.9045L7.24228 16.7595C8.06499 16.5753 8.86368 16.2887 9.60377 15.8679L6.63795 10.6521ZM5.89003 10.914C5.54133 10.9973 5.18167 11.04 4.80586 11.04V17.04C5.64338 17.04 6.47106 16.944 7.28368 16.75L5.89003 10.914ZM4.80586 11.04H4.61086V17.04H4.80586V11.04ZM4.61086 11.04C4.72836 11.04 4.92304 11.0588 5.15547 11.148C5.39529 11.24 5.61101 11.3825 5.78318 11.5547L1.54054 15.7973C2.42418 16.681 3.54334 17.04 4.61086 17.04V11.04ZM5.78318 11.5547C5.97116 11.7427 6.1168 11.971 6.2076 12.2131C6.29493 12.446 6.31086 12.6354 6.31086 12.74H0.310859C0.310859 13.7728 0.644332 14.9011 1.54054 15.7973L5.78318 11.5547ZM6.31086 12.74V3.77H0.310859V12.74H6.31086ZM18.152 3.77L16.0307 1.64868L16.0307 1.64868L18.152 3.77ZM26.693 3.77L24.5335 5.85241L24.5713 5.89167L24.6106 5.92953L26.693 3.77ZM26.693 7.501L28.8143 9.62232L28.8143 9.62232L26.693 7.501ZM23.222 7.852V4.852H20.222V7.852H23.222ZM23.222 8.84H20.222V11.84H23.222V8.84ZM21.636 8.84V11.84H24.636V8.84H21.636ZM21.636 7.852H24.636V4.852H21.636V7.852ZM18.152 7.501L15.9924 9.58341L16.0303 9.62267L16.0696 9.66053L18.152 7.501ZM26.615 11.349L24.4554 13.4314L24.4933 13.4707L24.5326 13.5085L26.615 11.349ZM19.634 1.654C19.0849 1.654 18.122 1.79331 17.3177 2.59768C16.5133 3.40205 16.374 4.3649 16.374 4.914H22.374C22.374 5.28977 22.278 6.12262 21.5603 6.84032C20.8426 7.55803 20.0098 7.654 19.634 7.654V1.654ZM16.374 4.914V6.357H22.374V4.914H16.374ZM16.374 6.357C16.374 6.9061 16.5133 7.86895 17.3177 8.67332C18.122 9.47769 19.0849 9.617 19.634 9.617V3.617C20.0098 3.617 20.8426 3.71297 21.5603 4.43068C22.278 5.14839 22.374 5.98123 22.374 6.357H16.374ZM19.634 9.617H25.224V3.617H19.634V9.617ZM25.224 9.617C25.7731 9.617 26.7359 9.47769 27.5403 8.67332C28.3447 7.86895 28.484 6.9061 28.484 6.357H22.484C22.484 5.98123 22.58 5.14838 23.2977 4.43068C24.0154 3.71297 24.8482 3.617 25.224 3.617V9.617ZM28.484 6.357V4.914H22.484V6.357H28.484ZM28.484 4.914C28.484 4.3649 28.3447 3.40205 27.5403 2.59768C26.7359 1.79331 25.7731 1.654 25.224 1.654V7.654C24.8482 7.654 24.0154 7.55803 23.2977 6.84032C22.58 6.12262 22.484 5.28977 22.484 4.914H28.484ZM25.224 1.654H19.634V7.654H25.224V1.654ZM20.801 4.706C20.801 4.81059 20.7851 4.99998 20.6977 5.23287C20.6069 5.47499 20.4613 5.70334 20.2733 5.89132L16.0307 1.64868C15.1345 2.54489 14.801 3.67323 14.801 4.706H20.801ZM20.2733 5.89132C20.1011 6.06349 19.8854 6.20604 19.6456 6.29802C19.4132 6.38718 19.2185 6.406 19.101 6.406V0.406C18.0335 0.406 16.9143 0.765041 16.0307 1.64868L20.2733 5.89132ZM19.101 6.406H25.757V0.406H19.101V6.406ZM25.757 6.406C25.6404 6.406 25.439 6.38745 25.1961 6.29301C24.9444 6.1951 24.7158 6.04149 24.5335 5.85241L28.8525 1.68759C27.9633 0.765431 26.8224 0.406 25.757 0.406V6.406ZM24.6106 5.92953C24.4215 5.7472 24.2679 5.51861 24.17 5.26684C24.0755 5.02401 24.057 4.82256 24.057 4.706H30.057C30.057 3.64058 29.6976 2.49969 28.7754 1.61047L24.6106 5.92953ZM24.057 4.706V6.552H30.057V4.706H24.057ZM24.057 6.552C24.057 6.43449 24.0758 6.23981 24.165 6.00738C24.2569 5.76757 24.3995 5.55185 24.5717 5.37968L28.8143 9.62232C29.6979 8.73868 30.057 7.61952 30.057 6.552H24.057ZM24.5717 5.37968C24.7596 5.1917 24.988 5.04606 25.2301 4.95526C25.463 4.86793 25.6524 4.852 25.757 4.852V10.852C26.7897 10.852 27.9181 10.5185 28.8143 9.62232L24.5717 5.37968ZM25.757 4.852H23.222V10.852H25.757V4.852ZM20.222 7.852V8.84H26.222V7.852H20.222ZM23.222 11.84H27.291V5.84H23.222V11.84ZM27.291 11.84C26.9152 11.84 26.0824 11.744 25.3647 11.0263C24.647 10.3086 24.551 9.47577 24.551 9.1H30.551C30.551 8.5509 30.4117 7.58805 29.6073 6.78368C28.8029 5.97931 27.8401 5.84 27.291 5.84V11.84ZM24.551 9.1V9.88H30.551V9.1H24.551ZM24.551 9.88C24.551 9.50423 24.647 8.67139 25.3647 7.95368C26.0824 7.23597 26.9152 7.14 27.291 7.14V13.14C27.8401 13.14 28.8029 13.0007 29.6073 12.1963C30.4117 11.3919 30.551 10.4291 30.551 9.88H24.551ZM27.291 7.14H17.567V13.14H27.291V7.14ZM17.567 7.14C17.9428 7.14 18.7756 7.23597 19.4933 7.95368C20.211 8.67138 20.307 9.50423 20.307 9.88H14.307C14.307 10.4291 14.4463 11.3919 15.2507 12.1963C16.055 13.0007 17.0179 13.14 17.567 13.14V7.14ZM20.307 9.88V9.1H14.307V9.88H20.307ZM20.307 9.1C20.307 9.47577 20.211 10.3086 19.4933 11.0263C18.7756 11.744 17.9428 11.84 17.567 11.84V5.84C17.0179 5.84 16.055 5.97931 15.2507 6.78368C14.4463 7.58805 14.307 8.5509 14.307 9.1H20.307ZM17.567 11.84H21.636V5.84H17.567V11.84ZM24.636 8.84V7.852H18.636V8.84H24.636ZM21.636 4.852H19.101V10.852H21.636V4.852ZM19.101 4.852C19.2065 4.852 19.3893 4.8682 19.6119 4.95054C19.8423 5.03573 20.0572 5.17065 20.2344 5.34147L16.0696 9.66053C16.9592 10.5184 18.0654 10.852 19.101 10.852V4.852ZM20.3115 5.41859C20.4823 5.59574 20.6173 5.81073 20.7024 6.04106C20.7848 6.26369 20.801 6.44645 20.801 6.552H14.801C14.801 7.58758 15.1346 8.69378 15.9924 9.58341L20.3115 5.41859ZM20.801 6.552V4.706H14.801V6.552H20.801ZM23.979 14.3C23.979 13.9242 24.075 13.0914 24.7927 12.3737C25.5104 11.656 26.3432 11.56 26.719 11.56V17.56C27.2681 17.56 28.2309 17.4207 29.0353 16.6163C29.8397 15.8119 29.979 14.8491 29.979 14.3H23.979ZM26.719 11.56H25.64V17.56H26.719V11.56ZM25.64 11.56C26.0158 11.56 26.8486 11.656 27.5663 12.3737C28.284 13.0914 28.38 13.9242 28.38 14.3H22.38C22.38 14.8491 22.5193 15.8119 23.3237 16.6163C24.128 17.4207 25.0909 17.56 25.64 17.56V11.56ZM28.38 14.3V12.545H22.38V14.3H28.38ZM28.38 12.545C28.38 11.9959 28.2407 11.033 27.4363 10.2287C26.6319 9.42431 25.6691 9.285 25.12 9.285V15.285C24.7442 15.285 23.9114 15.189 23.1937 14.4713C22.476 13.7536 22.38 12.9208 22.38 12.545H28.38ZM25.12 9.285H18.087V15.285H25.12V9.285ZM18.087 9.285C18.4628 9.285 19.2956 9.38097 20.0133 10.0987C20.731 10.8164 20.827 11.6492 20.827 12.025H14.827C14.827 12.5741 14.9663 13.5369 15.7707 14.3413C16.575 15.1457 17.5379 15.285 18.087 15.285V9.285ZM20.827 12.025V11.245H14.827V12.025H20.827ZM20.827 11.245C20.827 11.6208 20.731 12.4536 20.0133 13.1713C19.2956 13.889 18.4628 13.985 18.087 13.985V7.985C17.5379 7.985 16.575 8.12431 15.7707 8.92868C14.9663 9.73305 14.827 10.6959 14.827 11.245H20.827ZM18.087 13.985H25.679V7.985H18.087V13.985ZM25.679 13.985C25.5624 13.985 25.361 13.9664 25.1181 13.872C24.8664 13.7741 24.6378 13.6205 24.4554 13.4314L28.7745 9.26659C27.8853 8.34443 26.7444 7.985 25.679 7.985V13.985ZM24.5326 13.5085C24.3435 13.3262 24.1899 13.0976 24.092 12.8458C23.9975 12.603 23.979 12.4016 23.979 12.285H29.979C29.979 11.2196 29.6196 10.0787 28.6974 9.18947L24.5326 13.5085ZM23.979 12.285V14.3H29.979V12.285H23.979ZM31.1571 12.688V15.688H34.1571V12.688H31.1571ZM31.1571 10.413H34.1571V7.413H31.1571V10.413ZM35.2261 9.139V12.139H38.2261V9.139H35.2261ZM36.8121 9.139H33.8121V12.139H36.8121V9.139ZM36.5911 10.413V7.413H33.5911V10.413H36.5911ZM36.5911 12.688H33.5911V15.688H36.5911V12.688ZM32.7951 8.229L29.8494 8.79746L29.8649 8.87751L29.8846 8.95661L32.7951 8.229ZM32.7821 8.437L35.591 9.49038L35.591 9.49037L32.7821 8.437ZM32.6391 8.567L33.138 11.5252L33.2533 11.5058L33.3667 11.4774L32.6391 8.567ZM31.5601 8.749L31.0611 5.79079L30.9458 5.81023L30.8325 5.83857L31.5601 8.749ZM31.2481 8.541L28.3027 9.11106L28.3181 9.1903L28.3376 9.2686L31.2481 8.541ZM31.0141 6.981L28.0294 7.28452L28.03 7.2897L31.0141 6.981ZM30.9361 4.888H33.9361V1.888H30.9361V4.888ZM32.5221 4.888V1.888H29.5221V4.888H32.5221ZM35.0311 12.688V15.688H38.0311V12.688H35.0311ZM35.0311 10.413H38.0311V7.413H35.0311V10.413ZM32.7171 10.413V7.413H29.7171V10.413H32.7171ZM32.7171 12.688H29.7171V15.688H32.7171V12.688ZM38.7361 15.688C38.3603 15.688 37.5274 15.592 36.8097 14.8743C36.092 14.1566 35.9961 13.3238 35.9961 12.948H41.9961C41.9961 12.3989 41.8568 11.4361 41.0524 10.6317C40.248 9.82731 39.2852 9.688 38.7361 9.688V15.688ZM35.9961 12.948V13.78H41.9961V12.948H35.9961ZM35.9961 13.78C35.9961 13.4042 36.092 12.5714 36.8097 11.8537C37.5274 11.136 38.3603 11.04 38.7361 11.04V17.04C39.2852 17.04 40.248 16.9007 41.0524 16.0963C41.8568 15.2919 41.9961 14.3291 41.9961 13.78H35.9961ZM38.7361 11.04H29.0121V17.04H38.7361V11.04ZM29.0121 11.04C29.3878 11.04 30.2207 11.136 30.9384 11.8537C31.6561 12.5714 31.7521 13.4042 31.7521 13.78H25.7521C25.7521 14.3291 25.8914 15.2919 26.6957 16.0963C27.5001 16.9007 28.463 17.04 29.0121 17.04V11.04ZM31.7521 13.78V12.948H25.7521V13.78H31.7521ZM31.7521 12.948C31.7521 13.3238 31.6561 14.1566 30.9384 14.8743C30.2207 15.592 29.3878 15.688 29.0121 15.688V9.688C28.463 9.688 27.5001 9.82731 26.6957 10.6317C25.8914 11.4361 25.7521 12.3989 25.7521 12.948H31.7521ZM29.0121 15.688H31.1571V9.688H29.0121V15.688ZM34.1571 12.688V10.413H28.1571V12.688H34.1571ZM31.1571 7.413H29.4151V13.413H31.1571V7.413ZM29.4151 7.413C29.7908 7.413 30.6237 7.50897 31.3414 8.22668C32.0591 8.94439 32.1551 9.77723 32.1551 10.153H26.1551C26.1551 10.7021 26.2944 11.6649 27.0987 12.4693C27.9031 13.2737 28.866 13.413 29.4151 13.413V7.413ZM32.1551 10.153V9.399H26.1551V10.153H32.1551ZM32.1551 9.399C32.1551 9.77477 32.0591 10.6076 31.3414 11.3253C30.6237 12.043 29.7908 12.139 29.4151 12.139V6.139C28.866 6.139 27.9031 6.27831 27.0987 7.08268C26.2944 7.88705 26.1551 8.8499 26.1551 9.399H32.1551ZM29.4151 12.139H35.2261V6.139H29.4151V12.139ZM38.2261 9.139V5.655H32.2261V9.139H38.2261ZM38.2261 5.655C38.2261 6.03077 38.1301 6.86361 37.4124 7.58132C36.6947 8.29902 35.8618 8.395 35.4861 8.395V2.395C34.937 2.395 33.9741 2.53431 33.1697 3.33868C32.3654 4.14306 32.2261 5.1059 32.2261 5.655H38.2261ZM35.4861 8.395H36.5521V2.395H35.4861V8.395ZM36.5521 8.395C36.1763 8.395 35.3434 8.29903 34.6257 7.58132C33.908 6.86361 33.8121 6.03077 33.8121 5.655H39.8121C39.8121 5.1059 39.6728 4.14305 38.8684 3.33868C38.064 2.53431 37.1012 2.395 36.5521 2.395V8.395ZM33.8121 5.655V9.139H39.8121V5.655H33.8121ZM36.8121 12.139H38.3331V6.139H36.8121V12.139ZM38.3331 12.139C37.9573 12.139 37.1244 12.043 36.4067 11.3253C35.689 10.6076 35.5931 9.77477 35.5931 9.399H41.5931C41.5931 8.8499 41.4538 7.88705 40.6494 7.08268C39.845 6.27831 38.8822 6.139 38.3331 6.139V12.139ZM35.5931 9.399V10.153H41.5931V9.399H35.5931ZM35.5931 10.153C35.5931 9.77723 35.689 8.94439 36.4067 8.22668C37.1244 7.50897 37.9573 7.413 38.3331 7.413V13.413C38.8822 13.413 39.845 13.2737 40.6494 12.4693C41.4538 11.6649 41.5931 10.7021 41.5931 10.153H35.5931ZM38.3331 7.413H36.5911V13.413H38.3331V7.413ZM33.5911 10.413V12.688H39.5911V10.413H33.5911ZM36.5911 15.688H38.7361V9.688H36.5911V15.688ZM29.5221 5.356C29.5221 5.95814 29.5471 6.54027 29.6008 7.09914L35.5733 6.52486C35.5404 6.1824 35.5221 5.79386 35.5221 5.356H29.5221ZM29.6008 7.09914C29.6542 7.65387 29.7381 8.22046 29.8494 8.79746L35.7407 7.66054C35.6614 7.24954 35.6066 6.87147 35.5733 6.52486L29.6008 7.09914ZM29.8846 8.95661C29.7489 8.41348 29.7937 7.86208 29.9731 7.38363L35.591 9.49037C35.8225 8.87325 35.8759 8.18318 35.7055 7.50139L29.8846 8.95661ZM29.9731 7.38362C30.1022 7.03917 30.3307 6.64539 30.7088 6.30168C31.0903 5.95489 31.5191 5.75466 31.9115 5.65657L33.3667 11.4774C34.4333 11.2108 35.2336 10.4435 35.591 9.49038L29.9731 7.38362ZM32.1401 5.60879L31.0611 5.79079L32.059 11.7072L33.138 11.5252L32.1401 5.60879ZM30.8325 5.83857C31.1944 5.74807 31.6112 5.72322 32.0477 5.81051C32.4804 5.89706 32.8369 6.0746 33.1088 6.2688L29.6213 11.1512C30.3619 11.6802 31.3243 11.9003 32.2877 11.6594L30.8325 5.83857ZM33.1088 6.2688C33.601 6.62039 33.9949 7.1592 34.1585 7.8134L28.3376 9.2686C28.5358 10.0615 29.0078 10.7129 29.6213 11.1512L33.1088 6.2688ZM34.1934 7.97093C34.1048 7.51307 34.0404 7.08046 33.9981 6.6723L28.03 7.2897C28.0918 7.88687 28.1833 8.49426 28.3027 9.11106L34.1934 7.97093ZM33.9987 6.67748C33.958 6.27751 33.9361 5.83778 33.9361 5.356H27.9361C27.9361 6.01822 27.9661 6.66183 28.0295 7.28452L33.9987 6.67748ZM33.9361 5.356V4.888H27.9361V5.356H33.9361ZM30.9361 1.888H29.5191V7.888H30.9361V1.888ZM29.5191 1.888C29.8948 1.888 30.7277 1.98397 31.4454 2.70168C32.1631 3.41939 32.2591 4.25223 32.2591 4.628H26.2591C26.2591 5.1771 26.3984 6.13994 27.2027 6.94432C28.0071 7.74869 28.97 7.888 29.5191 7.888V1.888ZM32.2591 4.628V3.861H26.2591V4.628H32.2591ZM32.2591 3.861C32.2591 4.23677 32.1631 5.06961 31.4454 5.78732C30.7277 6.50502 29.8948 6.601 29.5191 6.601V0.600999C28.97 0.600999 28.0071 0.740307 27.2027 1.54468C26.3984 2.34905 26.2591 3.3119 26.2591 3.861H32.2591ZM29.5191 6.601H38.2291V0.600999H29.5191V6.601ZM38.2291 6.601C37.8533 6.601 37.0204 6.50503 36.3027 5.78732C35.585 5.06961 35.4891 4.23677 35.4891 3.861H41.4891C41.4891 3.3119 41.3498 2.34905 40.5454 1.54468C39.741 0.740306 38.7782 0.600999 38.2291 0.600999V6.601ZM35.4891 3.861V4.628H41.4891V3.861H35.4891ZM35.4891 4.628C35.4891 4.25223 35.585 3.41939 36.3027 2.70168C37.0204 1.98397 37.8533 1.888 38.2291 1.888V7.888C38.7782 7.888 39.741 7.74869 40.5454 6.94432C41.3498 6.13995 41.4891 5.1771 41.4891 4.628H35.4891ZM38.2291 1.888H32.5221V7.888H38.2291V1.888ZM29.5221 4.888V5.356H35.5221V4.888H29.5221ZM38.0311 12.688V10.413H32.0311V12.688H38.0311ZM35.0311 7.413H32.7171V13.413H35.0311V7.413ZM29.7171 10.413V12.688H35.7171V10.413H29.7171ZM32.7171 15.688H35.0311V9.688H32.7171V15.688Z" fill="#F5F5F5" mask="url(#path-1-outside-1_3482_1284)"/>
</svg>
